%TF.GenerationSoftware,KiCad,Pcbnew,9.99.0-5522-g400384cf72*%
%TF.CreationDate,2026-02-12T00:01:32-08:00*%
%TF.ProjectId,amb-kb,616d622d-6b62-42e6-9b69-6361645f7063,rev?*%
%TF.SameCoordinates,Original*%
%TF.FileFunction,Drillmap*%
%TF.FilePolarity,Positive*%
%FSLAX45Y45*%
G04 Gerber Fmt 4.5, Leading zero omitted, Abs format (unit mm)*
G04 Created by KiCad (PCBNEW 9.99.0-5522-g400384cf72) date 2026-02-12 00:01:32*
%MOMM*%
%LPD*%
G01*
G04 APERTURE LIST*
%ADD10C,0.050000*%
%ADD11C,0.200000*%
%ADD12C,0.170180*%
%ADD13C,0.300000*%
%ADD14C,0.304800*%
%ADD15C,0.398780*%
G04 APERTURE END LIST*
D10*
X2217358Y-5414760D02*
X2217358Y-5414760D01*
G75*
G02*
X2417358Y-5214760I200002J0D01*
G01*
X27455450Y-5214760D01*
G75*
G02*
X27655450Y-5414760I0J-200000D01*
G01*
X27655450Y-14260341D01*
G75*
G02*
X27455450Y-14460341I-200000J1D01*
G01*
X2417358Y-14460341D01*
G75*
G02*
X2217358Y-14260341I2J200001D01*
G01*
X2217358Y-5414760D01*
D11*
D12*
X3627743Y-12609880D02*
X3797923Y-12780060D01*
X3797923Y-12609880D02*
X3627743Y-12780060D01*
X3865868Y-6894880D02*
X4036048Y-7065060D01*
X4036048Y-6894880D02*
X3865868Y-7065060D01*
X4103993Y-10704880D02*
X4274173Y-10875060D01*
X4274173Y-10704880D02*
X4103993Y-10875060D01*
X4580243Y-8799880D02*
X4750423Y-8970060D01*
X4750423Y-8799880D02*
X4580243Y-8970060D01*
X4643743Y-12609880D02*
X4813923Y-12780060D01*
X4813923Y-12609880D02*
X4643743Y-12780060D01*
X4881868Y-6894880D02*
X5052048Y-7065060D01*
X5052048Y-6894880D02*
X4881868Y-7065060D01*
X5119993Y-10704880D02*
X5290173Y-10875060D01*
X5290173Y-10704880D02*
X5119993Y-10875060D01*
X5596243Y-8799880D02*
X5766423Y-8970060D01*
X5766423Y-8799880D02*
X5596243Y-8970060D01*
X5770868Y-12609880D02*
X5941048Y-12780060D01*
X5941048Y-12609880D02*
X5770868Y-12780060D01*
X6247118Y-6894880D02*
X6417298Y-7065060D01*
X6417298Y-6894880D02*
X6247118Y-7065060D01*
X6723368Y-10704880D02*
X6893548Y-10875060D01*
X6893548Y-10704880D02*
X6723368Y-10875060D01*
X6786868Y-12609880D02*
X6957048Y-12780060D01*
X6957048Y-12609880D02*
X6786868Y-12780060D01*
X7263118Y-6894880D02*
X7433298Y-7065060D01*
X7433298Y-6894880D02*
X7263118Y-7065060D01*
X7675868Y-8799880D02*
X7846048Y-8970060D01*
X7846048Y-8799880D02*
X7675868Y-8970060D01*
X7739368Y-10704880D02*
X7909548Y-10875060D01*
X7909548Y-10704880D02*
X7739368Y-10875060D01*
X8152118Y-6894880D02*
X8322298Y-7065060D01*
X8322298Y-6894880D02*
X8152118Y-7065060D01*
X8628368Y-10704880D02*
X8798548Y-10875060D01*
X8798548Y-10704880D02*
X8628368Y-10875060D01*
X8628368Y-12609880D02*
X8798548Y-12780060D01*
X8798548Y-12609880D02*
X8628368Y-12780060D01*
X8691868Y-8799880D02*
X8862048Y-8970060D01*
X8862048Y-8799880D02*
X8691868Y-8970060D01*
X9168118Y-6894880D02*
X9338298Y-7065060D01*
X9338298Y-6894880D02*
X9168118Y-7065060D01*
X9580868Y-8799880D02*
X9751048Y-8970060D01*
X9751048Y-8799880D02*
X9580868Y-8970060D01*
X9644368Y-10704880D02*
X9814548Y-10875060D01*
X9814548Y-10704880D02*
X9644368Y-10875060D01*
X9644368Y-12609880D02*
X9814548Y-12780060D01*
X9814548Y-12609880D02*
X9644368Y-12780060D01*
X10057118Y-6894880D02*
X10227298Y-7065060D01*
X10227298Y-6894880D02*
X10057118Y-7065060D01*
X10533368Y-10704880D02*
X10703548Y-10875060D01*
X10703548Y-10704880D02*
X10533368Y-10875060D01*
X10596868Y-8799880D02*
X10767048Y-8970060D01*
X10767048Y-8799880D02*
X10596868Y-8970060D01*
X11073118Y-6894880D02*
X11243298Y-7065060D01*
X11243298Y-6894880D02*
X11073118Y-7065060D01*
X11485868Y-8799880D02*
X11656048Y-8970060D01*
X11656048Y-8799880D02*
X11485868Y-8970060D01*
X11485868Y-12609880D02*
X11656048Y-12780060D01*
X11656048Y-12609880D02*
X11485868Y-12780060D01*
X11549368Y-10704880D02*
X11719548Y-10875060D01*
X11719548Y-10704880D02*
X11549368Y-10875060D01*
X11962118Y-6894880D02*
X12132298Y-7065060D01*
X12132298Y-6894880D02*
X11962118Y-7065060D01*
X12438368Y-10704880D02*
X12608548Y-10875060D01*
X12608548Y-10704880D02*
X12438368Y-10875060D01*
X12501868Y-8799880D02*
X12672048Y-8970060D01*
X12672048Y-8799880D02*
X12501868Y-8970060D01*
X12501868Y-12609880D02*
X12672048Y-12780060D01*
X12672048Y-12609880D02*
X12501868Y-12780060D01*
X12978118Y-6894880D02*
X13148298Y-7065060D01*
X13148298Y-6894880D02*
X12978118Y-7065060D01*
X13390868Y-8799880D02*
X13561048Y-8970060D01*
X13561048Y-8799880D02*
X13390868Y-8970060D01*
X13454368Y-10704880D02*
X13624548Y-10875060D01*
X13624548Y-10704880D02*
X13454368Y-10875060D01*
X13867118Y-6894880D02*
X14037298Y-7065060D01*
X14037298Y-6894880D02*
X13867118Y-7065060D01*
X14343368Y-10704880D02*
X14513548Y-10875060D01*
X14513548Y-10704880D02*
X14343368Y-10875060D01*
X14343368Y-12609880D02*
X14513548Y-12780060D01*
X14513548Y-12609880D02*
X14343368Y-12780060D01*
X14406868Y-8799880D02*
X14577048Y-8970060D01*
X14577048Y-8799880D02*
X14406868Y-8970060D01*
X14883118Y-6894880D02*
X15053298Y-7065060D01*
X15053298Y-6894880D02*
X14883118Y-7065060D01*
X15295868Y-8799880D02*
X15466048Y-8970060D01*
X15466048Y-8799880D02*
X15295868Y-8970060D01*
X15359368Y-10704880D02*
X15529548Y-10875060D01*
X15529548Y-10704880D02*
X15359368Y-10875060D01*
X15359368Y-12609880D02*
X15529548Y-12780060D01*
X15529548Y-12609880D02*
X15359368Y-12780060D01*
X15772118Y-6894880D02*
X15942298Y-7065060D01*
X15942298Y-6894880D02*
X15772118Y-7065060D01*
X16248368Y-10704880D02*
X16418548Y-10875060D01*
X16418548Y-10704880D02*
X16248368Y-10875060D01*
X16311868Y-8799880D02*
X16482048Y-8970060D01*
X16482048Y-8799880D02*
X16311868Y-8970060D01*
X16788118Y-6894880D02*
X16958298Y-7065060D01*
X16958298Y-6894880D02*
X16788118Y-7065060D01*
X17200868Y-8799880D02*
X17371048Y-8970060D01*
X17371048Y-8799880D02*
X17200868Y-8970060D01*
X17200868Y-12609880D02*
X17371048Y-12780060D01*
X17371048Y-12609880D02*
X17200868Y-12780060D01*
X17264368Y-10704880D02*
X17434548Y-10875060D01*
X17434548Y-10704880D02*
X17264368Y-10875060D01*
X17677118Y-6894880D02*
X17847298Y-7065060D01*
X17847298Y-6894880D02*
X17677118Y-7065060D01*
X18153368Y-10704880D02*
X18323548Y-10875060D01*
X18323548Y-10704880D02*
X18153368Y-10875060D01*
X18216868Y-8799880D02*
X18387048Y-8970060D01*
X18387048Y-8799880D02*
X18216868Y-8970060D01*
X18216868Y-12609880D02*
X18387048Y-12780060D01*
X18387048Y-12609880D02*
X18216868Y-12780060D01*
X18693118Y-6894880D02*
X18863298Y-7065060D01*
X18863298Y-6894880D02*
X18693118Y-7065060D01*
X19105868Y-8799880D02*
X19276048Y-8970060D01*
X19276048Y-8799880D02*
X19105868Y-8970060D01*
X19169368Y-10704880D02*
X19339548Y-10875060D01*
X19339548Y-10704880D02*
X19169368Y-10875060D01*
X19582118Y-6894880D02*
X19752298Y-7065060D01*
X19752298Y-6894880D02*
X19582118Y-7065060D01*
X20058368Y-10704880D02*
X20228548Y-10875060D01*
X20228548Y-10704880D02*
X20058368Y-10875060D01*
X20058368Y-12609880D02*
X20228548Y-12780060D01*
X20228548Y-12609880D02*
X20058368Y-12780060D01*
X20121868Y-8799880D02*
X20292048Y-8970060D01*
X20292048Y-8799880D02*
X20121868Y-8970060D01*
X20598118Y-6894880D02*
X20768298Y-7065060D01*
X20768298Y-6894880D02*
X20598118Y-7065060D01*
X21010868Y-8799880D02*
X21181048Y-8970060D01*
X21181048Y-8799880D02*
X21010868Y-8970060D01*
X21074368Y-10704880D02*
X21244548Y-10875060D01*
X21244548Y-10704880D02*
X21074368Y-10875060D01*
X21074368Y-12609880D02*
X21244548Y-12780060D01*
X21244548Y-12609880D02*
X21074368Y-12780060D01*
X21487118Y-6894880D02*
X21657298Y-7065060D01*
X21657298Y-6894880D02*
X21487118Y-7065060D01*
X21963368Y-10704880D02*
X22133548Y-10875060D01*
X22133548Y-10704880D02*
X21963368Y-10875060D01*
X22026868Y-8799880D02*
X22197048Y-8970060D01*
X22197048Y-8799880D02*
X22026868Y-8970060D01*
X22503118Y-6894880D02*
X22673298Y-7065060D01*
X22673298Y-6894880D02*
X22503118Y-7065060D01*
X22915868Y-8799880D02*
X23086048Y-8970060D01*
X23086048Y-8799880D02*
X22915868Y-8970060D01*
X22915868Y-12609880D02*
X23086048Y-12780060D01*
X23086048Y-12609880D02*
X22915868Y-12780060D01*
X22979368Y-10704880D02*
X23149548Y-10875060D01*
X23149548Y-10704880D02*
X22979368Y-10875060D01*
X23392118Y-6894880D02*
X23562298Y-7065060D01*
X23562298Y-6894880D02*
X23392118Y-7065060D01*
X23931868Y-8799880D02*
X24102048Y-8970060D01*
X24102048Y-8799880D02*
X23931868Y-8970060D01*
X23931868Y-12609880D02*
X24102048Y-12780060D01*
X24102048Y-12609880D02*
X23931868Y-12780060D01*
X24408118Y-6894880D02*
X24578298Y-7065060D01*
X24578298Y-6894880D02*
X24408118Y-7065060D01*
X24582743Y-10704880D02*
X24752923Y-10875060D01*
X24752923Y-10704880D02*
X24582743Y-10875060D01*
X25058993Y-8799880D02*
X25229173Y-8970060D01*
X25229173Y-8799880D02*
X25058993Y-8970060D01*
X25058993Y-12609880D02*
X25229173Y-12780060D01*
X25229173Y-12609880D02*
X25058993Y-12780060D01*
X25297118Y-6894880D02*
X25467298Y-7065060D01*
X25467298Y-6894880D02*
X25297118Y-7065060D01*
X25598743Y-10704880D02*
X25768923Y-10875060D01*
X25768923Y-10704880D02*
X25598743Y-10875060D01*
X26074993Y-8799880D02*
X26245173Y-8970060D01*
X26245173Y-8799880D02*
X26074993Y-8970060D01*
X26074993Y-12609880D02*
X26245173Y-12780060D01*
X26245173Y-12609880D02*
X26074993Y-12780060D01*
X26313118Y-6894880D02*
X26483298Y-7065060D01*
X26483298Y-6894880D02*
X26313118Y-7065060D01*
D13*
X4116833Y-12186970D02*
G75*
G02*
X3816833Y-12186970I-150000J0D01*
G01*
X3816833Y-12186970D02*
G75*
G02*
X4116833Y-12186970I150000J0D01*
G01*
X4354958Y-6471970D02*
G75*
G02*
X4054958Y-6471970I-150000J0D01*
G01*
X4054958Y-6471970D02*
G75*
G02*
X4354958Y-6471970I150000J0D01*
G01*
X4593083Y-10281970D02*
G75*
G02*
X4293083Y-10281970I-150000J0D01*
G01*
X4293083Y-10281970D02*
G75*
G02*
X4593083Y-10281970I150000J0D01*
G01*
X4751833Y-12440970D02*
G75*
G02*
X4451833Y-12440970I-150000J0D01*
G01*
X4451833Y-12440970D02*
G75*
G02*
X4751833Y-12440970I150000J0D01*
G01*
X4989958Y-6725970D02*
G75*
G02*
X4689958Y-6725970I-150000J0D01*
G01*
X4689958Y-6725970D02*
G75*
G02*
X4989958Y-6725970I150000J0D01*
G01*
X5069333Y-8376970D02*
G75*
G02*
X4769333Y-8376970I-150000J0D01*
G01*
X4769333Y-8376970D02*
G75*
G02*
X5069333Y-8376970I150000J0D01*
G01*
X5228083Y-10535970D02*
G75*
G02*
X4928083Y-10535970I-150000J0D01*
G01*
X4928083Y-10535970D02*
G75*
G02*
X5228083Y-10535970I150000J0D01*
G01*
X5704333Y-8630970D02*
G75*
G02*
X5404333Y-8630970I-150000J0D01*
G01*
X5404333Y-8630970D02*
G75*
G02*
X5704333Y-8630970I150000J0D01*
G01*
X6259958Y-12186970D02*
G75*
G02*
X5959958Y-12186970I-150000J0D01*
G01*
X5959958Y-12186970D02*
G75*
G02*
X6259958Y-12186970I150000J0D01*
G01*
X6736208Y-6471970D02*
G75*
G02*
X6436208Y-6471970I-150000J0D01*
G01*
X6436208Y-6471970D02*
G75*
G02*
X6736208Y-6471970I150000J0D01*
G01*
X6894958Y-12440970D02*
G75*
G02*
X6594958Y-12440970I-150000J0D01*
G01*
X6594958Y-12440970D02*
G75*
G02*
X6894958Y-12440970I150000J0D01*
G01*
X7212458Y-10281970D02*
G75*
G02*
X6912458Y-10281970I-150000J0D01*
G01*
X6912458Y-10281970D02*
G75*
G02*
X7212458Y-10281970I150000J0D01*
G01*
X7371208Y-6725970D02*
G75*
G02*
X7071208Y-6725970I-150000J0D01*
G01*
X7071208Y-6725970D02*
G75*
G02*
X7371208Y-6725970I150000J0D01*
G01*
X7847458Y-10535970D02*
G75*
G02*
X7547458Y-10535970I-150000J0D01*
G01*
X7547458Y-10535970D02*
G75*
G02*
X7847458Y-10535970I150000J0D01*
G01*
X8164958Y-8376970D02*
G75*
G02*
X7864958Y-8376970I-150000J0D01*
G01*
X7864958Y-8376970D02*
G75*
G02*
X8164958Y-8376970I150000J0D01*
G01*
X8641208Y-6471970D02*
G75*
G02*
X8341208Y-6471970I-150000J0D01*
G01*
X8341208Y-6471970D02*
G75*
G02*
X8641208Y-6471970I150000J0D01*
G01*
X8799958Y-8630970D02*
G75*
G02*
X8499958Y-8630970I-150000J0D01*
G01*
X8499958Y-8630970D02*
G75*
G02*
X8799958Y-8630970I150000J0D01*
G01*
X9117458Y-10281970D02*
G75*
G02*
X8817458Y-10281970I-150000J0D01*
G01*
X8817458Y-10281970D02*
G75*
G02*
X9117458Y-10281970I150000J0D01*
G01*
X9117458Y-12186970D02*
G75*
G02*
X8817458Y-12186970I-150000J0D01*
G01*
X8817458Y-12186970D02*
G75*
G02*
X9117458Y-12186970I150000J0D01*
G01*
X9276208Y-6725970D02*
G75*
G02*
X8976208Y-6725970I-150000J0D01*
G01*
X8976208Y-6725970D02*
G75*
G02*
X9276208Y-6725970I150000J0D01*
G01*
X9752458Y-10535970D02*
G75*
G02*
X9452458Y-10535970I-150000J0D01*
G01*
X9452458Y-10535970D02*
G75*
G02*
X9752458Y-10535970I150000J0D01*
G01*
X9752458Y-12440970D02*
G75*
G02*
X9452458Y-12440970I-150000J0D01*
G01*
X9452458Y-12440970D02*
G75*
G02*
X9752458Y-12440970I150000J0D01*
G01*
X10069958Y-8376970D02*
G75*
G02*
X9769958Y-8376970I-150000J0D01*
G01*
X9769958Y-8376970D02*
G75*
G02*
X10069958Y-8376970I150000J0D01*
G01*
X10546208Y-6471970D02*
G75*
G02*
X10246208Y-6471970I-150000J0D01*
G01*
X10246208Y-6471970D02*
G75*
G02*
X10546208Y-6471970I150000J0D01*
G01*
X10704958Y-8630970D02*
G75*
G02*
X10404958Y-8630970I-150000J0D01*
G01*
X10404958Y-8630970D02*
G75*
G02*
X10704958Y-8630970I150000J0D01*
G01*
X11022458Y-10281970D02*
G75*
G02*
X10722458Y-10281970I-150000J0D01*
G01*
X10722458Y-10281970D02*
G75*
G02*
X11022458Y-10281970I150000J0D01*
G01*
X11181208Y-6725970D02*
G75*
G02*
X10881208Y-6725970I-150000J0D01*
G01*
X10881208Y-6725970D02*
G75*
G02*
X11181208Y-6725970I150000J0D01*
G01*
X11657458Y-10535970D02*
G75*
G02*
X11357458Y-10535970I-150000J0D01*
G01*
X11357458Y-10535970D02*
G75*
G02*
X11657458Y-10535970I150000J0D01*
G01*
X11974958Y-8376970D02*
G75*
G02*
X11674958Y-8376970I-150000J0D01*
G01*
X11674958Y-8376970D02*
G75*
G02*
X11974958Y-8376970I150000J0D01*
G01*
X11974958Y-12186970D02*
G75*
G02*
X11674958Y-12186970I-150000J0D01*
G01*
X11674958Y-12186970D02*
G75*
G02*
X11974958Y-12186970I150000J0D01*
G01*
X12451208Y-6471970D02*
G75*
G02*
X12151208Y-6471970I-150000J0D01*
G01*
X12151208Y-6471970D02*
G75*
G02*
X12451208Y-6471970I150000J0D01*
G01*
X12609958Y-8630970D02*
G75*
G02*
X12309958Y-8630970I-150000J0D01*
G01*
X12309958Y-8630970D02*
G75*
G02*
X12609958Y-8630970I150000J0D01*
G01*
X12609958Y-12440970D02*
G75*
G02*
X12309958Y-12440970I-150000J0D01*
G01*
X12309958Y-12440970D02*
G75*
G02*
X12609958Y-12440970I150000J0D01*
G01*
X12927458Y-10281970D02*
G75*
G02*
X12627458Y-10281970I-150000J0D01*
G01*
X12627458Y-10281970D02*
G75*
G02*
X12927458Y-10281970I150000J0D01*
G01*
X13086208Y-6725970D02*
G75*
G02*
X12786208Y-6725970I-150000J0D01*
G01*
X12786208Y-6725970D02*
G75*
G02*
X13086208Y-6725970I150000J0D01*
G01*
X13562458Y-10535970D02*
G75*
G02*
X13262458Y-10535970I-150000J0D01*
G01*
X13262458Y-10535970D02*
G75*
G02*
X13562458Y-10535970I150000J0D01*
G01*
X13879958Y-8376970D02*
G75*
G02*
X13579958Y-8376970I-150000J0D01*
G01*
X13579958Y-8376970D02*
G75*
G02*
X13879958Y-8376970I150000J0D01*
G01*
X14356208Y-6471970D02*
G75*
G02*
X14056208Y-6471970I-150000J0D01*
G01*
X14056208Y-6471970D02*
G75*
G02*
X14356208Y-6471970I150000J0D01*
G01*
X14514958Y-8630970D02*
G75*
G02*
X14214958Y-8630970I-150000J0D01*
G01*
X14214958Y-8630970D02*
G75*
G02*
X14514958Y-8630970I150000J0D01*
G01*
X14832458Y-10281970D02*
G75*
G02*
X14532458Y-10281970I-150000J0D01*
G01*
X14532458Y-10281970D02*
G75*
G02*
X14832458Y-10281970I150000J0D01*
G01*
X14832458Y-12186970D02*
G75*
G02*
X14532458Y-12186970I-150000J0D01*
G01*
X14532458Y-12186970D02*
G75*
G02*
X14832458Y-12186970I150000J0D01*
G01*
X14991208Y-6725970D02*
G75*
G02*
X14691208Y-6725970I-150000J0D01*
G01*
X14691208Y-6725970D02*
G75*
G02*
X14991208Y-6725970I150000J0D01*
G01*
X15467458Y-10535970D02*
G75*
G02*
X15167458Y-10535970I-150000J0D01*
G01*
X15167458Y-10535970D02*
G75*
G02*
X15467458Y-10535970I150000J0D01*
G01*
X15467458Y-12440970D02*
G75*
G02*
X15167458Y-12440970I-150000J0D01*
G01*
X15167458Y-12440970D02*
G75*
G02*
X15467458Y-12440970I150000J0D01*
G01*
X15784958Y-8376970D02*
G75*
G02*
X15484958Y-8376970I-150000J0D01*
G01*
X15484958Y-8376970D02*
G75*
G02*
X15784958Y-8376970I150000J0D01*
G01*
X16261208Y-6471970D02*
G75*
G02*
X15961208Y-6471970I-150000J0D01*
G01*
X15961208Y-6471970D02*
G75*
G02*
X16261208Y-6471970I150000J0D01*
G01*
X16419958Y-8630970D02*
G75*
G02*
X16119958Y-8630970I-150000J0D01*
G01*
X16119958Y-8630970D02*
G75*
G02*
X16419958Y-8630970I150000J0D01*
G01*
X16737458Y-10281970D02*
G75*
G02*
X16437458Y-10281970I-150000J0D01*
G01*
X16437458Y-10281970D02*
G75*
G02*
X16737458Y-10281970I150000J0D01*
G01*
X16896208Y-6725970D02*
G75*
G02*
X16596208Y-6725970I-150000J0D01*
G01*
X16596208Y-6725970D02*
G75*
G02*
X16896208Y-6725970I150000J0D01*
G01*
X17372458Y-10535970D02*
G75*
G02*
X17072458Y-10535970I-150000J0D01*
G01*
X17072458Y-10535970D02*
G75*
G02*
X17372458Y-10535970I150000J0D01*
G01*
X17689958Y-8376970D02*
G75*
G02*
X17389958Y-8376970I-150000J0D01*
G01*
X17389958Y-8376970D02*
G75*
G02*
X17689958Y-8376970I150000J0D01*
G01*
X17689958Y-12186970D02*
G75*
G02*
X17389958Y-12186970I-150000J0D01*
G01*
X17389958Y-12186970D02*
G75*
G02*
X17689958Y-12186970I150000J0D01*
G01*
X18166208Y-6471970D02*
G75*
G02*
X17866208Y-6471970I-150000J0D01*
G01*
X17866208Y-6471970D02*
G75*
G02*
X18166208Y-6471970I150000J0D01*
G01*
X18324958Y-8630970D02*
G75*
G02*
X18024958Y-8630970I-150000J0D01*
G01*
X18024958Y-8630970D02*
G75*
G02*
X18324958Y-8630970I150000J0D01*
G01*
X18324958Y-12440970D02*
G75*
G02*
X18024958Y-12440970I-150000J0D01*
G01*
X18024958Y-12440970D02*
G75*
G02*
X18324958Y-12440970I150000J0D01*
G01*
X18642458Y-10281970D02*
G75*
G02*
X18342458Y-10281970I-150000J0D01*
G01*
X18342458Y-10281970D02*
G75*
G02*
X18642458Y-10281970I150000J0D01*
G01*
X18801208Y-6725970D02*
G75*
G02*
X18501208Y-6725970I-150000J0D01*
G01*
X18501208Y-6725970D02*
G75*
G02*
X18801208Y-6725970I150000J0D01*
G01*
X19277458Y-10535970D02*
G75*
G02*
X18977458Y-10535970I-150000J0D01*
G01*
X18977458Y-10535970D02*
G75*
G02*
X19277458Y-10535970I150000J0D01*
G01*
X19594958Y-8376970D02*
G75*
G02*
X19294958Y-8376970I-150000J0D01*
G01*
X19294958Y-8376970D02*
G75*
G02*
X19594958Y-8376970I150000J0D01*
G01*
X20071208Y-6471970D02*
G75*
G02*
X19771208Y-6471970I-150000J0D01*
G01*
X19771208Y-6471970D02*
G75*
G02*
X20071208Y-6471970I150000J0D01*
G01*
X20229958Y-8630970D02*
G75*
G02*
X19929958Y-8630970I-150000J0D01*
G01*
X19929958Y-8630970D02*
G75*
G02*
X20229958Y-8630970I150000J0D01*
G01*
X20547458Y-10281970D02*
G75*
G02*
X20247458Y-10281970I-150000J0D01*
G01*
X20247458Y-10281970D02*
G75*
G02*
X20547458Y-10281970I150000J0D01*
G01*
X20547458Y-12186970D02*
G75*
G02*
X20247458Y-12186970I-150000J0D01*
G01*
X20247458Y-12186970D02*
G75*
G02*
X20547458Y-12186970I150000J0D01*
G01*
X20706208Y-6725970D02*
G75*
G02*
X20406208Y-6725970I-150000J0D01*
G01*
X20406208Y-6725970D02*
G75*
G02*
X20706208Y-6725970I150000J0D01*
G01*
X21182458Y-10535970D02*
G75*
G02*
X20882458Y-10535970I-150000J0D01*
G01*
X20882458Y-10535970D02*
G75*
G02*
X21182458Y-10535970I150000J0D01*
G01*
X21182458Y-12440970D02*
G75*
G02*
X20882458Y-12440970I-150000J0D01*
G01*
X20882458Y-12440970D02*
G75*
G02*
X21182458Y-12440970I150000J0D01*
G01*
X21499958Y-8376970D02*
G75*
G02*
X21199958Y-8376970I-150000J0D01*
G01*
X21199958Y-8376970D02*
G75*
G02*
X21499958Y-8376970I150000J0D01*
G01*
X21976208Y-6471970D02*
G75*
G02*
X21676208Y-6471970I-150000J0D01*
G01*
X21676208Y-6471970D02*
G75*
G02*
X21976208Y-6471970I150000J0D01*
G01*
X22134958Y-8630970D02*
G75*
G02*
X21834958Y-8630970I-150000J0D01*
G01*
X21834958Y-8630970D02*
G75*
G02*
X22134958Y-8630970I150000J0D01*
G01*
X22452458Y-10281970D02*
G75*
G02*
X22152458Y-10281970I-150000J0D01*
G01*
X22152458Y-10281970D02*
G75*
G02*
X22452458Y-10281970I150000J0D01*
G01*
X22611208Y-6725970D02*
G75*
G02*
X22311208Y-6725970I-150000J0D01*
G01*
X22311208Y-6725970D02*
G75*
G02*
X22611208Y-6725970I150000J0D01*
G01*
X23087458Y-10535970D02*
G75*
G02*
X22787458Y-10535970I-150000J0D01*
G01*
X22787458Y-10535970D02*
G75*
G02*
X23087458Y-10535970I150000J0D01*
G01*
X23404958Y-8376970D02*
G75*
G02*
X23104958Y-8376970I-150000J0D01*
G01*
X23104958Y-8376970D02*
G75*
G02*
X23404958Y-8376970I150000J0D01*
G01*
X23404958Y-12186970D02*
G75*
G02*
X23104958Y-12186970I-150000J0D01*
G01*
X23104958Y-12186970D02*
G75*
G02*
X23404958Y-12186970I150000J0D01*
G01*
X23881208Y-6471970D02*
G75*
G02*
X23581208Y-6471970I-150000J0D01*
G01*
X23581208Y-6471970D02*
G75*
G02*
X23881208Y-6471970I150000J0D01*
G01*
X24039958Y-8630970D02*
G75*
G02*
X23739958Y-8630970I-150000J0D01*
G01*
X23739958Y-8630970D02*
G75*
G02*
X24039958Y-8630970I150000J0D01*
G01*
X24039958Y-12440970D02*
G75*
G02*
X23739958Y-12440970I-150000J0D01*
G01*
X23739958Y-12440970D02*
G75*
G02*
X24039958Y-12440970I150000J0D01*
G01*
X24516208Y-6725970D02*
G75*
G02*
X24216208Y-6725970I-150000J0D01*
G01*
X24216208Y-6725970D02*
G75*
G02*
X24516208Y-6725970I150000J0D01*
G01*
X25071833Y-10281970D02*
G75*
G02*
X24771833Y-10281970I-150000J0D01*
G01*
X24771833Y-10281970D02*
G75*
G02*
X25071833Y-10281970I150000J0D01*
G01*
X25548083Y-8376970D02*
G75*
G02*
X25248083Y-8376970I-150000J0D01*
G01*
X25248083Y-8376970D02*
G75*
G02*
X25548083Y-8376970I150000J0D01*
G01*
X25548083Y-12186970D02*
G75*
G02*
X25248083Y-12186970I-150000J0D01*
G01*
X25248083Y-12186970D02*
G75*
G02*
X25548083Y-12186970I150000J0D01*
G01*
X25706833Y-10535970D02*
G75*
G02*
X25406833Y-10535970I-150000J0D01*
G01*
X25406833Y-10535970D02*
G75*
G02*
X25706833Y-10535970I150000J0D01*
G01*
X25786208Y-6471970D02*
G75*
G02*
X25486208Y-6471970I-150000J0D01*
G01*
X25486208Y-6471970D02*
G75*
G02*
X25786208Y-6471970I150000J0D01*
G01*
X26183083Y-8630970D02*
G75*
G02*
X25883083Y-8630970I-150000J0D01*
G01*
X25883083Y-8630970D02*
G75*
G02*
X26183083Y-8630970I150000J0D01*
G01*
X26183083Y-12440970D02*
G75*
G02*
X25883083Y-12440970I-150000J0D01*
G01*
X25883083Y-12440970D02*
G75*
G02*
X26183083Y-12440970I150000J0D01*
G01*
X26421208Y-6725970D02*
G75*
G02*
X26121208Y-6725970I-150000J0D01*
G01*
X26121208Y-6725970D02*
G75*
G02*
X26421208Y-6725970I150000J0D01*
G01*
D14*
X3979533Y-8034070D02*
X3979533Y-8338870D01*
X3827133Y-8186470D02*
X4131933Y-8186470D01*
X6367133Y-8034070D02*
X6367133Y-8338870D01*
X6214733Y-8186470D02*
X6519533Y-8186470D01*
X10885158Y-11844070D02*
X10885158Y-12148870D01*
X10732758Y-11996470D02*
X11037558Y-11996470D01*
X13272758Y-11844070D02*
X13272758Y-12148870D01*
X13120358Y-11996470D02*
X13425158Y-11996470D01*
X16600158Y-11844070D02*
X16600158Y-12148870D01*
X16447758Y-11996470D02*
X16752558Y-11996470D01*
X18987758Y-11844070D02*
X18987758Y-12148870D01*
X18835358Y-11996470D02*
X19140158Y-11996470D01*
D15*
X4120525Y-9851462D02*
X4120525Y-9569479D01*
X3838542Y-9569479D01*
X3838542Y-9851462D01*
X4120525Y-9851462D01*
X4361825Y-12835961D02*
X4361825Y-12553979D01*
X4079842Y-12553979D01*
X4079842Y-12835961D01*
X4361825Y-12835961D01*
X4599950Y-7120961D02*
X4599950Y-6838979D01*
X4317967Y-6838979D01*
X4317967Y-7120961D01*
X4599950Y-7120961D01*
X4838075Y-10930962D02*
X4838075Y-10648979D01*
X4556092Y-10648979D01*
X4556092Y-10930962D01*
X4838075Y-10930962D01*
X5314325Y-9025962D02*
X5314325Y-8743979D01*
X5032342Y-8743979D01*
X5032342Y-9025962D01*
X5314325Y-9025962D01*
X6504950Y-12835961D02*
X6504950Y-12553979D01*
X6222967Y-12553979D01*
X6222967Y-12835961D01*
X6504950Y-12835961D01*
X6508125Y-9851462D02*
X6508125Y-9569479D01*
X6226142Y-9569479D01*
X6226142Y-9851462D01*
X6508125Y-9851462D01*
X6981200Y-7120961D02*
X6981200Y-6838979D01*
X6699217Y-6838979D01*
X6699217Y-7120961D01*
X6981200Y-7120961D01*
X7457450Y-10930962D02*
X7457450Y-10648979D01*
X7175467Y-10648979D01*
X7175467Y-10930962D01*
X7457450Y-10930962D01*
X8409950Y-9025962D02*
X8409950Y-8743979D01*
X8127967Y-8743979D01*
X8127967Y-9025962D01*
X8409950Y-9025962D01*
X8886200Y-7120961D02*
X8886200Y-6838979D01*
X8604217Y-6838979D01*
X8604217Y-7120961D01*
X8886200Y-7120961D01*
X9362450Y-10930962D02*
X9362450Y-10648979D01*
X9080467Y-10648979D01*
X9080467Y-10930962D01*
X9362450Y-10930962D01*
X9362450Y-12835961D02*
X9362450Y-12553979D01*
X9080467Y-12553979D01*
X9080467Y-12835961D01*
X9362450Y-12835961D01*
X10314950Y-9025962D02*
X10314950Y-8743979D01*
X10032967Y-8743979D01*
X10032967Y-9025962D01*
X10314950Y-9025962D01*
X10791200Y-7120961D02*
X10791200Y-6838979D01*
X10509217Y-6838979D01*
X10509217Y-7120961D01*
X10791200Y-7120961D01*
X11026150Y-13661461D02*
X11026150Y-13379479D01*
X10744167Y-13379479D01*
X10744167Y-13661461D01*
X11026150Y-13661461D01*
X11267450Y-10930962D02*
X11267450Y-10648979D01*
X10985467Y-10648979D01*
X10985467Y-10930962D01*
X11267450Y-10930962D01*
X12219950Y-9025962D02*
X12219950Y-8743979D01*
X11937967Y-8743979D01*
X11937967Y-9025962D01*
X12219950Y-9025962D01*
X12219950Y-12835961D02*
X12219950Y-12553979D01*
X11937967Y-12553979D01*
X11937967Y-12835961D01*
X12219950Y-12835961D01*
X12696200Y-7120961D02*
X12696200Y-6838979D01*
X12414217Y-6838979D01*
X12414217Y-7120961D01*
X12696200Y-7120961D01*
X13172450Y-10930962D02*
X13172450Y-10648979D01*
X12890467Y-10648979D01*
X12890467Y-10930962D01*
X13172450Y-10930962D01*
X13413750Y-13661461D02*
X13413750Y-13379479D01*
X13131767Y-13379479D01*
X13131767Y-13661461D01*
X13413750Y-13661461D01*
X14124950Y-9025962D02*
X14124950Y-8743979D01*
X13842967Y-8743979D01*
X13842967Y-9025962D01*
X14124950Y-9025962D01*
X14601200Y-7120961D02*
X14601200Y-6838979D01*
X14319217Y-6838979D01*
X14319217Y-7120961D01*
X14601200Y-7120961D01*
X15077450Y-10930962D02*
X15077450Y-10648979D01*
X14795467Y-10648979D01*
X14795467Y-10930962D01*
X15077450Y-10930962D01*
X15077450Y-12835961D02*
X15077450Y-12553979D01*
X14795467Y-12553979D01*
X14795467Y-12835961D01*
X15077450Y-12835961D01*
X16029950Y-9025962D02*
X16029950Y-8743979D01*
X15747967Y-8743979D01*
X15747967Y-9025962D01*
X16029950Y-9025962D01*
X16506200Y-7120961D02*
X16506200Y-6838979D01*
X16224217Y-6838979D01*
X16224217Y-7120961D01*
X16506200Y-7120961D01*
X16741150Y-13661461D02*
X16741150Y-13379479D01*
X16459167Y-13379479D01*
X16459167Y-13661461D01*
X16741150Y-13661461D01*
X16982450Y-10930962D02*
X16982450Y-10648979D01*
X16700467Y-10648979D01*
X16700467Y-10930962D01*
X16982450Y-10930962D01*
X17934950Y-9025962D02*
X17934950Y-8743979D01*
X17652967Y-8743979D01*
X17652967Y-9025962D01*
X17934950Y-9025962D01*
X17934950Y-12835961D02*
X17934950Y-12553979D01*
X17652967Y-12553979D01*
X17652967Y-12835961D01*
X17934950Y-12835961D01*
X18411200Y-7120961D02*
X18411200Y-6838979D01*
X18129217Y-6838979D01*
X18129217Y-7120961D01*
X18411200Y-7120961D01*
X18887450Y-10930962D02*
X18887450Y-10648979D01*
X18605467Y-10648979D01*
X18605467Y-10930962D01*
X18887450Y-10930962D01*
X19128750Y-13661461D02*
X19128750Y-13379479D01*
X18846767Y-13379479D01*
X18846767Y-13661461D01*
X19128750Y-13661461D01*
X19839950Y-9025962D02*
X19839950Y-8743979D01*
X19557967Y-8743979D01*
X19557967Y-9025962D01*
X19839950Y-9025962D01*
X20316200Y-7120961D02*
X20316200Y-6838979D01*
X20034217Y-6838979D01*
X20034217Y-7120961D01*
X20316200Y-7120961D01*
X20792450Y-10930962D02*
X20792450Y-10648979D01*
X20510467Y-10648979D01*
X20510467Y-10930962D01*
X20792450Y-10930962D01*
X20792450Y-12835961D02*
X20792450Y-12553979D01*
X20510467Y-12553979D01*
X20510467Y-12835961D01*
X20792450Y-12835961D01*
X21744950Y-9025962D02*
X21744950Y-8743979D01*
X21462967Y-8743979D01*
X21462967Y-9025962D01*
X21744950Y-9025962D01*
X22221200Y-7120961D02*
X22221200Y-6838979D01*
X21939217Y-6838979D01*
X21939217Y-7120961D01*
X22221200Y-7120961D01*
X22697450Y-10930962D02*
X22697450Y-10648979D01*
X22415467Y-10648979D01*
X22415467Y-10930962D01*
X22697450Y-10930962D01*
X23649950Y-9025962D02*
X23649950Y-8743979D01*
X23367967Y-8743979D01*
X23367967Y-9025962D01*
X23649950Y-9025962D01*
X23649950Y-12835961D02*
X23649950Y-12553979D01*
X23367967Y-12553979D01*
X23367967Y-12835961D01*
X23649950Y-12835961D01*
X24126200Y-7120961D02*
X24126200Y-6838979D01*
X23844217Y-6838979D01*
X23844217Y-7120961D01*
X24126200Y-7120961D01*
X25316825Y-10930962D02*
X25316825Y-10648979D01*
X25034842Y-10648979D01*
X25034842Y-10930962D01*
X25316825Y-10930962D01*
X25793075Y-9025962D02*
X25793075Y-8743979D01*
X25511092Y-8743979D01*
X25511092Y-9025962D01*
X25793075Y-9025962D01*
X25793075Y-12835961D02*
X25793075Y-12553979D01*
X25511092Y-12553979D01*
X25511092Y-12835961D01*
X25793075Y-12835961D01*
X26031200Y-7120961D02*
X26031200Y-6838979D01*
X25749217Y-6838979D01*
X25749217Y-7120961D01*
X26031200Y-7120961D01*
D11*
X2475635Y-14774325D02*
X2475635Y-14574325D01*
X2475635Y-14574325D02*
X2523254Y-14574325D01*
X2523254Y-14574325D02*
X2551826Y-14583848D01*
X2551826Y-14583848D02*
X2570873Y-14602896D01*
X2570873Y-14602896D02*
X2580397Y-14621944D01*
X2580397Y-14621944D02*
X2589921Y-14660039D01*
X2589921Y-14660039D02*
X2589921Y-14688610D01*
X2589921Y-14688610D02*
X2580397Y-14726705D01*
X2580397Y-14726705D02*
X2570873Y-14745753D01*
X2570873Y-14745753D02*
X2551826Y-14764801D01*
X2551826Y-14764801D02*
X2523254Y-14774325D01*
X2523254Y-14774325D02*
X2475635Y-14774325D01*
X2675635Y-14774325D02*
X2675635Y-14640991D01*
X2675635Y-14679086D02*
X2685159Y-14660039D01*
X2685159Y-14660039D02*
X2694683Y-14650515D01*
X2694683Y-14650515D02*
X2713730Y-14640991D01*
X2713730Y-14640991D02*
X2732778Y-14640991D01*
X2799445Y-14774325D02*
X2799445Y-14640991D01*
X2799445Y-14574325D02*
X2789921Y-14583848D01*
X2789921Y-14583848D02*
X2799445Y-14593372D01*
X2799445Y-14593372D02*
X2808968Y-14583848D01*
X2808968Y-14583848D02*
X2799445Y-14574325D01*
X2799445Y-14574325D02*
X2799445Y-14593372D01*
X2923254Y-14774325D02*
X2904207Y-14764801D01*
X2904207Y-14764801D02*
X2894683Y-14745753D01*
X2894683Y-14745753D02*
X2894683Y-14574325D01*
X3028016Y-14774325D02*
X3008968Y-14764801D01*
X3008968Y-14764801D02*
X2999445Y-14745753D01*
X2999445Y-14745753D02*
X2999445Y-14574325D01*
X3256588Y-14774325D02*
X3256588Y-14574325D01*
X3256588Y-14574325D02*
X3323254Y-14717182D01*
X3323254Y-14717182D02*
X3389921Y-14574325D01*
X3389921Y-14574325D02*
X3389921Y-14774325D01*
X3570873Y-14774325D02*
X3570873Y-14669563D01*
X3570873Y-14669563D02*
X3561349Y-14650515D01*
X3561349Y-14650515D02*
X3542302Y-14640991D01*
X3542302Y-14640991D02*
X3504207Y-14640991D01*
X3504207Y-14640991D02*
X3485159Y-14650515D01*
X3570873Y-14764801D02*
X3551826Y-14774325D01*
X3551826Y-14774325D02*
X3504207Y-14774325D01*
X3504207Y-14774325D02*
X3485159Y-14764801D01*
X3485159Y-14764801D02*
X3475635Y-14745753D01*
X3475635Y-14745753D02*
X3475635Y-14726705D01*
X3475635Y-14726705D02*
X3485159Y-14707658D01*
X3485159Y-14707658D02*
X3504207Y-14698134D01*
X3504207Y-14698134D02*
X3551826Y-14698134D01*
X3551826Y-14698134D02*
X3570873Y-14688610D01*
X3666111Y-14640991D02*
X3666111Y-14840991D01*
X3666111Y-14650515D02*
X3685159Y-14640991D01*
X3685159Y-14640991D02*
X3723254Y-14640991D01*
X3723254Y-14640991D02*
X3742302Y-14650515D01*
X3742302Y-14650515D02*
X3751826Y-14660039D01*
X3751826Y-14660039D02*
X3761349Y-14679086D01*
X3761349Y-14679086D02*
X3761349Y-14736229D01*
X3761349Y-14736229D02*
X3751826Y-14755277D01*
X3751826Y-14755277D02*
X3742302Y-14764801D01*
X3742302Y-14764801D02*
X3723254Y-14774325D01*
X3723254Y-14774325D02*
X3685159Y-14774325D01*
X3685159Y-14774325D02*
X3666111Y-14764801D01*
X3847064Y-14755277D02*
X3856588Y-14764801D01*
X3856588Y-14764801D02*
X3847064Y-14774325D01*
X3847064Y-14774325D02*
X3837540Y-14764801D01*
X3837540Y-14764801D02*
X3847064Y-14755277D01*
X3847064Y-14755277D02*
X3847064Y-14774325D01*
X3847064Y-14650515D02*
X3856588Y-14660039D01*
X3856588Y-14660039D02*
X3847064Y-14669563D01*
X3847064Y-14669563D02*
X3837540Y-14660039D01*
X3837540Y-14660039D02*
X3847064Y-14650515D01*
X3847064Y-14650515D02*
X3847064Y-14669563D01*
D12*
X2044678Y-15017751D02*
X2214858Y-15187931D01*
X2214858Y-15017751D02*
X2044678Y-15187931D01*
D11*
X2580397Y-15194325D02*
X2466111Y-15194325D01*
X2523254Y-15194325D02*
X2523254Y-14994325D01*
X2523254Y-14994325D02*
X2504207Y-15022896D01*
X2504207Y-15022896D02*
X2485159Y-15041944D01*
X2485159Y-15041944D02*
X2466111Y-15051467D01*
X2666111Y-15175277D02*
X2675635Y-15184801D01*
X2675635Y-15184801D02*
X2666111Y-15194325D01*
X2666111Y-15194325D02*
X2656588Y-15184801D01*
X2656588Y-15184801D02*
X2666111Y-15175277D01*
X2666111Y-15175277D02*
X2666111Y-15194325D01*
X2742302Y-14994325D02*
X2875635Y-14994325D01*
X2875635Y-14994325D02*
X2789921Y-15194325D01*
X2989921Y-14994325D02*
X3008969Y-14994325D01*
X3008969Y-14994325D02*
X3028016Y-15003848D01*
X3028016Y-15003848D02*
X3037540Y-15013372D01*
X3037540Y-15013372D02*
X3047064Y-15032420D01*
X3047064Y-15032420D02*
X3056588Y-15070515D01*
X3056588Y-15070515D02*
X3056588Y-15118134D01*
X3056588Y-15118134D02*
X3047064Y-15156229D01*
X3047064Y-15156229D02*
X3037540Y-15175277D01*
X3037540Y-15175277D02*
X3028016Y-15184801D01*
X3028016Y-15184801D02*
X3008969Y-15194325D01*
X3008969Y-15194325D02*
X2989921Y-15194325D01*
X2989921Y-15194325D02*
X2970873Y-15184801D01*
X2970873Y-15184801D02*
X2961349Y-15175277D01*
X2961349Y-15175277D02*
X2951826Y-15156229D01*
X2951826Y-15156229D02*
X2942302Y-15118134D01*
X2942302Y-15118134D02*
X2942302Y-15070515D01*
X2942302Y-15070515D02*
X2951826Y-15032420D01*
X2951826Y-15032420D02*
X2961349Y-15013372D01*
X2961349Y-15013372D02*
X2970873Y-15003848D01*
X2970873Y-15003848D02*
X2989921Y-14994325D01*
X3132778Y-15013372D02*
X3142302Y-15003848D01*
X3142302Y-15003848D02*
X3161349Y-14994325D01*
X3161349Y-14994325D02*
X3208969Y-14994325D01*
X3208969Y-14994325D02*
X3228016Y-15003848D01*
X3228016Y-15003848D02*
X3237540Y-15013372D01*
X3237540Y-15013372D02*
X3247064Y-15032420D01*
X3247064Y-15032420D02*
X3247064Y-15051467D01*
X3247064Y-15051467D02*
X3237540Y-15080039D01*
X3237540Y-15080039D02*
X3123254Y-15194325D01*
X3123254Y-15194325D02*
X3247064Y-15194325D01*
X3332778Y-15194325D02*
X3332778Y-15060991D01*
X3332778Y-15080039D02*
X3342302Y-15070515D01*
X3342302Y-15070515D02*
X3361349Y-15060991D01*
X3361349Y-15060991D02*
X3389921Y-15060991D01*
X3389921Y-15060991D02*
X3408969Y-15070515D01*
X3408969Y-15070515D02*
X3418492Y-15089563D01*
X3418492Y-15089563D02*
X3418492Y-15194325D01*
X3418492Y-15089563D02*
X3428016Y-15070515D01*
X3428016Y-15070515D02*
X3447064Y-15060991D01*
X3447064Y-15060991D02*
X3475635Y-15060991D01*
X3475635Y-15060991D02*
X3494683Y-15070515D01*
X3494683Y-15070515D02*
X3504207Y-15089563D01*
X3504207Y-15089563D02*
X3504207Y-15194325D01*
X3599445Y-15194325D02*
X3599445Y-15060991D01*
X3599445Y-15080039D02*
X3608969Y-15070515D01*
X3608969Y-15070515D02*
X3628016Y-15060991D01*
X3628016Y-15060991D02*
X3656588Y-15060991D01*
X3656588Y-15060991D02*
X3675635Y-15070515D01*
X3675635Y-15070515D02*
X3685159Y-15089563D01*
X3685159Y-15089563D02*
X3685159Y-15194325D01*
X3685159Y-15089563D02*
X3694683Y-15070515D01*
X3694683Y-15070515D02*
X3713730Y-15060991D01*
X3713730Y-15060991D02*
X3742302Y-15060991D01*
X3742302Y-15060991D02*
X3761350Y-15070515D01*
X3761350Y-15070515D02*
X3770873Y-15089563D01*
X3770873Y-15089563D02*
X3770873Y-15194325D01*
X4161350Y-14984801D02*
X3989921Y-15241944D01*
X4418493Y-14994325D02*
X4437540Y-14994325D01*
X4437540Y-14994325D02*
X4456588Y-15003848D01*
X4456588Y-15003848D02*
X4466112Y-15013372D01*
X4466112Y-15013372D02*
X4475635Y-15032420D01*
X4475635Y-15032420D02*
X4485159Y-15070515D01*
X4485159Y-15070515D02*
X4485159Y-15118134D01*
X4485159Y-15118134D02*
X4475635Y-15156229D01*
X4475635Y-15156229D02*
X4466112Y-15175277D01*
X4466112Y-15175277D02*
X4456588Y-15184801D01*
X4456588Y-15184801D02*
X4437540Y-15194325D01*
X4437540Y-15194325D02*
X4418493Y-15194325D01*
X4418493Y-15194325D02*
X4399445Y-15184801D01*
X4399445Y-15184801D02*
X4389921Y-15175277D01*
X4389921Y-15175277D02*
X4380397Y-15156229D01*
X4380397Y-15156229D02*
X4370874Y-15118134D01*
X4370874Y-15118134D02*
X4370874Y-15070515D01*
X4370874Y-15070515D02*
X4380397Y-15032420D01*
X4380397Y-15032420D02*
X4389921Y-15013372D01*
X4389921Y-15013372D02*
X4399445Y-15003848D01*
X4399445Y-15003848D02*
X4418493Y-14994325D01*
X4570874Y-15175277D02*
X4580397Y-15184801D01*
X4580397Y-15184801D02*
X4570874Y-15194325D01*
X4570874Y-15194325D02*
X4561350Y-15184801D01*
X4561350Y-15184801D02*
X4570874Y-15175277D01*
X4570874Y-15175277D02*
X4570874Y-15194325D01*
X4704207Y-14994325D02*
X4723255Y-14994325D01*
X4723255Y-14994325D02*
X4742302Y-15003848D01*
X4742302Y-15003848D02*
X4751826Y-15013372D01*
X4751826Y-15013372D02*
X4761350Y-15032420D01*
X4761350Y-15032420D02*
X4770874Y-15070515D01*
X4770874Y-15070515D02*
X4770874Y-15118134D01*
X4770874Y-15118134D02*
X4761350Y-15156229D01*
X4761350Y-15156229D02*
X4751826Y-15175277D01*
X4751826Y-15175277D02*
X4742302Y-15184801D01*
X4742302Y-15184801D02*
X4723255Y-15194325D01*
X4723255Y-15194325D02*
X4704207Y-15194325D01*
X4704207Y-15194325D02*
X4685159Y-15184801D01*
X4685159Y-15184801D02*
X4675635Y-15175277D01*
X4675635Y-15175277D02*
X4666112Y-15156229D01*
X4666112Y-15156229D02*
X4656588Y-15118134D01*
X4656588Y-15118134D02*
X4656588Y-15070515D01*
X4656588Y-15070515D02*
X4666112Y-15032420D01*
X4666112Y-15032420D02*
X4675635Y-15013372D01*
X4675635Y-15013372D02*
X4685159Y-15003848D01*
X4685159Y-15003848D02*
X4704207Y-14994325D01*
X4942302Y-14994325D02*
X4904207Y-14994325D01*
X4904207Y-14994325D02*
X4885159Y-15003848D01*
X4885159Y-15003848D02*
X4875635Y-15013372D01*
X4875635Y-15013372D02*
X4856588Y-15041944D01*
X4856588Y-15041944D02*
X4847064Y-15080039D01*
X4847064Y-15080039D02*
X4847064Y-15156229D01*
X4847064Y-15156229D02*
X4856588Y-15175277D01*
X4856588Y-15175277D02*
X4866112Y-15184801D01*
X4866112Y-15184801D02*
X4885159Y-15194325D01*
X4885159Y-15194325D02*
X4923255Y-15194325D01*
X4923255Y-15194325D02*
X4942302Y-15184801D01*
X4942302Y-15184801D02*
X4951826Y-15175277D01*
X4951826Y-15175277D02*
X4961350Y-15156229D01*
X4961350Y-15156229D02*
X4961350Y-15108610D01*
X4961350Y-15108610D02*
X4951826Y-15089563D01*
X4951826Y-15089563D02*
X4942302Y-15080039D01*
X4942302Y-15080039D02*
X4923255Y-15070515D01*
X4923255Y-15070515D02*
X4885159Y-15070515D01*
X4885159Y-15070515D02*
X4866112Y-15080039D01*
X4866112Y-15080039D02*
X4856588Y-15089563D01*
X4856588Y-15089563D02*
X4847064Y-15108610D01*
X5028016Y-14994325D02*
X5161350Y-14994325D01*
X5161350Y-14994325D02*
X5075635Y-15194325D01*
X5275635Y-14994325D02*
X5294683Y-14994325D01*
X5294683Y-14994325D02*
X5313731Y-15003848D01*
X5313731Y-15003848D02*
X5323255Y-15013372D01*
X5323255Y-15013372D02*
X5332778Y-15032420D01*
X5332778Y-15032420D02*
X5342302Y-15070515D01*
X5342302Y-15070515D02*
X5342302Y-15118134D01*
X5342302Y-15118134D02*
X5332778Y-15156229D01*
X5332778Y-15156229D02*
X5323255Y-15175277D01*
X5323255Y-15175277D02*
X5313731Y-15184801D01*
X5313731Y-15184801D02*
X5294683Y-15194325D01*
X5294683Y-15194325D02*
X5275635Y-15194325D01*
X5275635Y-15194325D02*
X5256588Y-15184801D01*
X5256588Y-15184801D02*
X5247064Y-15175277D01*
X5247064Y-15175277D02*
X5237540Y-15156229D01*
X5237540Y-15156229D02*
X5228016Y-15118134D01*
X5228016Y-15118134D02*
X5228016Y-15070515D01*
X5228016Y-15070515D02*
X5237540Y-15032420D01*
X5237540Y-15032420D02*
X5247064Y-15013372D01*
X5247064Y-15013372D02*
X5256588Y-15003848D01*
X5256588Y-15003848D02*
X5275635Y-14994325D01*
X5418493Y-14994325D02*
X5418493Y-15032420D01*
X5494683Y-14994325D02*
X5494683Y-15032420D01*
X5789921Y-15270515D02*
X5780397Y-15260991D01*
X5780397Y-15260991D02*
X5761350Y-15232420D01*
X5761350Y-15232420D02*
X5751826Y-15213372D01*
X5751826Y-15213372D02*
X5742302Y-15184801D01*
X5742302Y-15184801D02*
X5732778Y-15137182D01*
X5732778Y-15137182D02*
X5732778Y-15099086D01*
X5732778Y-15099086D02*
X5742302Y-15051467D01*
X5742302Y-15051467D02*
X5751826Y-15022896D01*
X5751826Y-15022896D02*
X5761350Y-15003848D01*
X5761350Y-15003848D02*
X5780397Y-14975277D01*
X5780397Y-14975277D02*
X5789921Y-14965753D01*
X5894683Y-15080039D02*
X5875635Y-15070515D01*
X5875635Y-15070515D02*
X5866112Y-15060991D01*
X5866112Y-15060991D02*
X5856588Y-15041944D01*
X5856588Y-15041944D02*
X5856588Y-15032420D01*
X5856588Y-15032420D02*
X5866112Y-15013372D01*
X5866112Y-15013372D02*
X5875635Y-15003848D01*
X5875635Y-15003848D02*
X5894683Y-14994325D01*
X5894683Y-14994325D02*
X5932778Y-14994325D01*
X5932778Y-14994325D02*
X5951826Y-15003848D01*
X5951826Y-15003848D02*
X5961350Y-15013372D01*
X5961350Y-15013372D02*
X5970874Y-15032420D01*
X5970874Y-15032420D02*
X5970874Y-15041944D01*
X5970874Y-15041944D02*
X5961350Y-15060991D01*
X5961350Y-15060991D02*
X5951826Y-15070515D01*
X5951826Y-15070515D02*
X5932778Y-15080039D01*
X5932778Y-15080039D02*
X5894683Y-15080039D01*
X5894683Y-15080039D02*
X5875635Y-15089563D01*
X5875635Y-15089563D02*
X5866112Y-15099086D01*
X5866112Y-15099086D02*
X5856588Y-15118134D01*
X5856588Y-15118134D02*
X5856588Y-15156229D01*
X5856588Y-15156229D02*
X5866112Y-15175277D01*
X5866112Y-15175277D02*
X5875635Y-15184801D01*
X5875635Y-15184801D02*
X5894683Y-15194325D01*
X5894683Y-15194325D02*
X5932778Y-15194325D01*
X5932778Y-15194325D02*
X5951826Y-15184801D01*
X5951826Y-15184801D02*
X5961350Y-15175277D01*
X5961350Y-15175277D02*
X5970874Y-15156229D01*
X5970874Y-15156229D02*
X5970874Y-15118134D01*
X5970874Y-15118134D02*
X5961350Y-15099086D01*
X5961350Y-15099086D02*
X5951826Y-15089563D01*
X5951826Y-15089563D02*
X5932778Y-15080039D01*
X6142302Y-14994325D02*
X6104207Y-14994325D01*
X6104207Y-14994325D02*
X6085159Y-15003848D01*
X6085159Y-15003848D02*
X6075635Y-15013372D01*
X6075635Y-15013372D02*
X6056588Y-15041944D01*
X6056588Y-15041944D02*
X6047064Y-15080039D01*
X6047064Y-15080039D02*
X6047064Y-15156229D01*
X6047064Y-15156229D02*
X6056588Y-15175277D01*
X6056588Y-15175277D02*
X6066112Y-15184801D01*
X6066112Y-15184801D02*
X6085159Y-15194325D01*
X6085159Y-15194325D02*
X6123255Y-15194325D01*
X6123255Y-15194325D02*
X6142302Y-15184801D01*
X6142302Y-15184801D02*
X6151826Y-15175277D01*
X6151826Y-15175277D02*
X6161350Y-15156229D01*
X6161350Y-15156229D02*
X6161350Y-15108610D01*
X6161350Y-15108610D02*
X6151826Y-15089563D01*
X6151826Y-15089563D02*
X6142302Y-15080039D01*
X6142302Y-15080039D02*
X6123255Y-15070515D01*
X6123255Y-15070515D02*
X6085159Y-15070515D01*
X6085159Y-15070515D02*
X6066112Y-15080039D01*
X6066112Y-15080039D02*
X6056588Y-15089563D01*
X6056588Y-15089563D02*
X6047064Y-15108610D01*
X6399445Y-15194325D02*
X6399445Y-14994325D01*
X6485159Y-15194325D02*
X6485159Y-15089563D01*
X6485159Y-15089563D02*
X6475636Y-15070515D01*
X6475636Y-15070515D02*
X6456588Y-15060991D01*
X6456588Y-15060991D02*
X6428016Y-15060991D01*
X6428016Y-15060991D02*
X6408969Y-15070515D01*
X6408969Y-15070515D02*
X6399445Y-15080039D01*
X6608969Y-15194325D02*
X6589921Y-15184801D01*
X6589921Y-15184801D02*
X6580397Y-15175277D01*
X6580397Y-15175277D02*
X6570874Y-15156229D01*
X6570874Y-15156229D02*
X6570874Y-15099086D01*
X6570874Y-15099086D02*
X6580397Y-15080039D01*
X6580397Y-15080039D02*
X6589921Y-15070515D01*
X6589921Y-15070515D02*
X6608969Y-15060991D01*
X6608969Y-15060991D02*
X6637540Y-15060991D01*
X6637540Y-15060991D02*
X6656588Y-15070515D01*
X6656588Y-15070515D02*
X6666112Y-15080039D01*
X6666112Y-15080039D02*
X6675636Y-15099086D01*
X6675636Y-15099086D02*
X6675636Y-15156229D01*
X6675636Y-15156229D02*
X6666112Y-15175277D01*
X6666112Y-15175277D02*
X6656588Y-15184801D01*
X6656588Y-15184801D02*
X6637540Y-15194325D01*
X6637540Y-15194325D02*
X6608969Y-15194325D01*
X6789921Y-15194325D02*
X6770874Y-15184801D01*
X6770874Y-15184801D02*
X6761350Y-15165753D01*
X6761350Y-15165753D02*
X6761350Y-14994325D01*
X6942302Y-15184801D02*
X6923255Y-15194325D01*
X6923255Y-15194325D02*
X6885159Y-15194325D01*
X6885159Y-15194325D02*
X6866112Y-15184801D01*
X6866112Y-15184801D02*
X6856588Y-15165753D01*
X6856588Y-15165753D02*
X6856588Y-15089563D01*
X6856588Y-15089563D02*
X6866112Y-15070515D01*
X6866112Y-15070515D02*
X6885159Y-15060991D01*
X6885159Y-15060991D02*
X6923255Y-15060991D01*
X6923255Y-15060991D02*
X6942302Y-15070515D01*
X6942302Y-15070515D02*
X6951826Y-15089563D01*
X6951826Y-15089563D02*
X6951826Y-15108610D01*
X6951826Y-15108610D02*
X6856588Y-15127658D01*
X7028017Y-15184801D02*
X7047064Y-15194325D01*
X7047064Y-15194325D02*
X7085159Y-15194325D01*
X7085159Y-15194325D02*
X7104207Y-15184801D01*
X7104207Y-15184801D02*
X7113731Y-15165753D01*
X7113731Y-15165753D02*
X7113731Y-15156229D01*
X7113731Y-15156229D02*
X7104207Y-15137182D01*
X7104207Y-15137182D02*
X7085159Y-15127658D01*
X7085159Y-15127658D02*
X7056588Y-15127658D01*
X7056588Y-15127658D02*
X7037540Y-15118134D01*
X7037540Y-15118134D02*
X7028017Y-15099086D01*
X7028017Y-15099086D02*
X7028017Y-15089563D01*
X7028017Y-15089563D02*
X7037540Y-15070515D01*
X7037540Y-15070515D02*
X7056588Y-15060991D01*
X7056588Y-15060991D02*
X7085159Y-15060991D01*
X7085159Y-15060991D02*
X7104207Y-15070515D01*
X7180398Y-15270515D02*
X7189921Y-15260991D01*
X7189921Y-15260991D02*
X7208969Y-15232420D01*
X7208969Y-15232420D02*
X7218493Y-15213372D01*
X7218493Y-15213372D02*
X7228017Y-15184801D01*
X7228017Y-15184801D02*
X7237540Y-15137182D01*
X7237540Y-15137182D02*
X7237540Y-15099086D01*
X7237540Y-15099086D02*
X7228017Y-15051467D01*
X7228017Y-15051467D02*
X7218493Y-15022896D01*
X7218493Y-15022896D02*
X7208969Y-15003848D01*
X7208969Y-15003848D02*
X7189921Y-14975277D01*
X7189921Y-14975277D02*
X7180398Y-14965753D01*
X7542302Y-15270515D02*
X7532778Y-15260991D01*
X7532778Y-15260991D02*
X7513731Y-15232420D01*
X7513731Y-15232420D02*
X7504207Y-15213372D01*
X7504207Y-15213372D02*
X7494683Y-15184801D01*
X7494683Y-15184801D02*
X7485159Y-15137182D01*
X7485159Y-15137182D02*
X7485159Y-15099086D01*
X7485159Y-15099086D02*
X7494683Y-15051467D01*
X7494683Y-15051467D02*
X7504207Y-15022896D01*
X7504207Y-15022896D02*
X7513731Y-15003848D01*
X7513731Y-15003848D02*
X7532778Y-14975277D01*
X7532778Y-14975277D02*
X7542302Y-14965753D01*
X7618493Y-15060991D02*
X7618493Y-15194325D01*
X7618493Y-15080039D02*
X7628017Y-15070515D01*
X7628017Y-15070515D02*
X7647064Y-15060991D01*
X7647064Y-15060991D02*
X7675636Y-15060991D01*
X7675636Y-15060991D02*
X7694683Y-15070515D01*
X7694683Y-15070515D02*
X7704207Y-15089563D01*
X7704207Y-15089563D02*
X7704207Y-15194325D01*
X7828017Y-15194325D02*
X7808969Y-15184801D01*
X7808969Y-15184801D02*
X7799445Y-15175277D01*
X7799445Y-15175277D02*
X7789921Y-15156229D01*
X7789921Y-15156229D02*
X7789921Y-15099086D01*
X7789921Y-15099086D02*
X7799445Y-15080039D01*
X7799445Y-15080039D02*
X7808969Y-15070515D01*
X7808969Y-15070515D02*
X7828017Y-15060991D01*
X7828017Y-15060991D02*
X7856588Y-15060991D01*
X7856588Y-15060991D02*
X7875636Y-15070515D01*
X7875636Y-15070515D02*
X7885159Y-15080039D01*
X7885159Y-15080039D02*
X7894683Y-15099086D01*
X7894683Y-15099086D02*
X7894683Y-15156229D01*
X7894683Y-15156229D02*
X7885159Y-15175277D01*
X7885159Y-15175277D02*
X7875636Y-15184801D01*
X7875636Y-15184801D02*
X7856588Y-15194325D01*
X7856588Y-15194325D02*
X7828017Y-15194325D01*
X7951826Y-15060991D02*
X8028017Y-15060991D01*
X7980398Y-14994325D02*
X7980398Y-15165753D01*
X7980398Y-15165753D02*
X7989921Y-15184801D01*
X7989921Y-15184801D02*
X8008969Y-15194325D01*
X8008969Y-15194325D02*
X8028017Y-15194325D01*
X8247064Y-15060991D02*
X8247064Y-15260991D01*
X8247064Y-15070515D02*
X8266112Y-15060991D01*
X8266112Y-15060991D02*
X8304207Y-15060991D01*
X8304207Y-15060991D02*
X8323255Y-15070515D01*
X8323255Y-15070515D02*
X8332779Y-15080039D01*
X8332779Y-15080039D02*
X8342302Y-15099086D01*
X8342302Y-15099086D02*
X8342302Y-15156229D01*
X8342302Y-15156229D02*
X8332779Y-15175277D01*
X8332779Y-15175277D02*
X8323255Y-15184801D01*
X8323255Y-15184801D02*
X8304207Y-15194325D01*
X8304207Y-15194325D02*
X8266112Y-15194325D01*
X8266112Y-15194325D02*
X8247064Y-15184801D01*
X8456588Y-15194325D02*
X8437541Y-15184801D01*
X8437541Y-15184801D02*
X8428017Y-15165753D01*
X8428017Y-15165753D02*
X8428017Y-14994325D01*
X8618493Y-15194325D02*
X8618493Y-15089563D01*
X8618493Y-15089563D02*
X8608969Y-15070515D01*
X8608969Y-15070515D02*
X8589922Y-15060991D01*
X8589922Y-15060991D02*
X8551826Y-15060991D01*
X8551826Y-15060991D02*
X8532779Y-15070515D01*
X8618493Y-15184801D02*
X8599445Y-15194325D01*
X8599445Y-15194325D02*
X8551826Y-15194325D01*
X8551826Y-15194325D02*
X8532779Y-15184801D01*
X8532779Y-15184801D02*
X8523255Y-15165753D01*
X8523255Y-15165753D02*
X8523255Y-15146705D01*
X8523255Y-15146705D02*
X8532779Y-15127658D01*
X8532779Y-15127658D02*
X8551826Y-15118134D01*
X8551826Y-15118134D02*
X8599445Y-15118134D01*
X8599445Y-15118134D02*
X8618493Y-15108610D01*
X8685160Y-15060991D02*
X8761350Y-15060991D01*
X8713731Y-14994325D02*
X8713731Y-15165753D01*
X8713731Y-15165753D02*
X8723255Y-15184801D01*
X8723255Y-15184801D02*
X8742302Y-15194325D01*
X8742302Y-15194325D02*
X8761350Y-15194325D01*
X8904207Y-15184801D02*
X8885160Y-15194325D01*
X8885160Y-15194325D02*
X8847064Y-15194325D01*
X8847064Y-15194325D02*
X8828017Y-15184801D01*
X8828017Y-15184801D02*
X8818493Y-15165753D01*
X8818493Y-15165753D02*
X8818493Y-15089563D01*
X8818493Y-15089563D02*
X8828017Y-15070515D01*
X8828017Y-15070515D02*
X8847064Y-15060991D01*
X8847064Y-15060991D02*
X8885160Y-15060991D01*
X8885160Y-15060991D02*
X8904207Y-15070515D01*
X8904207Y-15070515D02*
X8913731Y-15089563D01*
X8913731Y-15089563D02*
X8913731Y-15108610D01*
X8913731Y-15108610D02*
X8818493Y-15127658D01*
X9085160Y-15194325D02*
X9085160Y-14994325D01*
X9085160Y-15184801D02*
X9066112Y-15194325D01*
X9066112Y-15194325D02*
X9028017Y-15194325D01*
X9028017Y-15194325D02*
X9008969Y-15184801D01*
X9008969Y-15184801D02*
X8999445Y-15175277D01*
X8999445Y-15175277D02*
X8989922Y-15156229D01*
X8989922Y-15156229D02*
X8989922Y-15099086D01*
X8989922Y-15099086D02*
X8999445Y-15080039D01*
X8999445Y-15080039D02*
X9008969Y-15070515D01*
X9008969Y-15070515D02*
X9028017Y-15060991D01*
X9028017Y-15060991D02*
X9066112Y-15060991D01*
X9066112Y-15060991D02*
X9085160Y-15070515D01*
X9161350Y-15270515D02*
X9170874Y-15260991D01*
X9170874Y-15260991D02*
X9189922Y-15232420D01*
X9189922Y-15232420D02*
X9199445Y-15213372D01*
X9199445Y-15213372D02*
X9208969Y-15184801D01*
X9208969Y-15184801D02*
X9218493Y-15137182D01*
X9218493Y-15137182D02*
X9218493Y-15099086D01*
X9218493Y-15099086D02*
X9208969Y-15051467D01*
X9208969Y-15051467D02*
X9199445Y-15022896D01*
X9199445Y-15022896D02*
X9189922Y-15003848D01*
X9189922Y-15003848D02*
X9170874Y-14975277D01*
X9170874Y-14975277D02*
X9161350Y-14965753D01*
X2214858Y-15393021D02*
G75*
G02*
X2014858Y-15393021I-100000J0D01*
G01*
X2014858Y-15393021D02*
G75*
G02*
X2214858Y-15393021I100000J0D01*
G01*
X2456588Y-15284505D02*
X2580397Y-15284505D01*
X2580397Y-15284505D02*
X2513730Y-15360695D01*
X2513730Y-15360695D02*
X2542302Y-15360695D01*
X2542302Y-15360695D02*
X2561350Y-15370219D01*
X2561350Y-15370219D02*
X2570873Y-15379743D01*
X2570873Y-15379743D02*
X2580397Y-15398790D01*
X2580397Y-15398790D02*
X2580397Y-15446409D01*
X2580397Y-15446409D02*
X2570873Y-15465457D01*
X2570873Y-15465457D02*
X2561350Y-15474981D01*
X2561350Y-15474981D02*
X2542302Y-15484505D01*
X2542302Y-15484505D02*
X2485159Y-15484505D01*
X2485159Y-15484505D02*
X2466111Y-15474981D01*
X2466111Y-15474981D02*
X2456588Y-15465457D01*
X2666111Y-15465457D02*
X2675635Y-15474981D01*
X2675635Y-15474981D02*
X2666111Y-15484505D01*
X2666111Y-15484505D02*
X2656588Y-15474981D01*
X2656588Y-15474981D02*
X2666111Y-15465457D01*
X2666111Y-15465457D02*
X2666111Y-15484505D01*
X2799445Y-15284505D02*
X2818492Y-15284505D01*
X2818492Y-15284505D02*
X2837540Y-15294028D01*
X2837540Y-15294028D02*
X2847064Y-15303552D01*
X2847064Y-15303552D02*
X2856588Y-15322600D01*
X2856588Y-15322600D02*
X2866111Y-15360695D01*
X2866111Y-15360695D02*
X2866111Y-15408314D01*
X2866111Y-15408314D02*
X2856588Y-15446409D01*
X2856588Y-15446409D02*
X2847064Y-15465457D01*
X2847064Y-15465457D02*
X2837540Y-15474981D01*
X2837540Y-15474981D02*
X2818492Y-15484505D01*
X2818492Y-15484505D02*
X2799445Y-15484505D01*
X2799445Y-15484505D02*
X2780397Y-15474981D01*
X2780397Y-15474981D02*
X2770873Y-15465457D01*
X2770873Y-15465457D02*
X2761350Y-15446409D01*
X2761350Y-15446409D02*
X2751826Y-15408314D01*
X2751826Y-15408314D02*
X2751826Y-15360695D01*
X2751826Y-15360695D02*
X2761350Y-15322600D01*
X2761350Y-15322600D02*
X2770873Y-15303552D01*
X2770873Y-15303552D02*
X2780397Y-15294028D01*
X2780397Y-15294028D02*
X2799445Y-15284505D01*
X2989921Y-15284505D02*
X3008969Y-15284505D01*
X3008969Y-15284505D02*
X3028016Y-15294028D01*
X3028016Y-15294028D02*
X3037540Y-15303552D01*
X3037540Y-15303552D02*
X3047064Y-15322600D01*
X3047064Y-15322600D02*
X3056588Y-15360695D01*
X3056588Y-15360695D02*
X3056588Y-15408314D01*
X3056588Y-15408314D02*
X3047064Y-15446409D01*
X3047064Y-15446409D02*
X3037540Y-15465457D01*
X3037540Y-15465457D02*
X3028016Y-15474981D01*
X3028016Y-15474981D02*
X3008969Y-15484505D01*
X3008969Y-15484505D02*
X2989921Y-15484505D01*
X2989921Y-15484505D02*
X2970873Y-15474981D01*
X2970873Y-15474981D02*
X2961349Y-15465457D01*
X2961349Y-15465457D02*
X2951826Y-15446409D01*
X2951826Y-15446409D02*
X2942302Y-15408314D01*
X2942302Y-15408314D02*
X2942302Y-15360695D01*
X2942302Y-15360695D02*
X2951826Y-15322600D01*
X2951826Y-15322600D02*
X2961349Y-15303552D01*
X2961349Y-15303552D02*
X2970873Y-15294028D01*
X2970873Y-15294028D02*
X2989921Y-15284505D01*
X3180397Y-15284505D02*
X3199445Y-15284505D01*
X3199445Y-15284505D02*
X3218492Y-15294028D01*
X3218492Y-15294028D02*
X3228016Y-15303552D01*
X3228016Y-15303552D02*
X3237540Y-15322600D01*
X3237540Y-15322600D02*
X3247064Y-15360695D01*
X3247064Y-15360695D02*
X3247064Y-15408314D01*
X3247064Y-15408314D02*
X3237540Y-15446409D01*
X3237540Y-15446409D02*
X3228016Y-15465457D01*
X3228016Y-15465457D02*
X3218492Y-15474981D01*
X3218492Y-15474981D02*
X3199445Y-15484505D01*
X3199445Y-15484505D02*
X3180397Y-15484505D01*
X3180397Y-15484505D02*
X3161349Y-15474981D01*
X3161349Y-15474981D02*
X3151826Y-15465457D01*
X3151826Y-15465457D02*
X3142302Y-15446409D01*
X3142302Y-15446409D02*
X3132778Y-15408314D01*
X3132778Y-15408314D02*
X3132778Y-15360695D01*
X3132778Y-15360695D02*
X3142302Y-15322600D01*
X3142302Y-15322600D02*
X3151826Y-15303552D01*
X3151826Y-15303552D02*
X3161349Y-15294028D01*
X3161349Y-15294028D02*
X3180397Y-15284505D01*
X3332778Y-15484505D02*
X3332778Y-15351171D01*
X3332778Y-15370219D02*
X3342302Y-15360695D01*
X3342302Y-15360695D02*
X3361349Y-15351171D01*
X3361349Y-15351171D02*
X3389921Y-15351171D01*
X3389921Y-15351171D02*
X3408969Y-15360695D01*
X3408969Y-15360695D02*
X3418492Y-15379743D01*
X3418492Y-15379743D02*
X3418492Y-15484505D01*
X3418492Y-15379743D02*
X3428016Y-15360695D01*
X3428016Y-15360695D02*
X3447064Y-15351171D01*
X3447064Y-15351171D02*
X3475635Y-15351171D01*
X3475635Y-15351171D02*
X3494683Y-15360695D01*
X3494683Y-15360695D02*
X3504207Y-15379743D01*
X3504207Y-15379743D02*
X3504207Y-15484505D01*
X3599445Y-15484505D02*
X3599445Y-15351171D01*
X3599445Y-15370219D02*
X3608969Y-15360695D01*
X3608969Y-15360695D02*
X3628016Y-15351171D01*
X3628016Y-15351171D02*
X3656588Y-15351171D01*
X3656588Y-15351171D02*
X3675635Y-15360695D01*
X3675635Y-15360695D02*
X3685159Y-15379743D01*
X3685159Y-15379743D02*
X3685159Y-15484505D01*
X3685159Y-15379743D02*
X3694683Y-15360695D01*
X3694683Y-15360695D02*
X3713730Y-15351171D01*
X3713730Y-15351171D02*
X3742302Y-15351171D01*
X3742302Y-15351171D02*
X3761350Y-15360695D01*
X3761350Y-15360695D02*
X3770873Y-15379743D01*
X3770873Y-15379743D02*
X3770873Y-15484505D01*
X4161350Y-15274981D02*
X3989921Y-15532124D01*
X4418493Y-15284505D02*
X4437540Y-15284505D01*
X4437540Y-15284505D02*
X4456588Y-15294028D01*
X4456588Y-15294028D02*
X4466112Y-15303552D01*
X4466112Y-15303552D02*
X4475635Y-15322600D01*
X4475635Y-15322600D02*
X4485159Y-15360695D01*
X4485159Y-15360695D02*
X4485159Y-15408314D01*
X4485159Y-15408314D02*
X4475635Y-15446409D01*
X4475635Y-15446409D02*
X4466112Y-15465457D01*
X4466112Y-15465457D02*
X4456588Y-15474981D01*
X4456588Y-15474981D02*
X4437540Y-15484505D01*
X4437540Y-15484505D02*
X4418493Y-15484505D01*
X4418493Y-15484505D02*
X4399445Y-15474981D01*
X4399445Y-15474981D02*
X4389921Y-15465457D01*
X4389921Y-15465457D02*
X4380397Y-15446409D01*
X4380397Y-15446409D02*
X4370874Y-15408314D01*
X4370874Y-15408314D02*
X4370874Y-15360695D01*
X4370874Y-15360695D02*
X4380397Y-15322600D01*
X4380397Y-15322600D02*
X4389921Y-15303552D01*
X4389921Y-15303552D02*
X4399445Y-15294028D01*
X4399445Y-15294028D02*
X4418493Y-15284505D01*
X4570874Y-15465457D02*
X4580397Y-15474981D01*
X4580397Y-15474981D02*
X4570874Y-15484505D01*
X4570874Y-15484505D02*
X4561350Y-15474981D01*
X4561350Y-15474981D02*
X4570874Y-15465457D01*
X4570874Y-15465457D02*
X4570874Y-15484505D01*
X4770874Y-15484505D02*
X4656588Y-15484505D01*
X4713731Y-15484505D02*
X4713731Y-15284505D01*
X4713731Y-15284505D02*
X4694683Y-15313076D01*
X4694683Y-15313076D02*
X4675635Y-15332124D01*
X4675635Y-15332124D02*
X4656588Y-15341647D01*
X4961350Y-15484505D02*
X4847064Y-15484505D01*
X4904207Y-15484505D02*
X4904207Y-15284505D01*
X4904207Y-15284505D02*
X4885159Y-15313076D01*
X4885159Y-15313076D02*
X4866112Y-15332124D01*
X4866112Y-15332124D02*
X4847064Y-15341647D01*
X5075635Y-15370219D02*
X5056588Y-15360695D01*
X5056588Y-15360695D02*
X5047064Y-15351171D01*
X5047064Y-15351171D02*
X5037540Y-15332124D01*
X5037540Y-15332124D02*
X5037540Y-15322600D01*
X5037540Y-15322600D02*
X5047064Y-15303552D01*
X5047064Y-15303552D02*
X5056588Y-15294028D01*
X5056588Y-15294028D02*
X5075635Y-15284505D01*
X5075635Y-15284505D02*
X5113731Y-15284505D01*
X5113731Y-15284505D02*
X5132778Y-15294028D01*
X5132778Y-15294028D02*
X5142302Y-15303552D01*
X5142302Y-15303552D02*
X5151826Y-15322600D01*
X5151826Y-15322600D02*
X5151826Y-15332124D01*
X5151826Y-15332124D02*
X5142302Y-15351171D01*
X5142302Y-15351171D02*
X5132778Y-15360695D01*
X5132778Y-15360695D02*
X5113731Y-15370219D01*
X5113731Y-15370219D02*
X5075635Y-15370219D01*
X5075635Y-15370219D02*
X5056588Y-15379743D01*
X5056588Y-15379743D02*
X5047064Y-15389266D01*
X5047064Y-15389266D02*
X5037540Y-15408314D01*
X5037540Y-15408314D02*
X5037540Y-15446409D01*
X5037540Y-15446409D02*
X5047064Y-15465457D01*
X5047064Y-15465457D02*
X5056588Y-15474981D01*
X5056588Y-15474981D02*
X5075635Y-15484505D01*
X5075635Y-15484505D02*
X5113731Y-15484505D01*
X5113731Y-15484505D02*
X5132778Y-15474981D01*
X5132778Y-15474981D02*
X5142302Y-15465457D01*
X5142302Y-15465457D02*
X5151826Y-15446409D01*
X5151826Y-15446409D02*
X5151826Y-15408314D01*
X5151826Y-15408314D02*
X5142302Y-15389266D01*
X5142302Y-15389266D02*
X5132778Y-15379743D01*
X5132778Y-15379743D02*
X5113731Y-15370219D01*
X5342302Y-15484505D02*
X5228016Y-15484505D01*
X5285159Y-15484505D02*
X5285159Y-15284505D01*
X5285159Y-15284505D02*
X5266112Y-15313076D01*
X5266112Y-15313076D02*
X5247064Y-15332124D01*
X5247064Y-15332124D02*
X5228016Y-15341647D01*
X5418493Y-15284505D02*
X5418493Y-15322600D01*
X5494683Y-15284505D02*
X5494683Y-15322600D01*
X5789921Y-15560695D02*
X5780397Y-15551171D01*
X5780397Y-15551171D02*
X5761350Y-15522600D01*
X5761350Y-15522600D02*
X5751826Y-15503552D01*
X5751826Y-15503552D02*
X5742302Y-15474981D01*
X5742302Y-15474981D02*
X5732778Y-15427362D01*
X5732778Y-15427362D02*
X5732778Y-15389266D01*
X5732778Y-15389266D02*
X5742302Y-15341647D01*
X5742302Y-15341647D02*
X5751826Y-15313076D01*
X5751826Y-15313076D02*
X5761350Y-15294028D01*
X5761350Y-15294028D02*
X5780397Y-15265457D01*
X5780397Y-15265457D02*
X5789921Y-15255933D01*
X5894683Y-15370219D02*
X5875635Y-15360695D01*
X5875635Y-15360695D02*
X5866112Y-15351171D01*
X5866112Y-15351171D02*
X5856588Y-15332124D01*
X5856588Y-15332124D02*
X5856588Y-15322600D01*
X5856588Y-15322600D02*
X5866112Y-15303552D01*
X5866112Y-15303552D02*
X5875635Y-15294028D01*
X5875635Y-15294028D02*
X5894683Y-15284505D01*
X5894683Y-15284505D02*
X5932778Y-15284505D01*
X5932778Y-15284505D02*
X5951826Y-15294028D01*
X5951826Y-15294028D02*
X5961350Y-15303552D01*
X5961350Y-15303552D02*
X5970874Y-15322600D01*
X5970874Y-15322600D02*
X5970874Y-15332124D01*
X5970874Y-15332124D02*
X5961350Y-15351171D01*
X5961350Y-15351171D02*
X5951826Y-15360695D01*
X5951826Y-15360695D02*
X5932778Y-15370219D01*
X5932778Y-15370219D02*
X5894683Y-15370219D01*
X5894683Y-15370219D02*
X5875635Y-15379743D01*
X5875635Y-15379743D02*
X5866112Y-15389266D01*
X5866112Y-15389266D02*
X5856588Y-15408314D01*
X5856588Y-15408314D02*
X5856588Y-15446409D01*
X5856588Y-15446409D02*
X5866112Y-15465457D01*
X5866112Y-15465457D02*
X5875635Y-15474981D01*
X5875635Y-15474981D02*
X5894683Y-15484505D01*
X5894683Y-15484505D02*
X5932778Y-15484505D01*
X5932778Y-15484505D02*
X5951826Y-15474981D01*
X5951826Y-15474981D02*
X5961350Y-15465457D01*
X5961350Y-15465457D02*
X5970874Y-15446409D01*
X5970874Y-15446409D02*
X5970874Y-15408314D01*
X5970874Y-15408314D02*
X5961350Y-15389266D01*
X5961350Y-15389266D02*
X5951826Y-15379743D01*
X5951826Y-15379743D02*
X5932778Y-15370219D01*
X6142302Y-15284505D02*
X6104207Y-15284505D01*
X6104207Y-15284505D02*
X6085159Y-15294028D01*
X6085159Y-15294028D02*
X6075635Y-15303552D01*
X6075635Y-15303552D02*
X6056588Y-15332124D01*
X6056588Y-15332124D02*
X6047064Y-15370219D01*
X6047064Y-15370219D02*
X6047064Y-15446409D01*
X6047064Y-15446409D02*
X6056588Y-15465457D01*
X6056588Y-15465457D02*
X6066112Y-15474981D01*
X6066112Y-15474981D02*
X6085159Y-15484505D01*
X6085159Y-15484505D02*
X6123255Y-15484505D01*
X6123255Y-15484505D02*
X6142302Y-15474981D01*
X6142302Y-15474981D02*
X6151826Y-15465457D01*
X6151826Y-15465457D02*
X6161350Y-15446409D01*
X6161350Y-15446409D02*
X6161350Y-15398790D01*
X6161350Y-15398790D02*
X6151826Y-15379743D01*
X6151826Y-15379743D02*
X6142302Y-15370219D01*
X6142302Y-15370219D02*
X6123255Y-15360695D01*
X6123255Y-15360695D02*
X6085159Y-15360695D01*
X6085159Y-15360695D02*
X6066112Y-15370219D01*
X6066112Y-15370219D02*
X6056588Y-15379743D01*
X6056588Y-15379743D02*
X6047064Y-15398790D01*
X6399445Y-15484505D02*
X6399445Y-15284505D01*
X6485159Y-15484505D02*
X6485159Y-15379743D01*
X6485159Y-15379743D02*
X6475636Y-15360695D01*
X6475636Y-15360695D02*
X6456588Y-15351171D01*
X6456588Y-15351171D02*
X6428016Y-15351171D01*
X6428016Y-15351171D02*
X6408969Y-15360695D01*
X6408969Y-15360695D02*
X6399445Y-15370219D01*
X6608969Y-15484505D02*
X6589921Y-15474981D01*
X6589921Y-15474981D02*
X6580397Y-15465457D01*
X6580397Y-15465457D02*
X6570874Y-15446409D01*
X6570874Y-15446409D02*
X6570874Y-15389266D01*
X6570874Y-15389266D02*
X6580397Y-15370219D01*
X6580397Y-15370219D02*
X6589921Y-15360695D01*
X6589921Y-15360695D02*
X6608969Y-15351171D01*
X6608969Y-15351171D02*
X6637540Y-15351171D01*
X6637540Y-15351171D02*
X6656588Y-15360695D01*
X6656588Y-15360695D02*
X6666112Y-15370219D01*
X6666112Y-15370219D02*
X6675636Y-15389266D01*
X6675636Y-15389266D02*
X6675636Y-15446409D01*
X6675636Y-15446409D02*
X6666112Y-15465457D01*
X6666112Y-15465457D02*
X6656588Y-15474981D01*
X6656588Y-15474981D02*
X6637540Y-15484505D01*
X6637540Y-15484505D02*
X6608969Y-15484505D01*
X6789921Y-15484505D02*
X6770874Y-15474981D01*
X6770874Y-15474981D02*
X6761350Y-15455933D01*
X6761350Y-15455933D02*
X6761350Y-15284505D01*
X6942302Y-15474981D02*
X6923255Y-15484505D01*
X6923255Y-15484505D02*
X6885159Y-15484505D01*
X6885159Y-15484505D02*
X6866112Y-15474981D01*
X6866112Y-15474981D02*
X6856588Y-15455933D01*
X6856588Y-15455933D02*
X6856588Y-15379743D01*
X6856588Y-15379743D02*
X6866112Y-15360695D01*
X6866112Y-15360695D02*
X6885159Y-15351171D01*
X6885159Y-15351171D02*
X6923255Y-15351171D01*
X6923255Y-15351171D02*
X6942302Y-15360695D01*
X6942302Y-15360695D02*
X6951826Y-15379743D01*
X6951826Y-15379743D02*
X6951826Y-15398790D01*
X6951826Y-15398790D02*
X6856588Y-15417838D01*
X7028017Y-15474981D02*
X7047064Y-15484505D01*
X7047064Y-15484505D02*
X7085159Y-15484505D01*
X7085159Y-15484505D02*
X7104207Y-15474981D01*
X7104207Y-15474981D02*
X7113731Y-15455933D01*
X7113731Y-15455933D02*
X7113731Y-15446409D01*
X7113731Y-15446409D02*
X7104207Y-15427362D01*
X7104207Y-15427362D02*
X7085159Y-15417838D01*
X7085159Y-15417838D02*
X7056588Y-15417838D01*
X7056588Y-15417838D02*
X7037540Y-15408314D01*
X7037540Y-15408314D02*
X7028017Y-15389266D01*
X7028017Y-15389266D02*
X7028017Y-15379743D01*
X7028017Y-15379743D02*
X7037540Y-15360695D01*
X7037540Y-15360695D02*
X7056588Y-15351171D01*
X7056588Y-15351171D02*
X7085159Y-15351171D01*
X7085159Y-15351171D02*
X7104207Y-15360695D01*
X7180398Y-15560695D02*
X7189921Y-15551171D01*
X7189921Y-15551171D02*
X7208969Y-15522600D01*
X7208969Y-15522600D02*
X7218493Y-15503552D01*
X7218493Y-15503552D02*
X7228017Y-15474981D01*
X7228017Y-15474981D02*
X7237540Y-15427362D01*
X7237540Y-15427362D02*
X7237540Y-15389266D01*
X7237540Y-15389266D02*
X7228017Y-15341647D01*
X7228017Y-15341647D02*
X7218493Y-15313076D01*
X7218493Y-15313076D02*
X7208969Y-15294028D01*
X7208969Y-15294028D02*
X7189921Y-15265457D01*
X7189921Y-15265457D02*
X7180398Y-15255933D01*
X7542302Y-15560695D02*
X7532778Y-15551171D01*
X7532778Y-15551171D02*
X7513731Y-15522600D01*
X7513731Y-15522600D02*
X7504207Y-15503552D01*
X7504207Y-15503552D02*
X7494683Y-15474981D01*
X7494683Y-15474981D02*
X7485159Y-15427362D01*
X7485159Y-15427362D02*
X7485159Y-15389266D01*
X7485159Y-15389266D02*
X7494683Y-15341647D01*
X7494683Y-15341647D02*
X7504207Y-15313076D01*
X7504207Y-15313076D02*
X7513731Y-15294028D01*
X7513731Y-15294028D02*
X7532778Y-15265457D01*
X7532778Y-15265457D02*
X7542302Y-15255933D01*
X7618493Y-15351171D02*
X7618493Y-15484505D01*
X7618493Y-15370219D02*
X7628017Y-15360695D01*
X7628017Y-15360695D02*
X7647064Y-15351171D01*
X7647064Y-15351171D02*
X7675636Y-15351171D01*
X7675636Y-15351171D02*
X7694683Y-15360695D01*
X7694683Y-15360695D02*
X7704207Y-15379743D01*
X7704207Y-15379743D02*
X7704207Y-15484505D01*
X7828017Y-15484505D02*
X7808969Y-15474981D01*
X7808969Y-15474981D02*
X7799445Y-15465457D01*
X7799445Y-15465457D02*
X7789921Y-15446409D01*
X7789921Y-15446409D02*
X7789921Y-15389266D01*
X7789921Y-15389266D02*
X7799445Y-15370219D01*
X7799445Y-15370219D02*
X7808969Y-15360695D01*
X7808969Y-15360695D02*
X7828017Y-15351171D01*
X7828017Y-15351171D02*
X7856588Y-15351171D01*
X7856588Y-15351171D02*
X7875636Y-15360695D01*
X7875636Y-15360695D02*
X7885159Y-15370219D01*
X7885159Y-15370219D02*
X7894683Y-15389266D01*
X7894683Y-15389266D02*
X7894683Y-15446409D01*
X7894683Y-15446409D02*
X7885159Y-15465457D01*
X7885159Y-15465457D02*
X7875636Y-15474981D01*
X7875636Y-15474981D02*
X7856588Y-15484505D01*
X7856588Y-15484505D02*
X7828017Y-15484505D01*
X7951826Y-15351171D02*
X8028017Y-15351171D01*
X7980398Y-15284505D02*
X7980398Y-15455933D01*
X7980398Y-15455933D02*
X7989921Y-15474981D01*
X7989921Y-15474981D02*
X8008969Y-15484505D01*
X8008969Y-15484505D02*
X8028017Y-15484505D01*
X8247064Y-15351171D02*
X8247064Y-15551171D01*
X8247064Y-15360695D02*
X8266112Y-15351171D01*
X8266112Y-15351171D02*
X8304207Y-15351171D01*
X8304207Y-15351171D02*
X8323255Y-15360695D01*
X8323255Y-15360695D02*
X8332779Y-15370219D01*
X8332779Y-15370219D02*
X8342302Y-15389266D01*
X8342302Y-15389266D02*
X8342302Y-15446409D01*
X8342302Y-15446409D02*
X8332779Y-15465457D01*
X8332779Y-15465457D02*
X8323255Y-15474981D01*
X8323255Y-15474981D02*
X8304207Y-15484505D01*
X8304207Y-15484505D02*
X8266112Y-15484505D01*
X8266112Y-15484505D02*
X8247064Y-15474981D01*
X8456588Y-15484505D02*
X8437541Y-15474981D01*
X8437541Y-15474981D02*
X8428017Y-15455933D01*
X8428017Y-15455933D02*
X8428017Y-15284505D01*
X8618493Y-15484505D02*
X8618493Y-15379743D01*
X8618493Y-15379743D02*
X8608969Y-15360695D01*
X8608969Y-15360695D02*
X8589922Y-15351171D01*
X8589922Y-15351171D02*
X8551826Y-15351171D01*
X8551826Y-15351171D02*
X8532779Y-15360695D01*
X8618493Y-15474981D02*
X8599445Y-15484505D01*
X8599445Y-15484505D02*
X8551826Y-15484505D01*
X8551826Y-15484505D02*
X8532779Y-15474981D01*
X8532779Y-15474981D02*
X8523255Y-15455933D01*
X8523255Y-15455933D02*
X8523255Y-15436885D01*
X8523255Y-15436885D02*
X8532779Y-15417838D01*
X8532779Y-15417838D02*
X8551826Y-15408314D01*
X8551826Y-15408314D02*
X8599445Y-15408314D01*
X8599445Y-15408314D02*
X8618493Y-15398790D01*
X8685160Y-15351171D02*
X8761350Y-15351171D01*
X8713731Y-15284505D02*
X8713731Y-15455933D01*
X8713731Y-15455933D02*
X8723255Y-15474981D01*
X8723255Y-15474981D02*
X8742302Y-15484505D01*
X8742302Y-15484505D02*
X8761350Y-15484505D01*
X8904207Y-15474981D02*
X8885160Y-15484505D01*
X8885160Y-15484505D02*
X8847064Y-15484505D01*
X8847064Y-15484505D02*
X8828017Y-15474981D01*
X8828017Y-15474981D02*
X8818493Y-15455933D01*
X8818493Y-15455933D02*
X8818493Y-15379743D01*
X8818493Y-15379743D02*
X8828017Y-15360695D01*
X8828017Y-15360695D02*
X8847064Y-15351171D01*
X8847064Y-15351171D02*
X8885160Y-15351171D01*
X8885160Y-15351171D02*
X8904207Y-15360695D01*
X8904207Y-15360695D02*
X8913731Y-15379743D01*
X8913731Y-15379743D02*
X8913731Y-15398790D01*
X8913731Y-15398790D02*
X8818493Y-15417838D01*
X9085160Y-15484505D02*
X9085160Y-15284505D01*
X9085160Y-15474981D02*
X9066112Y-15484505D01*
X9066112Y-15484505D02*
X9028017Y-15484505D01*
X9028017Y-15484505D02*
X9008969Y-15474981D01*
X9008969Y-15474981D02*
X8999445Y-15465457D01*
X8999445Y-15465457D02*
X8989922Y-15446409D01*
X8989922Y-15446409D02*
X8989922Y-15389266D01*
X8989922Y-15389266D02*
X8999445Y-15370219D01*
X8999445Y-15370219D02*
X9008969Y-15360695D01*
X9008969Y-15360695D02*
X9028017Y-15351171D01*
X9028017Y-15351171D02*
X9066112Y-15351171D01*
X9066112Y-15351171D02*
X9085160Y-15360695D01*
X9161350Y-15560695D02*
X9170874Y-15551171D01*
X9170874Y-15551171D02*
X9189922Y-15522600D01*
X9189922Y-15522600D02*
X9199445Y-15503552D01*
X9199445Y-15503552D02*
X9208969Y-15474981D01*
X9208969Y-15474981D02*
X9218493Y-15427362D01*
X9218493Y-15427362D02*
X9218493Y-15389266D01*
X9218493Y-15389266D02*
X9208969Y-15341647D01*
X9208969Y-15341647D02*
X9199445Y-15313076D01*
X9199445Y-15313076D02*
X9189922Y-15294028D01*
X9189922Y-15294028D02*
X9170874Y-15265457D01*
X9170874Y-15265457D02*
X9161350Y-15255933D01*
X2114858Y-15613021D02*
X2114858Y-15813021D01*
X2014858Y-15713021D02*
X2214858Y-15713021D01*
X2456588Y-15604505D02*
X2580397Y-15604505D01*
X2580397Y-15604505D02*
X2513730Y-15680695D01*
X2513730Y-15680695D02*
X2542302Y-15680695D01*
X2542302Y-15680695D02*
X2561350Y-15690219D01*
X2561350Y-15690219D02*
X2570873Y-15699743D01*
X2570873Y-15699743D02*
X2580397Y-15718790D01*
X2580397Y-15718790D02*
X2580397Y-15766409D01*
X2580397Y-15766409D02*
X2570873Y-15785457D01*
X2570873Y-15785457D02*
X2561350Y-15794981D01*
X2561350Y-15794981D02*
X2542302Y-15804505D01*
X2542302Y-15804505D02*
X2485159Y-15804505D01*
X2485159Y-15804505D02*
X2466111Y-15794981D01*
X2466111Y-15794981D02*
X2456588Y-15785457D01*
X2666111Y-15785457D02*
X2675635Y-15794981D01*
X2675635Y-15794981D02*
X2666111Y-15804505D01*
X2666111Y-15804505D02*
X2656588Y-15794981D01*
X2656588Y-15794981D02*
X2666111Y-15785457D01*
X2666111Y-15785457D02*
X2666111Y-15804505D01*
X2799445Y-15604505D02*
X2818492Y-15604505D01*
X2818492Y-15604505D02*
X2837540Y-15614028D01*
X2837540Y-15614028D02*
X2847064Y-15623552D01*
X2847064Y-15623552D02*
X2856588Y-15642600D01*
X2856588Y-15642600D02*
X2866111Y-15680695D01*
X2866111Y-15680695D02*
X2866111Y-15728314D01*
X2866111Y-15728314D02*
X2856588Y-15766409D01*
X2856588Y-15766409D02*
X2847064Y-15785457D01*
X2847064Y-15785457D02*
X2837540Y-15794981D01*
X2837540Y-15794981D02*
X2818492Y-15804505D01*
X2818492Y-15804505D02*
X2799445Y-15804505D01*
X2799445Y-15804505D02*
X2780397Y-15794981D01*
X2780397Y-15794981D02*
X2770873Y-15785457D01*
X2770873Y-15785457D02*
X2761350Y-15766409D01*
X2761350Y-15766409D02*
X2751826Y-15728314D01*
X2751826Y-15728314D02*
X2751826Y-15680695D01*
X2751826Y-15680695D02*
X2761350Y-15642600D01*
X2761350Y-15642600D02*
X2770873Y-15623552D01*
X2770873Y-15623552D02*
X2780397Y-15614028D01*
X2780397Y-15614028D02*
X2799445Y-15604505D01*
X3037540Y-15671171D02*
X3037540Y-15804505D01*
X2989921Y-15594981D02*
X2942302Y-15737838D01*
X2942302Y-15737838D02*
X3066111Y-15737838D01*
X3170873Y-15690219D02*
X3151826Y-15680695D01*
X3151826Y-15680695D02*
X3142302Y-15671171D01*
X3142302Y-15671171D02*
X3132778Y-15652124D01*
X3132778Y-15652124D02*
X3132778Y-15642600D01*
X3132778Y-15642600D02*
X3142302Y-15623552D01*
X3142302Y-15623552D02*
X3151826Y-15614028D01*
X3151826Y-15614028D02*
X3170873Y-15604505D01*
X3170873Y-15604505D02*
X3208969Y-15604505D01*
X3208969Y-15604505D02*
X3228016Y-15614028D01*
X3228016Y-15614028D02*
X3237540Y-15623552D01*
X3237540Y-15623552D02*
X3247064Y-15642600D01*
X3247064Y-15642600D02*
X3247064Y-15652124D01*
X3247064Y-15652124D02*
X3237540Y-15671171D01*
X3237540Y-15671171D02*
X3228016Y-15680695D01*
X3228016Y-15680695D02*
X3208969Y-15690219D01*
X3208969Y-15690219D02*
X3170873Y-15690219D01*
X3170873Y-15690219D02*
X3151826Y-15699743D01*
X3151826Y-15699743D02*
X3142302Y-15709266D01*
X3142302Y-15709266D02*
X3132778Y-15728314D01*
X3132778Y-15728314D02*
X3132778Y-15766409D01*
X3132778Y-15766409D02*
X3142302Y-15785457D01*
X3142302Y-15785457D02*
X3151826Y-15794981D01*
X3151826Y-15794981D02*
X3170873Y-15804505D01*
X3170873Y-15804505D02*
X3208969Y-15804505D01*
X3208969Y-15804505D02*
X3228016Y-15794981D01*
X3228016Y-15794981D02*
X3237540Y-15785457D01*
X3237540Y-15785457D02*
X3247064Y-15766409D01*
X3247064Y-15766409D02*
X3247064Y-15728314D01*
X3247064Y-15728314D02*
X3237540Y-15709266D01*
X3237540Y-15709266D02*
X3228016Y-15699743D01*
X3228016Y-15699743D02*
X3208969Y-15690219D01*
X3332778Y-15804505D02*
X3332778Y-15671171D01*
X3332778Y-15690219D02*
X3342302Y-15680695D01*
X3342302Y-15680695D02*
X3361349Y-15671171D01*
X3361349Y-15671171D02*
X3389921Y-15671171D01*
X3389921Y-15671171D02*
X3408969Y-15680695D01*
X3408969Y-15680695D02*
X3418492Y-15699743D01*
X3418492Y-15699743D02*
X3418492Y-15804505D01*
X3418492Y-15699743D02*
X3428016Y-15680695D01*
X3428016Y-15680695D02*
X3447064Y-15671171D01*
X3447064Y-15671171D02*
X3475635Y-15671171D01*
X3475635Y-15671171D02*
X3494683Y-15680695D01*
X3494683Y-15680695D02*
X3504207Y-15699743D01*
X3504207Y-15699743D02*
X3504207Y-15804505D01*
X3599445Y-15804505D02*
X3599445Y-15671171D01*
X3599445Y-15690219D02*
X3608969Y-15680695D01*
X3608969Y-15680695D02*
X3628016Y-15671171D01*
X3628016Y-15671171D02*
X3656588Y-15671171D01*
X3656588Y-15671171D02*
X3675635Y-15680695D01*
X3675635Y-15680695D02*
X3685159Y-15699743D01*
X3685159Y-15699743D02*
X3685159Y-15804505D01*
X3685159Y-15699743D02*
X3694683Y-15680695D01*
X3694683Y-15680695D02*
X3713730Y-15671171D01*
X3713730Y-15671171D02*
X3742302Y-15671171D01*
X3742302Y-15671171D02*
X3761350Y-15680695D01*
X3761350Y-15680695D02*
X3770873Y-15699743D01*
X3770873Y-15699743D02*
X3770873Y-15804505D01*
X4161350Y-15594981D02*
X3989921Y-15852124D01*
X4418493Y-15604505D02*
X4437540Y-15604505D01*
X4437540Y-15604505D02*
X4456588Y-15614028D01*
X4456588Y-15614028D02*
X4466112Y-15623552D01*
X4466112Y-15623552D02*
X4475635Y-15642600D01*
X4475635Y-15642600D02*
X4485159Y-15680695D01*
X4485159Y-15680695D02*
X4485159Y-15728314D01*
X4485159Y-15728314D02*
X4475635Y-15766409D01*
X4475635Y-15766409D02*
X4466112Y-15785457D01*
X4466112Y-15785457D02*
X4456588Y-15794981D01*
X4456588Y-15794981D02*
X4437540Y-15804505D01*
X4437540Y-15804505D02*
X4418493Y-15804505D01*
X4418493Y-15804505D02*
X4399445Y-15794981D01*
X4399445Y-15794981D02*
X4389921Y-15785457D01*
X4389921Y-15785457D02*
X4380397Y-15766409D01*
X4380397Y-15766409D02*
X4370874Y-15728314D01*
X4370874Y-15728314D02*
X4370874Y-15680695D01*
X4370874Y-15680695D02*
X4380397Y-15642600D01*
X4380397Y-15642600D02*
X4389921Y-15623552D01*
X4389921Y-15623552D02*
X4399445Y-15614028D01*
X4399445Y-15614028D02*
X4418493Y-15604505D01*
X4570874Y-15785457D02*
X4580397Y-15794981D01*
X4580397Y-15794981D02*
X4570874Y-15804505D01*
X4570874Y-15804505D02*
X4561350Y-15794981D01*
X4561350Y-15794981D02*
X4570874Y-15785457D01*
X4570874Y-15785457D02*
X4570874Y-15804505D01*
X4770874Y-15804505D02*
X4656588Y-15804505D01*
X4713731Y-15804505D02*
X4713731Y-15604505D01*
X4713731Y-15604505D02*
X4694683Y-15633076D01*
X4694683Y-15633076D02*
X4675635Y-15652124D01*
X4675635Y-15652124D02*
X4656588Y-15661647D01*
X4847064Y-15623552D02*
X4856588Y-15614028D01*
X4856588Y-15614028D02*
X4875635Y-15604505D01*
X4875635Y-15604505D02*
X4923255Y-15604505D01*
X4923255Y-15604505D02*
X4942302Y-15614028D01*
X4942302Y-15614028D02*
X4951826Y-15623552D01*
X4951826Y-15623552D02*
X4961350Y-15642600D01*
X4961350Y-15642600D02*
X4961350Y-15661647D01*
X4961350Y-15661647D02*
X4951826Y-15690219D01*
X4951826Y-15690219D02*
X4837540Y-15804505D01*
X4837540Y-15804505D02*
X4961350Y-15804505D01*
X5085159Y-15604505D02*
X5104207Y-15604505D01*
X5104207Y-15604505D02*
X5123255Y-15614028D01*
X5123255Y-15614028D02*
X5132778Y-15623552D01*
X5132778Y-15623552D02*
X5142302Y-15642600D01*
X5142302Y-15642600D02*
X5151826Y-15680695D01*
X5151826Y-15680695D02*
X5151826Y-15728314D01*
X5151826Y-15728314D02*
X5142302Y-15766409D01*
X5142302Y-15766409D02*
X5132778Y-15785457D01*
X5132778Y-15785457D02*
X5123255Y-15794981D01*
X5123255Y-15794981D02*
X5104207Y-15804505D01*
X5104207Y-15804505D02*
X5085159Y-15804505D01*
X5085159Y-15804505D02*
X5066112Y-15794981D01*
X5066112Y-15794981D02*
X5056588Y-15785457D01*
X5056588Y-15785457D02*
X5047064Y-15766409D01*
X5047064Y-15766409D02*
X5037540Y-15728314D01*
X5037540Y-15728314D02*
X5037540Y-15680695D01*
X5037540Y-15680695D02*
X5047064Y-15642600D01*
X5047064Y-15642600D02*
X5056588Y-15623552D01*
X5056588Y-15623552D02*
X5066112Y-15614028D01*
X5066112Y-15614028D02*
X5085159Y-15604505D01*
X5275635Y-15604505D02*
X5294683Y-15604505D01*
X5294683Y-15604505D02*
X5313731Y-15614028D01*
X5313731Y-15614028D02*
X5323255Y-15623552D01*
X5323255Y-15623552D02*
X5332778Y-15642600D01*
X5332778Y-15642600D02*
X5342302Y-15680695D01*
X5342302Y-15680695D02*
X5342302Y-15728314D01*
X5342302Y-15728314D02*
X5332778Y-15766409D01*
X5332778Y-15766409D02*
X5323255Y-15785457D01*
X5323255Y-15785457D02*
X5313731Y-15794981D01*
X5313731Y-15794981D02*
X5294683Y-15804505D01*
X5294683Y-15804505D02*
X5275635Y-15804505D01*
X5275635Y-15804505D02*
X5256588Y-15794981D01*
X5256588Y-15794981D02*
X5247064Y-15785457D01*
X5247064Y-15785457D02*
X5237540Y-15766409D01*
X5237540Y-15766409D02*
X5228016Y-15728314D01*
X5228016Y-15728314D02*
X5228016Y-15680695D01*
X5228016Y-15680695D02*
X5237540Y-15642600D01*
X5237540Y-15642600D02*
X5247064Y-15623552D01*
X5247064Y-15623552D02*
X5256588Y-15614028D01*
X5256588Y-15614028D02*
X5275635Y-15604505D01*
X5418493Y-15604505D02*
X5418493Y-15642600D01*
X5494683Y-15604505D02*
X5494683Y-15642600D01*
X5789921Y-15880695D02*
X5780397Y-15871171D01*
X5780397Y-15871171D02*
X5761350Y-15842600D01*
X5761350Y-15842600D02*
X5751826Y-15823552D01*
X5751826Y-15823552D02*
X5742302Y-15794981D01*
X5742302Y-15794981D02*
X5732778Y-15747362D01*
X5732778Y-15747362D02*
X5732778Y-15709266D01*
X5732778Y-15709266D02*
X5742302Y-15661647D01*
X5742302Y-15661647D02*
X5751826Y-15633076D01*
X5751826Y-15633076D02*
X5761350Y-15614028D01*
X5761350Y-15614028D02*
X5780397Y-15585457D01*
X5780397Y-15585457D02*
X5789921Y-15575933D01*
X5951826Y-15604505D02*
X5913731Y-15604505D01*
X5913731Y-15604505D02*
X5894683Y-15614028D01*
X5894683Y-15614028D02*
X5885159Y-15623552D01*
X5885159Y-15623552D02*
X5866112Y-15652124D01*
X5866112Y-15652124D02*
X5856588Y-15690219D01*
X5856588Y-15690219D02*
X5856588Y-15766409D01*
X5856588Y-15766409D02*
X5866112Y-15785457D01*
X5866112Y-15785457D02*
X5875635Y-15794981D01*
X5875635Y-15794981D02*
X5894683Y-15804505D01*
X5894683Y-15804505D02*
X5932778Y-15804505D01*
X5932778Y-15804505D02*
X5951826Y-15794981D01*
X5951826Y-15794981D02*
X5961350Y-15785457D01*
X5961350Y-15785457D02*
X5970874Y-15766409D01*
X5970874Y-15766409D02*
X5970874Y-15718790D01*
X5970874Y-15718790D02*
X5961350Y-15699743D01*
X5961350Y-15699743D02*
X5951826Y-15690219D01*
X5951826Y-15690219D02*
X5932778Y-15680695D01*
X5932778Y-15680695D02*
X5894683Y-15680695D01*
X5894683Y-15680695D02*
X5875635Y-15690219D01*
X5875635Y-15690219D02*
X5866112Y-15699743D01*
X5866112Y-15699743D02*
X5856588Y-15718790D01*
X6208969Y-15804505D02*
X6208969Y-15604505D01*
X6294683Y-15804505D02*
X6294683Y-15699743D01*
X6294683Y-15699743D02*
X6285159Y-15680695D01*
X6285159Y-15680695D02*
X6266112Y-15671171D01*
X6266112Y-15671171D02*
X6237540Y-15671171D01*
X6237540Y-15671171D02*
X6218493Y-15680695D01*
X6218493Y-15680695D02*
X6208969Y-15690219D01*
X6418493Y-15804505D02*
X6399445Y-15794981D01*
X6399445Y-15794981D02*
X6389921Y-15785457D01*
X6389921Y-15785457D02*
X6380397Y-15766409D01*
X6380397Y-15766409D02*
X6380397Y-15709266D01*
X6380397Y-15709266D02*
X6389921Y-15690219D01*
X6389921Y-15690219D02*
X6399445Y-15680695D01*
X6399445Y-15680695D02*
X6418493Y-15671171D01*
X6418493Y-15671171D02*
X6447064Y-15671171D01*
X6447064Y-15671171D02*
X6466112Y-15680695D01*
X6466112Y-15680695D02*
X6475636Y-15690219D01*
X6475636Y-15690219D02*
X6485159Y-15709266D01*
X6485159Y-15709266D02*
X6485159Y-15766409D01*
X6485159Y-15766409D02*
X6475636Y-15785457D01*
X6475636Y-15785457D02*
X6466112Y-15794981D01*
X6466112Y-15794981D02*
X6447064Y-15804505D01*
X6447064Y-15804505D02*
X6418493Y-15804505D01*
X6599445Y-15804505D02*
X6580397Y-15794981D01*
X6580397Y-15794981D02*
X6570874Y-15775933D01*
X6570874Y-15775933D02*
X6570874Y-15604505D01*
X6751826Y-15794981D02*
X6732778Y-15804505D01*
X6732778Y-15804505D02*
X6694683Y-15804505D01*
X6694683Y-15804505D02*
X6675636Y-15794981D01*
X6675636Y-15794981D02*
X6666112Y-15775933D01*
X6666112Y-15775933D02*
X6666112Y-15699743D01*
X6666112Y-15699743D02*
X6675636Y-15680695D01*
X6675636Y-15680695D02*
X6694683Y-15671171D01*
X6694683Y-15671171D02*
X6732778Y-15671171D01*
X6732778Y-15671171D02*
X6751826Y-15680695D01*
X6751826Y-15680695D02*
X6761350Y-15699743D01*
X6761350Y-15699743D02*
X6761350Y-15718790D01*
X6761350Y-15718790D02*
X6666112Y-15737838D01*
X6837540Y-15794981D02*
X6856588Y-15804505D01*
X6856588Y-15804505D02*
X6894683Y-15804505D01*
X6894683Y-15804505D02*
X6913731Y-15794981D01*
X6913731Y-15794981D02*
X6923255Y-15775933D01*
X6923255Y-15775933D02*
X6923255Y-15766409D01*
X6923255Y-15766409D02*
X6913731Y-15747362D01*
X6913731Y-15747362D02*
X6894683Y-15737838D01*
X6894683Y-15737838D02*
X6866112Y-15737838D01*
X6866112Y-15737838D02*
X6847064Y-15728314D01*
X6847064Y-15728314D02*
X6837540Y-15709266D01*
X6837540Y-15709266D02*
X6837540Y-15699743D01*
X6837540Y-15699743D02*
X6847064Y-15680695D01*
X6847064Y-15680695D02*
X6866112Y-15671171D01*
X6866112Y-15671171D02*
X6894683Y-15671171D01*
X6894683Y-15671171D02*
X6913731Y-15680695D01*
X6989921Y-15880695D02*
X6999445Y-15871171D01*
X6999445Y-15871171D02*
X7018493Y-15842600D01*
X7018493Y-15842600D02*
X7028017Y-15823552D01*
X7028017Y-15823552D02*
X7037540Y-15794981D01*
X7037540Y-15794981D02*
X7047064Y-15747362D01*
X7047064Y-15747362D02*
X7047064Y-15709266D01*
X7047064Y-15709266D02*
X7037540Y-15661647D01*
X7037540Y-15661647D02*
X7028017Y-15633076D01*
X7028017Y-15633076D02*
X7018493Y-15614028D01*
X7018493Y-15614028D02*
X6999445Y-15585457D01*
X6999445Y-15585457D02*
X6989921Y-15575933D01*
X7351826Y-15880695D02*
X7342302Y-15871171D01*
X7342302Y-15871171D02*
X7323255Y-15842600D01*
X7323255Y-15842600D02*
X7313731Y-15823552D01*
X7313731Y-15823552D02*
X7304207Y-15794981D01*
X7304207Y-15794981D02*
X7294683Y-15747362D01*
X7294683Y-15747362D02*
X7294683Y-15709266D01*
X7294683Y-15709266D02*
X7304207Y-15661647D01*
X7304207Y-15661647D02*
X7313731Y-15633076D01*
X7313731Y-15633076D02*
X7323255Y-15614028D01*
X7323255Y-15614028D02*
X7342302Y-15585457D01*
X7342302Y-15585457D02*
X7351826Y-15575933D01*
X7428017Y-15671171D02*
X7428017Y-15804505D01*
X7428017Y-15690219D02*
X7437540Y-15680695D01*
X7437540Y-15680695D02*
X7456588Y-15671171D01*
X7456588Y-15671171D02*
X7485159Y-15671171D01*
X7485159Y-15671171D02*
X7504207Y-15680695D01*
X7504207Y-15680695D02*
X7513731Y-15699743D01*
X7513731Y-15699743D02*
X7513731Y-15804505D01*
X7637540Y-15804505D02*
X7618493Y-15794981D01*
X7618493Y-15794981D02*
X7608969Y-15785457D01*
X7608969Y-15785457D02*
X7599445Y-15766409D01*
X7599445Y-15766409D02*
X7599445Y-15709266D01*
X7599445Y-15709266D02*
X7608969Y-15690219D01*
X7608969Y-15690219D02*
X7618493Y-15680695D01*
X7618493Y-15680695D02*
X7637540Y-15671171D01*
X7637540Y-15671171D02*
X7666112Y-15671171D01*
X7666112Y-15671171D02*
X7685159Y-15680695D01*
X7685159Y-15680695D02*
X7694683Y-15690219D01*
X7694683Y-15690219D02*
X7704207Y-15709266D01*
X7704207Y-15709266D02*
X7704207Y-15766409D01*
X7704207Y-15766409D02*
X7694683Y-15785457D01*
X7694683Y-15785457D02*
X7685159Y-15794981D01*
X7685159Y-15794981D02*
X7666112Y-15804505D01*
X7666112Y-15804505D02*
X7637540Y-15804505D01*
X7761350Y-15671171D02*
X7837540Y-15671171D01*
X7789921Y-15604505D02*
X7789921Y-15775933D01*
X7789921Y-15775933D02*
X7799445Y-15794981D01*
X7799445Y-15794981D02*
X7818493Y-15804505D01*
X7818493Y-15804505D02*
X7837540Y-15804505D01*
X8056588Y-15671171D02*
X8056588Y-15871171D01*
X8056588Y-15680695D02*
X8075636Y-15671171D01*
X8075636Y-15671171D02*
X8113731Y-15671171D01*
X8113731Y-15671171D02*
X8132779Y-15680695D01*
X8132779Y-15680695D02*
X8142302Y-15690219D01*
X8142302Y-15690219D02*
X8151826Y-15709266D01*
X8151826Y-15709266D02*
X8151826Y-15766409D01*
X8151826Y-15766409D02*
X8142302Y-15785457D01*
X8142302Y-15785457D02*
X8132779Y-15794981D01*
X8132779Y-15794981D02*
X8113731Y-15804505D01*
X8113731Y-15804505D02*
X8075636Y-15804505D01*
X8075636Y-15804505D02*
X8056588Y-15794981D01*
X8266112Y-15804505D02*
X8247064Y-15794981D01*
X8247064Y-15794981D02*
X8237540Y-15775933D01*
X8237540Y-15775933D02*
X8237540Y-15604505D01*
X8428017Y-15804505D02*
X8428017Y-15699743D01*
X8428017Y-15699743D02*
X8418493Y-15680695D01*
X8418493Y-15680695D02*
X8399445Y-15671171D01*
X8399445Y-15671171D02*
X8361350Y-15671171D01*
X8361350Y-15671171D02*
X8342302Y-15680695D01*
X8428017Y-15794981D02*
X8408969Y-15804505D01*
X8408969Y-15804505D02*
X8361350Y-15804505D01*
X8361350Y-15804505D02*
X8342302Y-15794981D01*
X8342302Y-15794981D02*
X8332779Y-15775933D01*
X8332779Y-15775933D02*
X8332779Y-15756885D01*
X8332779Y-15756885D02*
X8342302Y-15737838D01*
X8342302Y-15737838D02*
X8361350Y-15728314D01*
X8361350Y-15728314D02*
X8408969Y-15728314D01*
X8408969Y-15728314D02*
X8428017Y-15718790D01*
X8494683Y-15671171D02*
X8570874Y-15671171D01*
X8523255Y-15604505D02*
X8523255Y-15775933D01*
X8523255Y-15775933D02*
X8532779Y-15794981D01*
X8532779Y-15794981D02*
X8551826Y-15804505D01*
X8551826Y-15804505D02*
X8570874Y-15804505D01*
X8713731Y-15794981D02*
X8694683Y-15804505D01*
X8694683Y-15804505D02*
X8656588Y-15804505D01*
X8656588Y-15804505D02*
X8637541Y-15794981D01*
X8637541Y-15794981D02*
X8628017Y-15775933D01*
X8628017Y-15775933D02*
X8628017Y-15699743D01*
X8628017Y-15699743D02*
X8637541Y-15680695D01*
X8637541Y-15680695D02*
X8656588Y-15671171D01*
X8656588Y-15671171D02*
X8694683Y-15671171D01*
X8694683Y-15671171D02*
X8713731Y-15680695D01*
X8713731Y-15680695D02*
X8723255Y-15699743D01*
X8723255Y-15699743D02*
X8723255Y-15718790D01*
X8723255Y-15718790D02*
X8628017Y-15737838D01*
X8894683Y-15804505D02*
X8894683Y-15604505D01*
X8894683Y-15794981D02*
X8875636Y-15804505D01*
X8875636Y-15804505D02*
X8837541Y-15804505D01*
X8837541Y-15804505D02*
X8818493Y-15794981D01*
X8818493Y-15794981D02*
X8808969Y-15785457D01*
X8808969Y-15785457D02*
X8799445Y-15766409D01*
X8799445Y-15766409D02*
X8799445Y-15709266D01*
X8799445Y-15709266D02*
X8808969Y-15690219D01*
X8808969Y-15690219D02*
X8818493Y-15680695D01*
X8818493Y-15680695D02*
X8837541Y-15671171D01*
X8837541Y-15671171D02*
X8875636Y-15671171D01*
X8875636Y-15671171D02*
X8894683Y-15680695D01*
X8970874Y-15880695D02*
X8980398Y-15871171D01*
X8980398Y-15871171D02*
X8999445Y-15842600D01*
X8999445Y-15842600D02*
X9008969Y-15823552D01*
X9008969Y-15823552D02*
X9018493Y-15794981D01*
X9018493Y-15794981D02*
X9028017Y-15747362D01*
X9028017Y-15747362D02*
X9028017Y-15709266D01*
X9028017Y-15709266D02*
X9018493Y-15661647D01*
X9018493Y-15661647D02*
X9008969Y-15633076D01*
X9008969Y-15633076D02*
X8999445Y-15614028D01*
X8999445Y-15614028D02*
X8980398Y-15585457D01*
X8980398Y-15585457D02*
X8970874Y-15575933D01*
X2185570Y-16103732D02*
X2185570Y-15962309D01*
X2044147Y-15962309D01*
X2044147Y-16103732D01*
X2185570Y-16103732D01*
X2456588Y-15924505D02*
X2580397Y-15924505D01*
X2580397Y-15924505D02*
X2513730Y-16000695D01*
X2513730Y-16000695D02*
X2542302Y-16000695D01*
X2542302Y-16000695D02*
X2561350Y-16010219D01*
X2561350Y-16010219D02*
X2570873Y-16019743D01*
X2570873Y-16019743D02*
X2580397Y-16038790D01*
X2580397Y-16038790D02*
X2580397Y-16086409D01*
X2580397Y-16086409D02*
X2570873Y-16105457D01*
X2570873Y-16105457D02*
X2561350Y-16114981D01*
X2561350Y-16114981D02*
X2542302Y-16124505D01*
X2542302Y-16124505D02*
X2485159Y-16124505D01*
X2485159Y-16124505D02*
X2466111Y-16114981D01*
X2466111Y-16114981D02*
X2456588Y-16105457D01*
X2666111Y-16105457D02*
X2675635Y-16114981D01*
X2675635Y-16114981D02*
X2666111Y-16124505D01*
X2666111Y-16124505D02*
X2656588Y-16114981D01*
X2656588Y-16114981D02*
X2666111Y-16105457D01*
X2666111Y-16105457D02*
X2666111Y-16124505D01*
X2770873Y-16124505D02*
X2808968Y-16124505D01*
X2808968Y-16124505D02*
X2828016Y-16114981D01*
X2828016Y-16114981D02*
X2837540Y-16105457D01*
X2837540Y-16105457D02*
X2856588Y-16076885D01*
X2856588Y-16076885D02*
X2866111Y-16038790D01*
X2866111Y-16038790D02*
X2866111Y-15962600D01*
X2866111Y-15962600D02*
X2856588Y-15943552D01*
X2856588Y-15943552D02*
X2847064Y-15934028D01*
X2847064Y-15934028D02*
X2828016Y-15924505D01*
X2828016Y-15924505D02*
X2789921Y-15924505D01*
X2789921Y-15924505D02*
X2770873Y-15934028D01*
X2770873Y-15934028D02*
X2761350Y-15943552D01*
X2761350Y-15943552D02*
X2751826Y-15962600D01*
X2751826Y-15962600D02*
X2751826Y-16010219D01*
X2751826Y-16010219D02*
X2761350Y-16029266D01*
X2761350Y-16029266D02*
X2770873Y-16038790D01*
X2770873Y-16038790D02*
X2789921Y-16048314D01*
X2789921Y-16048314D02*
X2828016Y-16048314D01*
X2828016Y-16048314D02*
X2847064Y-16038790D01*
X2847064Y-16038790D02*
X2856588Y-16029266D01*
X2856588Y-16029266D02*
X2866111Y-16010219D01*
X2980397Y-16010219D02*
X2961349Y-16000695D01*
X2961349Y-16000695D02*
X2951826Y-15991171D01*
X2951826Y-15991171D02*
X2942302Y-15972124D01*
X2942302Y-15972124D02*
X2942302Y-15962600D01*
X2942302Y-15962600D02*
X2951826Y-15943552D01*
X2951826Y-15943552D02*
X2961349Y-15934028D01*
X2961349Y-15934028D02*
X2980397Y-15924505D01*
X2980397Y-15924505D02*
X3018492Y-15924505D01*
X3018492Y-15924505D02*
X3037540Y-15934028D01*
X3037540Y-15934028D02*
X3047064Y-15943552D01*
X3047064Y-15943552D02*
X3056588Y-15962600D01*
X3056588Y-15962600D02*
X3056588Y-15972124D01*
X3056588Y-15972124D02*
X3047064Y-15991171D01*
X3047064Y-15991171D02*
X3037540Y-16000695D01*
X3037540Y-16000695D02*
X3018492Y-16010219D01*
X3018492Y-16010219D02*
X2980397Y-16010219D01*
X2980397Y-16010219D02*
X2961349Y-16019743D01*
X2961349Y-16019743D02*
X2951826Y-16029266D01*
X2951826Y-16029266D02*
X2942302Y-16048314D01*
X2942302Y-16048314D02*
X2942302Y-16086409D01*
X2942302Y-16086409D02*
X2951826Y-16105457D01*
X2951826Y-16105457D02*
X2961349Y-16114981D01*
X2961349Y-16114981D02*
X2980397Y-16124505D01*
X2980397Y-16124505D02*
X3018492Y-16124505D01*
X3018492Y-16124505D02*
X3037540Y-16114981D01*
X3037540Y-16114981D02*
X3047064Y-16105457D01*
X3047064Y-16105457D02*
X3056588Y-16086409D01*
X3056588Y-16086409D02*
X3056588Y-16048314D01*
X3056588Y-16048314D02*
X3047064Y-16029266D01*
X3047064Y-16029266D02*
X3037540Y-16019743D01*
X3037540Y-16019743D02*
X3018492Y-16010219D01*
X3170873Y-16010219D02*
X3151826Y-16000695D01*
X3151826Y-16000695D02*
X3142302Y-15991171D01*
X3142302Y-15991171D02*
X3132778Y-15972124D01*
X3132778Y-15972124D02*
X3132778Y-15962600D01*
X3132778Y-15962600D02*
X3142302Y-15943552D01*
X3142302Y-15943552D02*
X3151826Y-15934028D01*
X3151826Y-15934028D02*
X3170873Y-15924505D01*
X3170873Y-15924505D02*
X3208969Y-15924505D01*
X3208969Y-15924505D02*
X3228016Y-15934028D01*
X3228016Y-15934028D02*
X3237540Y-15943552D01*
X3237540Y-15943552D02*
X3247064Y-15962600D01*
X3247064Y-15962600D02*
X3247064Y-15972124D01*
X3247064Y-15972124D02*
X3237540Y-15991171D01*
X3237540Y-15991171D02*
X3228016Y-16000695D01*
X3228016Y-16000695D02*
X3208969Y-16010219D01*
X3208969Y-16010219D02*
X3170873Y-16010219D01*
X3170873Y-16010219D02*
X3151826Y-16019743D01*
X3151826Y-16019743D02*
X3142302Y-16029266D01*
X3142302Y-16029266D02*
X3132778Y-16048314D01*
X3132778Y-16048314D02*
X3132778Y-16086409D01*
X3132778Y-16086409D02*
X3142302Y-16105457D01*
X3142302Y-16105457D02*
X3151826Y-16114981D01*
X3151826Y-16114981D02*
X3170873Y-16124505D01*
X3170873Y-16124505D02*
X3208969Y-16124505D01*
X3208969Y-16124505D02*
X3228016Y-16114981D01*
X3228016Y-16114981D02*
X3237540Y-16105457D01*
X3237540Y-16105457D02*
X3247064Y-16086409D01*
X3247064Y-16086409D02*
X3247064Y-16048314D01*
X3247064Y-16048314D02*
X3237540Y-16029266D01*
X3237540Y-16029266D02*
X3228016Y-16019743D01*
X3228016Y-16019743D02*
X3208969Y-16010219D01*
X3332778Y-16124505D02*
X3332778Y-15991171D01*
X3332778Y-16010219D02*
X3342302Y-16000695D01*
X3342302Y-16000695D02*
X3361349Y-15991171D01*
X3361349Y-15991171D02*
X3389921Y-15991171D01*
X3389921Y-15991171D02*
X3408969Y-16000695D01*
X3408969Y-16000695D02*
X3418492Y-16019743D01*
X3418492Y-16019743D02*
X3418492Y-16124505D01*
X3418492Y-16019743D02*
X3428016Y-16000695D01*
X3428016Y-16000695D02*
X3447064Y-15991171D01*
X3447064Y-15991171D02*
X3475635Y-15991171D01*
X3475635Y-15991171D02*
X3494683Y-16000695D01*
X3494683Y-16000695D02*
X3504207Y-16019743D01*
X3504207Y-16019743D02*
X3504207Y-16124505D01*
X3599445Y-16124505D02*
X3599445Y-15991171D01*
X3599445Y-16010219D02*
X3608969Y-16000695D01*
X3608969Y-16000695D02*
X3628016Y-15991171D01*
X3628016Y-15991171D02*
X3656588Y-15991171D01*
X3656588Y-15991171D02*
X3675635Y-16000695D01*
X3675635Y-16000695D02*
X3685159Y-16019743D01*
X3685159Y-16019743D02*
X3685159Y-16124505D01*
X3685159Y-16019743D02*
X3694683Y-16000695D01*
X3694683Y-16000695D02*
X3713730Y-15991171D01*
X3713730Y-15991171D02*
X3742302Y-15991171D01*
X3742302Y-15991171D02*
X3761350Y-16000695D01*
X3761350Y-16000695D02*
X3770873Y-16019743D01*
X3770873Y-16019743D02*
X3770873Y-16124505D01*
X4161350Y-15914981D02*
X3989921Y-16172124D01*
X4418493Y-15924505D02*
X4437540Y-15924505D01*
X4437540Y-15924505D02*
X4456588Y-15934028D01*
X4456588Y-15934028D02*
X4466112Y-15943552D01*
X4466112Y-15943552D02*
X4475635Y-15962600D01*
X4475635Y-15962600D02*
X4485159Y-16000695D01*
X4485159Y-16000695D02*
X4485159Y-16048314D01*
X4485159Y-16048314D02*
X4475635Y-16086409D01*
X4475635Y-16086409D02*
X4466112Y-16105457D01*
X4466112Y-16105457D02*
X4456588Y-16114981D01*
X4456588Y-16114981D02*
X4437540Y-16124505D01*
X4437540Y-16124505D02*
X4418493Y-16124505D01*
X4418493Y-16124505D02*
X4399445Y-16114981D01*
X4399445Y-16114981D02*
X4389921Y-16105457D01*
X4389921Y-16105457D02*
X4380397Y-16086409D01*
X4380397Y-16086409D02*
X4370874Y-16048314D01*
X4370874Y-16048314D02*
X4370874Y-16000695D01*
X4370874Y-16000695D02*
X4380397Y-15962600D01*
X4380397Y-15962600D02*
X4389921Y-15943552D01*
X4389921Y-15943552D02*
X4399445Y-15934028D01*
X4399445Y-15934028D02*
X4418493Y-15924505D01*
X4570874Y-16105457D02*
X4580397Y-16114981D01*
X4580397Y-16114981D02*
X4570874Y-16124505D01*
X4570874Y-16124505D02*
X4561350Y-16114981D01*
X4561350Y-16114981D02*
X4570874Y-16105457D01*
X4570874Y-16105457D02*
X4570874Y-16124505D01*
X4770874Y-16124505D02*
X4656588Y-16124505D01*
X4713731Y-16124505D02*
X4713731Y-15924505D01*
X4713731Y-15924505D02*
X4694683Y-15953076D01*
X4694683Y-15953076D02*
X4675635Y-15972124D01*
X4675635Y-15972124D02*
X4656588Y-15981647D01*
X4951826Y-15924505D02*
X4856588Y-15924505D01*
X4856588Y-15924505D02*
X4847064Y-16019743D01*
X4847064Y-16019743D02*
X4856588Y-16010219D01*
X4856588Y-16010219D02*
X4875635Y-16000695D01*
X4875635Y-16000695D02*
X4923255Y-16000695D01*
X4923255Y-16000695D02*
X4942302Y-16010219D01*
X4942302Y-16010219D02*
X4951826Y-16019743D01*
X4951826Y-16019743D02*
X4961350Y-16038790D01*
X4961350Y-16038790D02*
X4961350Y-16086409D01*
X4961350Y-16086409D02*
X4951826Y-16105457D01*
X4951826Y-16105457D02*
X4942302Y-16114981D01*
X4942302Y-16114981D02*
X4923255Y-16124505D01*
X4923255Y-16124505D02*
X4875635Y-16124505D01*
X4875635Y-16124505D02*
X4856588Y-16114981D01*
X4856588Y-16114981D02*
X4847064Y-16105457D01*
X5028016Y-15924505D02*
X5161350Y-15924505D01*
X5161350Y-15924505D02*
X5075635Y-16124505D01*
X5275635Y-15924505D02*
X5294683Y-15924505D01*
X5294683Y-15924505D02*
X5313731Y-15934028D01*
X5313731Y-15934028D02*
X5323255Y-15943552D01*
X5323255Y-15943552D02*
X5332778Y-15962600D01*
X5332778Y-15962600D02*
X5342302Y-16000695D01*
X5342302Y-16000695D02*
X5342302Y-16048314D01*
X5342302Y-16048314D02*
X5332778Y-16086409D01*
X5332778Y-16086409D02*
X5323255Y-16105457D01*
X5323255Y-16105457D02*
X5313731Y-16114981D01*
X5313731Y-16114981D02*
X5294683Y-16124505D01*
X5294683Y-16124505D02*
X5275635Y-16124505D01*
X5275635Y-16124505D02*
X5256588Y-16114981D01*
X5256588Y-16114981D02*
X5247064Y-16105457D01*
X5247064Y-16105457D02*
X5237540Y-16086409D01*
X5237540Y-16086409D02*
X5228016Y-16048314D01*
X5228016Y-16048314D02*
X5228016Y-16000695D01*
X5228016Y-16000695D02*
X5237540Y-15962600D01*
X5237540Y-15962600D02*
X5247064Y-15943552D01*
X5247064Y-15943552D02*
X5256588Y-15934028D01*
X5256588Y-15934028D02*
X5275635Y-15924505D01*
X5418493Y-15924505D02*
X5418493Y-15962600D01*
X5494683Y-15924505D02*
X5494683Y-15962600D01*
X5789921Y-16200695D02*
X5780397Y-16191171D01*
X5780397Y-16191171D02*
X5761350Y-16162600D01*
X5761350Y-16162600D02*
X5751826Y-16143552D01*
X5751826Y-16143552D02*
X5742302Y-16114981D01*
X5742302Y-16114981D02*
X5732778Y-16067362D01*
X5732778Y-16067362D02*
X5732778Y-16029266D01*
X5732778Y-16029266D02*
X5742302Y-15981647D01*
X5742302Y-15981647D02*
X5751826Y-15953076D01*
X5751826Y-15953076D02*
X5761350Y-15934028D01*
X5761350Y-15934028D02*
X5780397Y-15905457D01*
X5780397Y-15905457D02*
X5789921Y-15895933D01*
X5951826Y-15991171D02*
X5951826Y-16124505D01*
X5904207Y-15914981D02*
X5856588Y-16057838D01*
X5856588Y-16057838D02*
X5980397Y-16057838D01*
X6066112Y-16124505D02*
X6104207Y-16124505D01*
X6104207Y-16124505D02*
X6123255Y-16114981D01*
X6123255Y-16114981D02*
X6132778Y-16105457D01*
X6132778Y-16105457D02*
X6151826Y-16076885D01*
X6151826Y-16076885D02*
X6161350Y-16038790D01*
X6161350Y-16038790D02*
X6161350Y-15962600D01*
X6161350Y-15962600D02*
X6151826Y-15943552D01*
X6151826Y-15943552D02*
X6142302Y-15934028D01*
X6142302Y-15934028D02*
X6123255Y-15924505D01*
X6123255Y-15924505D02*
X6085159Y-15924505D01*
X6085159Y-15924505D02*
X6066112Y-15934028D01*
X6066112Y-15934028D02*
X6056588Y-15943552D01*
X6056588Y-15943552D02*
X6047064Y-15962600D01*
X6047064Y-15962600D02*
X6047064Y-16010219D01*
X6047064Y-16010219D02*
X6056588Y-16029266D01*
X6056588Y-16029266D02*
X6066112Y-16038790D01*
X6066112Y-16038790D02*
X6085159Y-16048314D01*
X6085159Y-16048314D02*
X6123255Y-16048314D01*
X6123255Y-16048314D02*
X6142302Y-16038790D01*
X6142302Y-16038790D02*
X6151826Y-16029266D01*
X6151826Y-16029266D02*
X6161350Y-16010219D01*
X6399445Y-16124505D02*
X6399445Y-15924505D01*
X6485159Y-16124505D02*
X6485159Y-16019743D01*
X6485159Y-16019743D02*
X6475636Y-16000695D01*
X6475636Y-16000695D02*
X6456588Y-15991171D01*
X6456588Y-15991171D02*
X6428016Y-15991171D01*
X6428016Y-15991171D02*
X6408969Y-16000695D01*
X6408969Y-16000695D02*
X6399445Y-16010219D01*
X6608969Y-16124505D02*
X6589921Y-16114981D01*
X6589921Y-16114981D02*
X6580397Y-16105457D01*
X6580397Y-16105457D02*
X6570874Y-16086409D01*
X6570874Y-16086409D02*
X6570874Y-16029266D01*
X6570874Y-16029266D02*
X6580397Y-16010219D01*
X6580397Y-16010219D02*
X6589921Y-16000695D01*
X6589921Y-16000695D02*
X6608969Y-15991171D01*
X6608969Y-15991171D02*
X6637540Y-15991171D01*
X6637540Y-15991171D02*
X6656588Y-16000695D01*
X6656588Y-16000695D02*
X6666112Y-16010219D01*
X6666112Y-16010219D02*
X6675636Y-16029266D01*
X6675636Y-16029266D02*
X6675636Y-16086409D01*
X6675636Y-16086409D02*
X6666112Y-16105457D01*
X6666112Y-16105457D02*
X6656588Y-16114981D01*
X6656588Y-16114981D02*
X6637540Y-16124505D01*
X6637540Y-16124505D02*
X6608969Y-16124505D01*
X6789921Y-16124505D02*
X6770874Y-16114981D01*
X6770874Y-16114981D02*
X6761350Y-16095933D01*
X6761350Y-16095933D02*
X6761350Y-15924505D01*
X6942302Y-16114981D02*
X6923255Y-16124505D01*
X6923255Y-16124505D02*
X6885159Y-16124505D01*
X6885159Y-16124505D02*
X6866112Y-16114981D01*
X6866112Y-16114981D02*
X6856588Y-16095933D01*
X6856588Y-16095933D02*
X6856588Y-16019743D01*
X6856588Y-16019743D02*
X6866112Y-16000695D01*
X6866112Y-16000695D02*
X6885159Y-15991171D01*
X6885159Y-15991171D02*
X6923255Y-15991171D01*
X6923255Y-15991171D02*
X6942302Y-16000695D01*
X6942302Y-16000695D02*
X6951826Y-16019743D01*
X6951826Y-16019743D02*
X6951826Y-16038790D01*
X6951826Y-16038790D02*
X6856588Y-16057838D01*
X7028017Y-16114981D02*
X7047064Y-16124505D01*
X7047064Y-16124505D02*
X7085159Y-16124505D01*
X7085159Y-16124505D02*
X7104207Y-16114981D01*
X7104207Y-16114981D02*
X7113731Y-16095933D01*
X7113731Y-16095933D02*
X7113731Y-16086409D01*
X7113731Y-16086409D02*
X7104207Y-16067362D01*
X7104207Y-16067362D02*
X7085159Y-16057838D01*
X7085159Y-16057838D02*
X7056588Y-16057838D01*
X7056588Y-16057838D02*
X7037540Y-16048314D01*
X7037540Y-16048314D02*
X7028017Y-16029266D01*
X7028017Y-16029266D02*
X7028017Y-16019743D01*
X7028017Y-16019743D02*
X7037540Y-16000695D01*
X7037540Y-16000695D02*
X7056588Y-15991171D01*
X7056588Y-15991171D02*
X7085159Y-15991171D01*
X7085159Y-15991171D02*
X7104207Y-16000695D01*
X7180398Y-16200695D02*
X7189921Y-16191171D01*
X7189921Y-16191171D02*
X7208969Y-16162600D01*
X7208969Y-16162600D02*
X7218493Y-16143552D01*
X7218493Y-16143552D02*
X7228017Y-16114981D01*
X7228017Y-16114981D02*
X7237540Y-16067362D01*
X7237540Y-16067362D02*
X7237540Y-16029266D01*
X7237540Y-16029266D02*
X7228017Y-15981647D01*
X7228017Y-15981647D02*
X7218493Y-15953076D01*
X7218493Y-15953076D02*
X7208969Y-15934028D01*
X7208969Y-15934028D02*
X7189921Y-15905457D01*
X7189921Y-15905457D02*
X7180398Y-15895933D01*
X7542302Y-16200695D02*
X7532778Y-16191171D01*
X7532778Y-16191171D02*
X7513731Y-16162600D01*
X7513731Y-16162600D02*
X7504207Y-16143552D01*
X7504207Y-16143552D02*
X7494683Y-16114981D01*
X7494683Y-16114981D02*
X7485159Y-16067362D01*
X7485159Y-16067362D02*
X7485159Y-16029266D01*
X7485159Y-16029266D02*
X7494683Y-15981647D01*
X7494683Y-15981647D02*
X7504207Y-15953076D01*
X7504207Y-15953076D02*
X7513731Y-15934028D01*
X7513731Y-15934028D02*
X7532778Y-15905457D01*
X7532778Y-15905457D02*
X7542302Y-15895933D01*
X7618493Y-15991171D02*
X7618493Y-16124505D01*
X7618493Y-16010219D02*
X7628017Y-16000695D01*
X7628017Y-16000695D02*
X7647064Y-15991171D01*
X7647064Y-15991171D02*
X7675636Y-15991171D01*
X7675636Y-15991171D02*
X7694683Y-16000695D01*
X7694683Y-16000695D02*
X7704207Y-16019743D01*
X7704207Y-16019743D02*
X7704207Y-16124505D01*
X7828017Y-16124505D02*
X7808969Y-16114981D01*
X7808969Y-16114981D02*
X7799445Y-16105457D01*
X7799445Y-16105457D02*
X7789921Y-16086409D01*
X7789921Y-16086409D02*
X7789921Y-16029266D01*
X7789921Y-16029266D02*
X7799445Y-16010219D01*
X7799445Y-16010219D02*
X7808969Y-16000695D01*
X7808969Y-16000695D02*
X7828017Y-15991171D01*
X7828017Y-15991171D02*
X7856588Y-15991171D01*
X7856588Y-15991171D02*
X7875636Y-16000695D01*
X7875636Y-16000695D02*
X7885159Y-16010219D01*
X7885159Y-16010219D02*
X7894683Y-16029266D01*
X7894683Y-16029266D02*
X7894683Y-16086409D01*
X7894683Y-16086409D02*
X7885159Y-16105457D01*
X7885159Y-16105457D02*
X7875636Y-16114981D01*
X7875636Y-16114981D02*
X7856588Y-16124505D01*
X7856588Y-16124505D02*
X7828017Y-16124505D01*
X7951826Y-15991171D02*
X8028017Y-15991171D01*
X7980398Y-15924505D02*
X7980398Y-16095933D01*
X7980398Y-16095933D02*
X7989921Y-16114981D01*
X7989921Y-16114981D02*
X8008969Y-16124505D01*
X8008969Y-16124505D02*
X8028017Y-16124505D01*
X8247064Y-15991171D02*
X8247064Y-16191171D01*
X8247064Y-16000695D02*
X8266112Y-15991171D01*
X8266112Y-15991171D02*
X8304207Y-15991171D01*
X8304207Y-15991171D02*
X8323255Y-16000695D01*
X8323255Y-16000695D02*
X8332779Y-16010219D01*
X8332779Y-16010219D02*
X8342302Y-16029266D01*
X8342302Y-16029266D02*
X8342302Y-16086409D01*
X8342302Y-16086409D02*
X8332779Y-16105457D01*
X8332779Y-16105457D02*
X8323255Y-16114981D01*
X8323255Y-16114981D02*
X8304207Y-16124505D01*
X8304207Y-16124505D02*
X8266112Y-16124505D01*
X8266112Y-16124505D02*
X8247064Y-16114981D01*
X8456588Y-16124505D02*
X8437541Y-16114981D01*
X8437541Y-16114981D02*
X8428017Y-16095933D01*
X8428017Y-16095933D02*
X8428017Y-15924505D01*
X8618493Y-16124505D02*
X8618493Y-16019743D01*
X8618493Y-16019743D02*
X8608969Y-16000695D01*
X8608969Y-16000695D02*
X8589922Y-15991171D01*
X8589922Y-15991171D02*
X8551826Y-15991171D01*
X8551826Y-15991171D02*
X8532779Y-16000695D01*
X8618493Y-16114981D02*
X8599445Y-16124505D01*
X8599445Y-16124505D02*
X8551826Y-16124505D01*
X8551826Y-16124505D02*
X8532779Y-16114981D01*
X8532779Y-16114981D02*
X8523255Y-16095933D01*
X8523255Y-16095933D02*
X8523255Y-16076885D01*
X8523255Y-16076885D02*
X8532779Y-16057838D01*
X8532779Y-16057838D02*
X8551826Y-16048314D01*
X8551826Y-16048314D02*
X8599445Y-16048314D01*
X8599445Y-16048314D02*
X8618493Y-16038790D01*
X8685160Y-15991171D02*
X8761350Y-15991171D01*
X8713731Y-15924505D02*
X8713731Y-16095933D01*
X8713731Y-16095933D02*
X8723255Y-16114981D01*
X8723255Y-16114981D02*
X8742302Y-16124505D01*
X8742302Y-16124505D02*
X8761350Y-16124505D01*
X8904207Y-16114981D02*
X8885160Y-16124505D01*
X8885160Y-16124505D02*
X8847064Y-16124505D01*
X8847064Y-16124505D02*
X8828017Y-16114981D01*
X8828017Y-16114981D02*
X8818493Y-16095933D01*
X8818493Y-16095933D02*
X8818493Y-16019743D01*
X8818493Y-16019743D02*
X8828017Y-16000695D01*
X8828017Y-16000695D02*
X8847064Y-15991171D01*
X8847064Y-15991171D02*
X8885160Y-15991171D01*
X8885160Y-15991171D02*
X8904207Y-16000695D01*
X8904207Y-16000695D02*
X8913731Y-16019743D01*
X8913731Y-16019743D02*
X8913731Y-16038790D01*
X8913731Y-16038790D02*
X8818493Y-16057838D01*
X9085160Y-16124505D02*
X9085160Y-15924505D01*
X9085160Y-16114981D02*
X9066112Y-16124505D01*
X9066112Y-16124505D02*
X9028017Y-16124505D01*
X9028017Y-16124505D02*
X9008969Y-16114981D01*
X9008969Y-16114981D02*
X8999445Y-16105457D01*
X8999445Y-16105457D02*
X8989922Y-16086409D01*
X8989922Y-16086409D02*
X8989922Y-16029266D01*
X8989922Y-16029266D02*
X8999445Y-16010219D01*
X8999445Y-16010219D02*
X9008969Y-16000695D01*
X9008969Y-16000695D02*
X9028017Y-15991171D01*
X9028017Y-15991171D02*
X9066112Y-15991171D01*
X9066112Y-15991171D02*
X9085160Y-16000695D01*
X9161350Y-16200695D02*
X9170874Y-16191171D01*
X9170874Y-16191171D02*
X9189922Y-16162600D01*
X9189922Y-16162600D02*
X9199445Y-16143552D01*
X9199445Y-16143552D02*
X9208969Y-16114981D01*
X9208969Y-16114981D02*
X9218493Y-16067362D01*
X9218493Y-16067362D02*
X9218493Y-16029266D01*
X9218493Y-16029266D02*
X9208969Y-15981647D01*
X9208969Y-15981647D02*
X9199445Y-15953076D01*
X9199445Y-15953076D02*
X9189922Y-15934028D01*
X9189922Y-15934028D02*
X9170874Y-15905457D01*
X9170874Y-15905457D02*
X9161350Y-15895933D01*
M02*
