%TF.GenerationSoftware,KiCad,Pcbnew,9.99.0-5522-g400384cf72*%
%TF.CreationDate,2026-02-12T00:01:38-08:00*%
%TF.ProjectId,amb-kb,616d622d-6b62-42e6-9b69-6361645f7063,rev?*%
%TF.SameCoordinates,Original*%
%TF.FileFunction,Legend,Top*%
%TF.FilePolarity,Positive*%
%FSLAX46Y46*%
G04 Gerber Fmt 4.6, Leading zero omitted, Abs format (unit mm)*
G04 Created by KiCad (PCBNEW 9.99.0-5522-g400384cf72) date 2026-02-12 00:01:38*
%MOMM*%
%LPD*%
G01*
G04 APERTURE LIST*
%ADD10C,0.400000*%
%ADD11C,0.180000*%
%ADD12C,0.200000*%
%ADD13C,0.120000*%
%ADD14C,0.152400*%
%ADD15C,0.508000*%
G04 APERTURE END LIST*
D10*
X255922916Y-142104139D02*
X255922916Y-141056520D01*
X255922916Y-141056520D02*
X255827678Y-140866043D01*
X255827678Y-140866043D02*
X255637202Y-140770805D01*
X255637202Y-140770805D02*
X255256249Y-140770805D01*
X255256249Y-140770805D02*
X255065773Y-140866043D01*
X255922916Y-142008901D02*
X255732440Y-142104139D01*
X255732440Y-142104139D02*
X255256249Y-142104139D01*
X255256249Y-142104139D02*
X255065773Y-142008901D01*
X255065773Y-142008901D02*
X254970535Y-141818424D01*
X254970535Y-141818424D02*
X254970535Y-141627948D01*
X254970535Y-141627948D02*
X255065773Y-141437472D01*
X255065773Y-141437472D02*
X255256249Y-141342234D01*
X255256249Y-141342234D02*
X255732440Y-141342234D01*
X255732440Y-141342234D02*
X255922916Y-141246996D01*
X256875297Y-142104139D02*
X256875297Y-140770805D01*
X256875297Y-140961281D02*
X256970535Y-140866043D01*
X256970535Y-140866043D02*
X257161011Y-140770805D01*
X257161011Y-140770805D02*
X257446726Y-140770805D01*
X257446726Y-140770805D02*
X257637202Y-140866043D01*
X257637202Y-140866043D02*
X257732440Y-141056520D01*
X257732440Y-141056520D02*
X257732440Y-142104139D01*
X257732440Y-141056520D02*
X257827678Y-140866043D01*
X257827678Y-140866043D02*
X258018154Y-140770805D01*
X258018154Y-140770805D02*
X258303868Y-140770805D01*
X258303868Y-140770805D02*
X258494345Y-140866043D01*
X258494345Y-140866043D02*
X258589583Y-141056520D01*
X258589583Y-141056520D02*
X258589583Y-142104139D01*
X259541964Y-142104139D02*
X259541964Y-140104139D01*
X259541964Y-140866043D02*
X259732440Y-140770805D01*
X259732440Y-140770805D02*
X260113393Y-140770805D01*
X260113393Y-140770805D02*
X260303869Y-140866043D01*
X260303869Y-140866043D02*
X260399107Y-140961281D01*
X260399107Y-140961281D02*
X260494345Y-141151758D01*
X260494345Y-141151758D02*
X260494345Y-141723186D01*
X260494345Y-141723186D02*
X260399107Y-141913662D01*
X260399107Y-141913662D02*
X260303869Y-142008901D01*
X260303869Y-142008901D02*
X260113393Y-142104139D01*
X260113393Y-142104139D02*
X259732440Y-142104139D01*
X259732440Y-142104139D02*
X259541964Y-142008901D01*
X263732441Y-142104139D02*
X263732441Y-141056520D01*
X263732441Y-141056520D02*
X263637203Y-140866043D01*
X263637203Y-140866043D02*
X263446727Y-140770805D01*
X263446727Y-140770805D02*
X263065774Y-140770805D01*
X263065774Y-140770805D02*
X262875298Y-140866043D01*
X263732441Y-142008901D02*
X263541965Y-142104139D01*
X263541965Y-142104139D02*
X263065774Y-142104139D01*
X263065774Y-142104139D02*
X262875298Y-142008901D01*
X262875298Y-142008901D02*
X262780060Y-141818424D01*
X262780060Y-141818424D02*
X262780060Y-141627948D01*
X262780060Y-141627948D02*
X262875298Y-141437472D01*
X262875298Y-141437472D02*
X263065774Y-141342234D01*
X263065774Y-141342234D02*
X263541965Y-141342234D01*
X263541965Y-141342234D02*
X263732441Y-141246996D01*
X264589584Y-142008901D02*
X264780060Y-142104139D01*
X264780060Y-142104139D02*
X265161012Y-142104139D01*
X265161012Y-142104139D02*
X265351489Y-142008901D01*
X265351489Y-142008901D02*
X265446727Y-141818424D01*
X265446727Y-141818424D02*
X265446727Y-141723186D01*
X265446727Y-141723186D02*
X265351489Y-141532710D01*
X265351489Y-141532710D02*
X265161012Y-141437472D01*
X265161012Y-141437472D02*
X264875298Y-141437472D01*
X264875298Y-141437472D02*
X264684822Y-141342234D01*
X264684822Y-141342234D02*
X264589584Y-141151758D01*
X264589584Y-141151758D02*
X264589584Y-141056520D01*
X264589584Y-141056520D02*
X264684822Y-140866043D01*
X264684822Y-140866043D02*
X264875298Y-140770805D01*
X264875298Y-140770805D02*
X265161012Y-140770805D01*
X265161012Y-140770805D02*
X265351489Y-140866043D01*
X267065775Y-142008901D02*
X266875299Y-142104139D01*
X266875299Y-142104139D02*
X266494346Y-142104139D01*
X266494346Y-142104139D02*
X266303870Y-142008901D01*
X266303870Y-142008901D02*
X266208632Y-141818424D01*
X266208632Y-141818424D02*
X266208632Y-141056520D01*
X266208632Y-141056520D02*
X266303870Y-140866043D01*
X266303870Y-140866043D02*
X266494346Y-140770805D01*
X266494346Y-140770805D02*
X266875299Y-140770805D01*
X266875299Y-140770805D02*
X267065775Y-140866043D01*
X267065775Y-140866043D02*
X267161013Y-141056520D01*
X267161013Y-141056520D02*
X267161013Y-141246996D01*
X267161013Y-141246996D02*
X266208632Y-141437472D01*
X270399109Y-142104139D02*
X270399109Y-141056520D01*
X270399109Y-141056520D02*
X270303871Y-140866043D01*
X270303871Y-140866043D02*
X270113395Y-140770805D01*
X270113395Y-140770805D02*
X269732442Y-140770805D01*
X269732442Y-140770805D02*
X269541966Y-140866043D01*
X270399109Y-142008901D02*
X270208633Y-142104139D01*
X270208633Y-142104139D02*
X269732442Y-142104139D01*
X269732442Y-142104139D02*
X269541966Y-142008901D01*
X269541966Y-142008901D02*
X269446728Y-141818424D01*
X269446728Y-141818424D02*
X269446728Y-141627948D01*
X269446728Y-141627948D02*
X269541966Y-141437472D01*
X269541966Y-141437472D02*
X269732442Y-141342234D01*
X269732442Y-141342234D02*
X270208633Y-141342234D01*
X270208633Y-141342234D02*
X270399109Y-141246996D01*
X271256252Y-142008901D02*
X271446728Y-142104139D01*
X271446728Y-142104139D02*
X271827680Y-142104139D01*
X271827680Y-142104139D02*
X272018157Y-142008901D01*
X272018157Y-142008901D02*
X272113395Y-141818424D01*
X272113395Y-141818424D02*
X272113395Y-141723186D01*
X272113395Y-141723186D02*
X272018157Y-141532710D01*
X272018157Y-141532710D02*
X271827680Y-141437472D01*
X271827680Y-141437472D02*
X271541966Y-141437472D01*
X271541966Y-141437472D02*
X271351490Y-141342234D01*
X271351490Y-141342234D02*
X271256252Y-141151758D01*
X271256252Y-141151758D02*
X271256252Y-141056520D01*
X271256252Y-141056520D02*
X271351490Y-140866043D01*
X271351490Y-140866043D02*
X271541966Y-140770805D01*
X271541966Y-140770805D02*
X271827680Y-140770805D01*
X271827680Y-140770805D02*
X272018157Y-140866043D01*
X272780062Y-140770805D02*
X273161014Y-142104139D01*
X273161014Y-142104139D02*
X273541967Y-141151758D01*
X273541967Y-141151758D02*
X273922919Y-142104139D01*
X273922919Y-142104139D02*
X274303871Y-140770805D01*
D11*
X149756250Y-58752960D02*
X149756250Y-59467245D01*
X149756250Y-59467245D02*
X149708631Y-59610102D01*
X149708631Y-59610102D02*
X149613393Y-59705341D01*
X149613393Y-59705341D02*
X149470536Y-59752960D01*
X149470536Y-59752960D02*
X149375298Y-59752960D01*
X150756250Y-59752960D02*
X150184822Y-59752960D01*
X150470536Y-59752960D02*
X150470536Y-58752960D01*
X150470536Y-58752960D02*
X150375298Y-58895817D01*
X150375298Y-58895817D02*
X150280060Y-58991055D01*
X150280060Y-58991055D02*
X150184822Y-59038674D01*
X26347604Y-83466367D02*
X26395224Y-83513986D01*
X26395224Y-83513986D02*
X26442843Y-83656843D01*
X26442843Y-83656843D02*
X26442843Y-83752081D01*
X26442843Y-83752081D02*
X26395224Y-83894938D01*
X26395224Y-83894938D02*
X26299985Y-83990176D01*
X26299985Y-83990176D02*
X26204747Y-84037795D01*
X26204747Y-84037795D02*
X26014271Y-84085414D01*
X26014271Y-84085414D02*
X25871414Y-84085414D01*
X25871414Y-84085414D02*
X25680938Y-84037795D01*
X25680938Y-84037795D02*
X25585700Y-83990176D01*
X25585700Y-83990176D02*
X25490462Y-83894938D01*
X25490462Y-83894938D02*
X25442843Y-83752081D01*
X25442843Y-83752081D02*
X25442843Y-83656843D01*
X25442843Y-83656843D02*
X25490462Y-83513986D01*
X25490462Y-83513986D02*
X25538081Y-83466367D01*
X25776176Y-82609224D02*
X26442843Y-82609224D01*
X25395224Y-82847319D02*
X26109509Y-83085414D01*
X26109509Y-83085414D02*
X26109509Y-82466367D01*
D12*
X38075298Y-88644443D02*
X38075298Y-89615872D01*
X38075298Y-89615872D02*
X38132441Y-89730158D01*
X38132441Y-89730158D02*
X38189584Y-89787301D01*
X38189584Y-89787301D02*
X38303869Y-89844443D01*
X38303869Y-89844443D02*
X38532441Y-89844443D01*
X38532441Y-89844443D02*
X38646726Y-89787301D01*
X38646726Y-89787301D02*
X38703869Y-89730158D01*
X38703869Y-89730158D02*
X38761012Y-89615872D01*
X38761012Y-89615872D02*
X38761012Y-88644443D01*
X39961012Y-89844443D02*
X39275298Y-89844443D01*
X39618155Y-89844443D02*
X39618155Y-88644443D01*
X39618155Y-88644443D02*
X39503869Y-88815872D01*
X39503869Y-88815872D02*
X39389584Y-88930158D01*
X39389584Y-88930158D02*
X39275298Y-88987301D01*
D11*
X135827679Y-60252960D02*
X136399107Y-60252960D01*
X136113393Y-61252960D02*
X136113393Y-60252960D01*
X136732441Y-61252960D02*
X136732441Y-60252960D01*
X136732441Y-60252960D02*
X137113393Y-60252960D01*
X137113393Y-60252960D02*
X137208631Y-60300579D01*
X137208631Y-60300579D02*
X137256250Y-60348198D01*
X137256250Y-60348198D02*
X137303869Y-60443436D01*
X137303869Y-60443436D02*
X137303869Y-60586293D01*
X137303869Y-60586293D02*
X137256250Y-60681531D01*
X137256250Y-60681531D02*
X137208631Y-60729150D01*
X137208631Y-60729150D02*
X137113393Y-60776769D01*
X137113393Y-60776769D02*
X136732441Y-60776769D01*
X137684822Y-60348198D02*
X137732441Y-60300579D01*
X137732441Y-60300579D02*
X137827679Y-60252960D01*
X137827679Y-60252960D02*
X138065774Y-60252960D01*
X138065774Y-60252960D02*
X138161012Y-60300579D01*
X138161012Y-60300579D02*
X138208631Y-60348198D01*
X138208631Y-60348198D02*
X138256250Y-60443436D01*
X138256250Y-60443436D02*
X138256250Y-60538674D01*
X138256250Y-60538674D02*
X138208631Y-60681531D01*
X138208631Y-60681531D02*
X137637203Y-61252960D01*
X137637203Y-61252960D02*
X138256250Y-61252960D01*
X37822917Y-92657721D02*
X37775298Y-92705341D01*
X37775298Y-92705341D02*
X37632441Y-92752960D01*
X37632441Y-92752960D02*
X37537203Y-92752960D01*
X37537203Y-92752960D02*
X37394346Y-92705341D01*
X37394346Y-92705341D02*
X37299108Y-92610102D01*
X37299108Y-92610102D02*
X37251489Y-92514864D01*
X37251489Y-92514864D02*
X37203870Y-92324388D01*
X37203870Y-92324388D02*
X37203870Y-92181531D01*
X37203870Y-92181531D02*
X37251489Y-91991055D01*
X37251489Y-91991055D02*
X37299108Y-91895817D01*
X37299108Y-91895817D02*
X37394346Y-91800579D01*
X37394346Y-91800579D02*
X37537203Y-91752960D01*
X37537203Y-91752960D02*
X37632441Y-91752960D01*
X37632441Y-91752960D02*
X37775298Y-91800579D01*
X37775298Y-91800579D02*
X37822917Y-91848198D01*
X38680060Y-91752960D02*
X38489584Y-91752960D01*
X38489584Y-91752960D02*
X38394346Y-91800579D01*
X38394346Y-91800579D02*
X38346727Y-91848198D01*
X38346727Y-91848198D02*
X38251489Y-91991055D01*
X38251489Y-91991055D02*
X38203870Y-92181531D01*
X38203870Y-92181531D02*
X38203870Y-92562483D01*
X38203870Y-92562483D02*
X38251489Y-92657721D01*
X38251489Y-92657721D02*
X38299108Y-92705341D01*
X38299108Y-92705341D02*
X38394346Y-92752960D01*
X38394346Y-92752960D02*
X38584822Y-92752960D01*
X38584822Y-92752960D02*
X38680060Y-92705341D01*
X38680060Y-92705341D02*
X38727679Y-92657721D01*
X38727679Y-92657721D02*
X38775298Y-92562483D01*
X38775298Y-92562483D02*
X38775298Y-92324388D01*
X38775298Y-92324388D02*
X38727679Y-92229150D01*
X38727679Y-92229150D02*
X38680060Y-92181531D01*
X38680060Y-92181531D02*
X38584822Y-92133912D01*
X38584822Y-92133912D02*
X38394346Y-92133912D01*
X38394346Y-92133912D02*
X38299108Y-92181531D01*
X38299108Y-92181531D02*
X38251489Y-92229150D01*
X38251489Y-92229150D02*
X38203870Y-92324388D01*
X33127679Y-80252960D02*
X33699107Y-80252960D01*
X33413393Y-81252960D02*
X33413393Y-80252960D01*
X34032441Y-81252960D02*
X34032441Y-80252960D01*
X34032441Y-80252960D02*
X34413393Y-80252960D01*
X34413393Y-80252960D02*
X34508631Y-80300579D01*
X34508631Y-80300579D02*
X34556250Y-80348198D01*
X34556250Y-80348198D02*
X34603869Y-80443436D01*
X34603869Y-80443436D02*
X34603869Y-80586293D01*
X34603869Y-80586293D02*
X34556250Y-80681531D01*
X34556250Y-80681531D02*
X34508631Y-80729150D01*
X34508631Y-80729150D02*
X34413393Y-80776769D01*
X34413393Y-80776769D02*
X34032441Y-80776769D01*
X35461012Y-80586293D02*
X35461012Y-81252960D01*
X35222917Y-80205341D02*
X34984822Y-80919626D01*
X34984822Y-80919626D02*
X35603869Y-80919626D01*
X139672917Y-54657721D02*
X139625298Y-54705341D01*
X139625298Y-54705341D02*
X139482441Y-54752960D01*
X139482441Y-54752960D02*
X139387203Y-54752960D01*
X139387203Y-54752960D02*
X139244346Y-54705341D01*
X139244346Y-54705341D02*
X139149108Y-54610102D01*
X139149108Y-54610102D02*
X139101489Y-54514864D01*
X139101489Y-54514864D02*
X139053870Y-54324388D01*
X139053870Y-54324388D02*
X139053870Y-54181531D01*
X139053870Y-54181531D02*
X139101489Y-53991055D01*
X139101489Y-53991055D02*
X139149108Y-53895817D01*
X139149108Y-53895817D02*
X139244346Y-53800579D01*
X139244346Y-53800579D02*
X139387203Y-53752960D01*
X139387203Y-53752960D02*
X139482441Y-53752960D01*
X139482441Y-53752960D02*
X139625298Y-53800579D01*
X139625298Y-53800579D02*
X139672917Y-53848198D01*
X140625298Y-54752960D02*
X140053870Y-54752960D01*
X140339584Y-54752960D02*
X140339584Y-53752960D01*
X140339584Y-53752960D02*
X140244346Y-53895817D01*
X140244346Y-53895817D02*
X140149108Y-53991055D01*
X140149108Y-53991055D02*
X140053870Y-54038674D01*
X34022917Y-83252960D02*
X33689584Y-82776769D01*
X33451489Y-83252960D02*
X33451489Y-82252960D01*
X33451489Y-82252960D02*
X33832441Y-82252960D01*
X33832441Y-82252960D02*
X33927679Y-82300579D01*
X33927679Y-82300579D02*
X33975298Y-82348198D01*
X33975298Y-82348198D02*
X34022917Y-82443436D01*
X34022917Y-82443436D02*
X34022917Y-82586293D01*
X34022917Y-82586293D02*
X33975298Y-82681531D01*
X33975298Y-82681531D02*
X33927679Y-82729150D01*
X33927679Y-82729150D02*
X33832441Y-82776769D01*
X33832441Y-82776769D02*
X33451489Y-82776769D01*
X34975298Y-83252960D02*
X34403870Y-83252960D01*
X34689584Y-83252960D02*
X34689584Y-82252960D01*
X34689584Y-82252960D02*
X34594346Y-82395817D01*
X34594346Y-82395817D02*
X34499108Y-82491055D01*
X34499108Y-82491055D02*
X34403870Y-82538674D01*
X127946726Y-54657721D02*
X127899107Y-54705341D01*
X127899107Y-54705341D02*
X127756250Y-54752960D01*
X127756250Y-54752960D02*
X127661012Y-54752960D01*
X127661012Y-54752960D02*
X127518155Y-54705341D01*
X127518155Y-54705341D02*
X127422917Y-54610102D01*
X127422917Y-54610102D02*
X127375298Y-54514864D01*
X127375298Y-54514864D02*
X127327679Y-54324388D01*
X127327679Y-54324388D02*
X127327679Y-54181531D01*
X127327679Y-54181531D02*
X127375298Y-53991055D01*
X127375298Y-53991055D02*
X127422917Y-53895817D01*
X127422917Y-53895817D02*
X127518155Y-53800579D01*
X127518155Y-53800579D02*
X127661012Y-53752960D01*
X127661012Y-53752960D02*
X127756250Y-53752960D01*
X127756250Y-53752960D02*
X127899107Y-53800579D01*
X127899107Y-53800579D02*
X127946726Y-53848198D01*
X128899107Y-54752960D02*
X128327679Y-54752960D01*
X128613393Y-54752960D02*
X128613393Y-53752960D01*
X128613393Y-53752960D02*
X128518155Y-53895817D01*
X128518155Y-53895817D02*
X128422917Y-53991055D01*
X128422917Y-53991055D02*
X128327679Y-54038674D01*
X129280060Y-53848198D02*
X129327679Y-53800579D01*
X129327679Y-53800579D02*
X129422917Y-53752960D01*
X129422917Y-53752960D02*
X129661012Y-53752960D01*
X129661012Y-53752960D02*
X129756250Y-53800579D01*
X129756250Y-53800579D02*
X129803869Y-53848198D01*
X129803869Y-53848198D02*
X129851488Y-53943436D01*
X129851488Y-53943436D02*
X129851488Y-54038674D01*
X129851488Y-54038674D02*
X129803869Y-54181531D01*
X129803869Y-54181531D02*
X129232441Y-54752960D01*
X129232441Y-54752960D02*
X129851488Y-54752960D01*
X133946726Y-54657721D02*
X133899107Y-54705341D01*
X133899107Y-54705341D02*
X133756250Y-54752960D01*
X133756250Y-54752960D02*
X133661012Y-54752960D01*
X133661012Y-54752960D02*
X133518155Y-54705341D01*
X133518155Y-54705341D02*
X133422917Y-54610102D01*
X133422917Y-54610102D02*
X133375298Y-54514864D01*
X133375298Y-54514864D02*
X133327679Y-54324388D01*
X133327679Y-54324388D02*
X133327679Y-54181531D01*
X133327679Y-54181531D02*
X133375298Y-53991055D01*
X133375298Y-53991055D02*
X133422917Y-53895817D01*
X133422917Y-53895817D02*
X133518155Y-53800579D01*
X133518155Y-53800579D02*
X133661012Y-53752960D01*
X133661012Y-53752960D02*
X133756250Y-53752960D01*
X133756250Y-53752960D02*
X133899107Y-53800579D01*
X133899107Y-53800579D02*
X133946726Y-53848198D01*
X134899107Y-54752960D02*
X134327679Y-54752960D01*
X134613393Y-54752960D02*
X134613393Y-53752960D01*
X134613393Y-53752960D02*
X134518155Y-53895817D01*
X134518155Y-53895817D02*
X134422917Y-53991055D01*
X134422917Y-53991055D02*
X134327679Y-54038674D01*
X135851488Y-54752960D02*
X135280060Y-54752960D01*
X135565774Y-54752960D02*
X135565774Y-53752960D01*
X135565774Y-53752960D02*
X135470536Y-53895817D01*
X135470536Y-53895817D02*
X135375298Y-53991055D01*
X135375298Y-53991055D02*
X135280060Y-54038674D01*
X141256250Y-60729150D02*
X140922917Y-60729150D01*
X140922917Y-61252960D02*
X140922917Y-60252960D01*
X140922917Y-60252960D02*
X141399107Y-60252960D01*
X142113393Y-60729150D02*
X142256250Y-60776769D01*
X142256250Y-60776769D02*
X142303869Y-60824388D01*
X142303869Y-60824388D02*
X142351488Y-60919626D01*
X142351488Y-60919626D02*
X142351488Y-61062483D01*
X142351488Y-61062483D02*
X142303869Y-61157721D01*
X142303869Y-61157721D02*
X142256250Y-61205341D01*
X142256250Y-61205341D02*
X142161012Y-61252960D01*
X142161012Y-61252960D02*
X141780060Y-61252960D01*
X141780060Y-61252960D02*
X141780060Y-60252960D01*
X141780060Y-60252960D02*
X142113393Y-60252960D01*
X142113393Y-60252960D02*
X142208631Y-60300579D01*
X142208631Y-60300579D02*
X142256250Y-60348198D01*
X142256250Y-60348198D02*
X142303869Y-60443436D01*
X142303869Y-60443436D02*
X142303869Y-60538674D01*
X142303869Y-60538674D02*
X142256250Y-60633912D01*
X142256250Y-60633912D02*
X142208631Y-60681531D01*
X142208631Y-60681531D02*
X142113393Y-60729150D01*
X142113393Y-60729150D02*
X141780060Y-60729150D01*
X143303869Y-61252960D02*
X142732441Y-61252960D01*
X143018155Y-61252960D02*
X143018155Y-60252960D01*
X143018155Y-60252960D02*
X142922917Y-60395817D01*
X142922917Y-60395817D02*
X142827679Y-60491055D01*
X142827679Y-60491055D02*
X142732441Y-60538674D01*
X39746726Y-84657721D02*
X39699107Y-84705341D01*
X39699107Y-84705341D02*
X39556250Y-84752960D01*
X39556250Y-84752960D02*
X39461012Y-84752960D01*
X39461012Y-84752960D02*
X39318155Y-84705341D01*
X39318155Y-84705341D02*
X39222917Y-84610102D01*
X39222917Y-84610102D02*
X39175298Y-84514864D01*
X39175298Y-84514864D02*
X39127679Y-84324388D01*
X39127679Y-84324388D02*
X39127679Y-84181531D01*
X39127679Y-84181531D02*
X39175298Y-83991055D01*
X39175298Y-83991055D02*
X39222917Y-83895817D01*
X39222917Y-83895817D02*
X39318155Y-83800579D01*
X39318155Y-83800579D02*
X39461012Y-83752960D01*
X39461012Y-83752960D02*
X39556250Y-83752960D01*
X39556250Y-83752960D02*
X39699107Y-83800579D01*
X39699107Y-83800579D02*
X39746726Y-83848198D01*
X40699107Y-84752960D02*
X40127679Y-84752960D01*
X40413393Y-84752960D02*
X40413393Y-83752960D01*
X40413393Y-83752960D02*
X40318155Y-83895817D01*
X40318155Y-83895817D02*
X40222917Y-83991055D01*
X40222917Y-83991055D02*
X40127679Y-84038674D01*
X41318155Y-83752960D02*
X41413393Y-83752960D01*
X41413393Y-83752960D02*
X41508631Y-83800579D01*
X41508631Y-83800579D02*
X41556250Y-83848198D01*
X41556250Y-83848198D02*
X41603869Y-83943436D01*
X41603869Y-83943436D02*
X41651488Y-84133912D01*
X41651488Y-84133912D02*
X41651488Y-84372007D01*
X41651488Y-84372007D02*
X41603869Y-84562483D01*
X41603869Y-84562483D02*
X41556250Y-84657721D01*
X41556250Y-84657721D02*
X41508631Y-84705341D01*
X41508631Y-84705341D02*
X41413393Y-84752960D01*
X41413393Y-84752960D02*
X41318155Y-84752960D01*
X41318155Y-84752960D02*
X41222917Y-84705341D01*
X41222917Y-84705341D02*
X41175298Y-84657721D01*
X41175298Y-84657721D02*
X41127679Y-84562483D01*
X41127679Y-84562483D02*
X41080060Y-84372007D01*
X41080060Y-84372007D02*
X41080060Y-84133912D01*
X41080060Y-84133912D02*
X41127679Y-83943436D01*
X41127679Y-83943436D02*
X41175298Y-83848198D01*
X41175298Y-83848198D02*
X41222917Y-83800579D01*
X41222917Y-83800579D02*
X41318155Y-83752960D01*
X121827679Y-56752960D02*
X122399107Y-56752960D01*
X122113393Y-57752960D02*
X122113393Y-56752960D01*
X122732441Y-57752960D02*
X122732441Y-56752960D01*
X122732441Y-56752960D02*
X123113393Y-56752960D01*
X123113393Y-56752960D02*
X123208631Y-56800579D01*
X123208631Y-56800579D02*
X123256250Y-56848198D01*
X123256250Y-56848198D02*
X123303869Y-56943436D01*
X123303869Y-56943436D02*
X123303869Y-57086293D01*
X123303869Y-57086293D02*
X123256250Y-57181531D01*
X123256250Y-57181531D02*
X123208631Y-57229150D01*
X123208631Y-57229150D02*
X123113393Y-57276769D01*
X123113393Y-57276769D02*
X122732441Y-57276769D01*
X123637203Y-56752960D02*
X124256250Y-56752960D01*
X124256250Y-56752960D02*
X123922917Y-57133912D01*
X123922917Y-57133912D02*
X124065774Y-57133912D01*
X124065774Y-57133912D02*
X124161012Y-57181531D01*
X124161012Y-57181531D02*
X124208631Y-57229150D01*
X124208631Y-57229150D02*
X124256250Y-57324388D01*
X124256250Y-57324388D02*
X124256250Y-57562483D01*
X124256250Y-57562483D02*
X124208631Y-57657721D01*
X124208631Y-57657721D02*
X124161012Y-57705341D01*
X124161012Y-57705341D02*
X124065774Y-57752960D01*
X124065774Y-57752960D02*
X123780060Y-57752960D01*
X123780060Y-57752960D02*
X123684822Y-57705341D01*
X123684822Y-57705341D02*
X123637203Y-57657721D01*
X28622917Y-92657721D02*
X28575298Y-92705341D01*
X28575298Y-92705341D02*
X28432441Y-92752960D01*
X28432441Y-92752960D02*
X28337203Y-92752960D01*
X28337203Y-92752960D02*
X28194346Y-92705341D01*
X28194346Y-92705341D02*
X28099108Y-92610102D01*
X28099108Y-92610102D02*
X28051489Y-92514864D01*
X28051489Y-92514864D02*
X28003870Y-92324388D01*
X28003870Y-92324388D02*
X28003870Y-92181531D01*
X28003870Y-92181531D02*
X28051489Y-91991055D01*
X28051489Y-91991055D02*
X28099108Y-91895817D01*
X28099108Y-91895817D02*
X28194346Y-91800579D01*
X28194346Y-91800579D02*
X28337203Y-91752960D01*
X28337203Y-91752960D02*
X28432441Y-91752960D01*
X28432441Y-91752960D02*
X28575298Y-91800579D01*
X28575298Y-91800579D02*
X28622917Y-91848198D01*
X29194346Y-92181531D02*
X29099108Y-92133912D01*
X29099108Y-92133912D02*
X29051489Y-92086293D01*
X29051489Y-92086293D02*
X29003870Y-91991055D01*
X29003870Y-91991055D02*
X29003870Y-91943436D01*
X29003870Y-91943436D02*
X29051489Y-91848198D01*
X29051489Y-91848198D02*
X29099108Y-91800579D01*
X29099108Y-91800579D02*
X29194346Y-91752960D01*
X29194346Y-91752960D02*
X29384822Y-91752960D01*
X29384822Y-91752960D02*
X29480060Y-91800579D01*
X29480060Y-91800579D02*
X29527679Y-91848198D01*
X29527679Y-91848198D02*
X29575298Y-91943436D01*
X29575298Y-91943436D02*
X29575298Y-91991055D01*
X29575298Y-91991055D02*
X29527679Y-92086293D01*
X29527679Y-92086293D02*
X29480060Y-92133912D01*
X29480060Y-92133912D02*
X29384822Y-92181531D01*
X29384822Y-92181531D02*
X29194346Y-92181531D01*
X29194346Y-92181531D02*
X29099108Y-92229150D01*
X29099108Y-92229150D02*
X29051489Y-92276769D01*
X29051489Y-92276769D02*
X29003870Y-92372007D01*
X29003870Y-92372007D02*
X29003870Y-92562483D01*
X29003870Y-92562483D02*
X29051489Y-92657721D01*
X29051489Y-92657721D02*
X29099108Y-92705341D01*
X29099108Y-92705341D02*
X29194346Y-92752960D01*
X29194346Y-92752960D02*
X29384822Y-92752960D01*
X29384822Y-92752960D02*
X29480060Y-92705341D01*
X29480060Y-92705341D02*
X29527679Y-92657721D01*
X29527679Y-92657721D02*
X29575298Y-92562483D01*
X29575298Y-92562483D02*
X29575298Y-92372007D01*
X29575298Y-92372007D02*
X29527679Y-92276769D01*
X29527679Y-92276769D02*
X29480060Y-92229150D01*
X29480060Y-92229150D02*
X29384822Y-92181531D01*
X25947604Y-87466367D02*
X25995224Y-87513986D01*
X25995224Y-87513986D02*
X26042843Y-87656843D01*
X26042843Y-87656843D02*
X26042843Y-87752081D01*
X26042843Y-87752081D02*
X25995224Y-87894938D01*
X25995224Y-87894938D02*
X25899985Y-87990176D01*
X25899985Y-87990176D02*
X25804747Y-88037795D01*
X25804747Y-88037795D02*
X25614271Y-88085414D01*
X25614271Y-88085414D02*
X25471414Y-88085414D01*
X25471414Y-88085414D02*
X25280938Y-88037795D01*
X25280938Y-88037795D02*
X25185700Y-87990176D01*
X25185700Y-87990176D02*
X25090462Y-87894938D01*
X25090462Y-87894938D02*
X25042843Y-87752081D01*
X25042843Y-87752081D02*
X25042843Y-87656843D01*
X25042843Y-87656843D02*
X25090462Y-87513986D01*
X25090462Y-87513986D02*
X25138081Y-87466367D01*
X25138081Y-87085414D02*
X25090462Y-87037795D01*
X25090462Y-87037795D02*
X25042843Y-86942557D01*
X25042843Y-86942557D02*
X25042843Y-86704462D01*
X25042843Y-86704462D02*
X25090462Y-86609224D01*
X25090462Y-86609224D02*
X25138081Y-86561605D01*
X25138081Y-86561605D02*
X25233319Y-86513986D01*
X25233319Y-86513986D02*
X25328557Y-86513986D01*
X25328557Y-86513986D02*
X25471414Y-86561605D01*
X25471414Y-86561605D02*
X26042843Y-87133033D01*
X26042843Y-87133033D02*
X26042843Y-86513986D01*
X28827679Y-78752960D02*
X29399107Y-78752960D01*
X29113393Y-79752960D02*
X29113393Y-78752960D01*
X29732441Y-79752960D02*
X29732441Y-78752960D01*
X29732441Y-78752960D02*
X30113393Y-78752960D01*
X30113393Y-78752960D02*
X30208631Y-78800579D01*
X30208631Y-78800579D02*
X30256250Y-78848198D01*
X30256250Y-78848198D02*
X30303869Y-78943436D01*
X30303869Y-78943436D02*
X30303869Y-79086293D01*
X30303869Y-79086293D02*
X30256250Y-79181531D01*
X30256250Y-79181531D02*
X30208631Y-79229150D01*
X30208631Y-79229150D02*
X30113393Y-79276769D01*
X30113393Y-79276769D02*
X29732441Y-79276769D01*
X31208631Y-78752960D02*
X30732441Y-78752960D01*
X30732441Y-78752960D02*
X30684822Y-79229150D01*
X30684822Y-79229150D02*
X30732441Y-79181531D01*
X30732441Y-79181531D02*
X30827679Y-79133912D01*
X30827679Y-79133912D02*
X31065774Y-79133912D01*
X31065774Y-79133912D02*
X31161012Y-79181531D01*
X31161012Y-79181531D02*
X31208631Y-79229150D01*
X31208631Y-79229150D02*
X31256250Y-79324388D01*
X31256250Y-79324388D02*
X31256250Y-79562483D01*
X31256250Y-79562483D02*
X31208631Y-79657721D01*
X31208631Y-79657721D02*
X31161012Y-79705341D01*
X31161012Y-79705341D02*
X31065774Y-79752960D01*
X31065774Y-79752960D02*
X30827679Y-79752960D01*
X30827679Y-79752960D02*
X30732441Y-79705341D01*
X30732441Y-79705341D02*
X30684822Y-79657721D01*
X26422917Y-92657721D02*
X26375298Y-92705341D01*
X26375298Y-92705341D02*
X26232441Y-92752960D01*
X26232441Y-92752960D02*
X26137203Y-92752960D01*
X26137203Y-92752960D02*
X25994346Y-92705341D01*
X25994346Y-92705341D02*
X25899108Y-92610102D01*
X25899108Y-92610102D02*
X25851489Y-92514864D01*
X25851489Y-92514864D02*
X25803870Y-92324388D01*
X25803870Y-92324388D02*
X25803870Y-92181531D01*
X25803870Y-92181531D02*
X25851489Y-91991055D01*
X25851489Y-91991055D02*
X25899108Y-91895817D01*
X25899108Y-91895817D02*
X25994346Y-91800579D01*
X25994346Y-91800579D02*
X26137203Y-91752960D01*
X26137203Y-91752960D02*
X26232441Y-91752960D01*
X26232441Y-91752960D02*
X26375298Y-91800579D01*
X26375298Y-91800579D02*
X26422917Y-91848198D01*
X26756251Y-91752960D02*
X27422917Y-91752960D01*
X27422917Y-91752960D02*
X26994346Y-92752960D01*
X23542843Y-88561605D02*
X23542843Y-87990177D01*
X24542843Y-88275891D02*
X23542843Y-88275891D01*
X24542843Y-87656843D02*
X23542843Y-87656843D01*
X23542843Y-87656843D02*
X23542843Y-87275891D01*
X23542843Y-87275891D02*
X23590462Y-87180653D01*
X23590462Y-87180653D02*
X23638081Y-87133034D01*
X23638081Y-87133034D02*
X23733319Y-87085415D01*
X23733319Y-87085415D02*
X23876176Y-87085415D01*
X23876176Y-87085415D02*
X23971414Y-87133034D01*
X23971414Y-87133034D02*
X24019033Y-87180653D01*
X24019033Y-87180653D02*
X24066652Y-87275891D01*
X24066652Y-87275891D02*
X24066652Y-87656843D01*
X24542843Y-86133034D02*
X24542843Y-86704462D01*
X24542843Y-86418748D02*
X23542843Y-86418748D01*
X23542843Y-86418748D02*
X23685700Y-86513986D01*
X23685700Y-86513986D02*
X23780938Y-86609224D01*
X23780938Y-86609224D02*
X23828557Y-86704462D01*
X28422917Y-82557721D02*
X28375298Y-82605341D01*
X28375298Y-82605341D02*
X28232441Y-82652960D01*
X28232441Y-82652960D02*
X28137203Y-82652960D01*
X28137203Y-82652960D02*
X27994346Y-82605341D01*
X27994346Y-82605341D02*
X27899108Y-82510102D01*
X27899108Y-82510102D02*
X27851489Y-82414864D01*
X27851489Y-82414864D02*
X27803870Y-82224388D01*
X27803870Y-82224388D02*
X27803870Y-82081531D01*
X27803870Y-82081531D02*
X27851489Y-81891055D01*
X27851489Y-81891055D02*
X27899108Y-81795817D01*
X27899108Y-81795817D02*
X27994346Y-81700579D01*
X27994346Y-81700579D02*
X28137203Y-81652960D01*
X28137203Y-81652960D02*
X28232441Y-81652960D01*
X28232441Y-81652960D02*
X28375298Y-81700579D01*
X28375298Y-81700579D02*
X28422917Y-81748198D01*
X29327679Y-81652960D02*
X28851489Y-81652960D01*
X28851489Y-81652960D02*
X28803870Y-82129150D01*
X28803870Y-82129150D02*
X28851489Y-82081531D01*
X28851489Y-82081531D02*
X28946727Y-82033912D01*
X28946727Y-82033912D02*
X29184822Y-82033912D01*
X29184822Y-82033912D02*
X29280060Y-82081531D01*
X29280060Y-82081531D02*
X29327679Y-82129150D01*
X29327679Y-82129150D02*
X29375298Y-82224388D01*
X29375298Y-82224388D02*
X29375298Y-82462483D01*
X29375298Y-82462483D02*
X29327679Y-82557721D01*
X29327679Y-82557721D02*
X29280060Y-82605341D01*
X29280060Y-82605341D02*
X29184822Y-82652960D01*
X29184822Y-82652960D02*
X28946727Y-82652960D01*
X28946727Y-82652960D02*
X28851489Y-82605341D01*
X28851489Y-82605341D02*
X28803870Y-82557721D01*
X36422917Y-95667407D02*
X36375298Y-95715027D01*
X36375298Y-95715027D02*
X36232441Y-95762646D01*
X36232441Y-95762646D02*
X36137203Y-95762646D01*
X36137203Y-95762646D02*
X35994346Y-95715027D01*
X35994346Y-95715027D02*
X35899108Y-95619788D01*
X35899108Y-95619788D02*
X35851489Y-95524550D01*
X35851489Y-95524550D02*
X35803870Y-95334074D01*
X35803870Y-95334074D02*
X35803870Y-95191217D01*
X35803870Y-95191217D02*
X35851489Y-95000741D01*
X35851489Y-95000741D02*
X35899108Y-94905503D01*
X35899108Y-94905503D02*
X35994346Y-94810265D01*
X35994346Y-94810265D02*
X36137203Y-94762646D01*
X36137203Y-94762646D02*
X36232441Y-94762646D01*
X36232441Y-94762646D02*
X36375298Y-94810265D01*
X36375298Y-94810265D02*
X36422917Y-94857884D01*
X36756251Y-94762646D02*
X37375298Y-94762646D01*
X37375298Y-94762646D02*
X37041965Y-95143598D01*
X37041965Y-95143598D02*
X37184822Y-95143598D01*
X37184822Y-95143598D02*
X37280060Y-95191217D01*
X37280060Y-95191217D02*
X37327679Y-95238836D01*
X37327679Y-95238836D02*
X37375298Y-95334074D01*
X37375298Y-95334074D02*
X37375298Y-95572169D01*
X37375298Y-95572169D02*
X37327679Y-95667407D01*
X37327679Y-95667407D02*
X37280060Y-95715027D01*
X37280060Y-95715027D02*
X37184822Y-95762646D01*
X37184822Y-95762646D02*
X36899108Y-95762646D01*
X36899108Y-95762646D02*
X36803870Y-95715027D01*
X36803870Y-95715027D02*
X36756251Y-95667407D01*
X24947604Y-83466367D02*
X24995224Y-83513986D01*
X24995224Y-83513986D02*
X25042843Y-83656843D01*
X25042843Y-83656843D02*
X25042843Y-83752081D01*
X25042843Y-83752081D02*
X24995224Y-83894938D01*
X24995224Y-83894938D02*
X24899985Y-83990176D01*
X24899985Y-83990176D02*
X24804747Y-84037795D01*
X24804747Y-84037795D02*
X24614271Y-84085414D01*
X24614271Y-84085414D02*
X24471414Y-84085414D01*
X24471414Y-84085414D02*
X24280938Y-84037795D01*
X24280938Y-84037795D02*
X24185700Y-83990176D01*
X24185700Y-83990176D02*
X24090462Y-83894938D01*
X24090462Y-83894938D02*
X24042843Y-83752081D01*
X24042843Y-83752081D02*
X24042843Y-83656843D01*
X24042843Y-83656843D02*
X24090462Y-83513986D01*
X24090462Y-83513986D02*
X24138081Y-83466367D01*
X25042843Y-82990176D02*
X25042843Y-82799700D01*
X25042843Y-82799700D02*
X24995224Y-82704462D01*
X24995224Y-82704462D02*
X24947604Y-82656843D01*
X24947604Y-82656843D02*
X24804747Y-82561605D01*
X24804747Y-82561605D02*
X24614271Y-82513986D01*
X24614271Y-82513986D02*
X24233319Y-82513986D01*
X24233319Y-82513986D02*
X24138081Y-82561605D01*
X24138081Y-82561605D02*
X24090462Y-82609224D01*
X24090462Y-82609224D02*
X24042843Y-82704462D01*
X24042843Y-82704462D02*
X24042843Y-82894938D01*
X24042843Y-82894938D02*
X24090462Y-82990176D01*
X24090462Y-82990176D02*
X24138081Y-83037795D01*
X24138081Y-83037795D02*
X24233319Y-83085414D01*
X24233319Y-83085414D02*
X24471414Y-83085414D01*
X24471414Y-83085414D02*
X24566652Y-83037795D01*
X24566652Y-83037795D02*
X24614271Y-82990176D01*
X24614271Y-82990176D02*
X24661890Y-82894938D01*
X24661890Y-82894938D02*
X24661890Y-82704462D01*
X24661890Y-82704462D02*
X24614271Y-82609224D01*
X24614271Y-82609224D02*
X24566652Y-82561605D01*
X24566652Y-82561605D02*
X24471414Y-82513986D01*
X130827679Y-53752960D02*
X130827679Y-54562483D01*
X130827679Y-54562483D02*
X130875298Y-54657721D01*
X130875298Y-54657721D02*
X130922917Y-54705341D01*
X130922917Y-54705341D02*
X131018155Y-54752960D01*
X131018155Y-54752960D02*
X131208631Y-54752960D01*
X131208631Y-54752960D02*
X131303869Y-54705341D01*
X131303869Y-54705341D02*
X131351488Y-54657721D01*
X131351488Y-54657721D02*
X131399107Y-54562483D01*
X131399107Y-54562483D02*
X131399107Y-53752960D01*
X131827679Y-53848198D02*
X131875298Y-53800579D01*
X131875298Y-53800579D02*
X131970536Y-53752960D01*
X131970536Y-53752960D02*
X132208631Y-53752960D01*
X132208631Y-53752960D02*
X132303869Y-53800579D01*
X132303869Y-53800579D02*
X132351488Y-53848198D01*
X132351488Y-53848198D02*
X132399107Y-53943436D01*
X132399107Y-53943436D02*
X132399107Y-54038674D01*
X132399107Y-54038674D02*
X132351488Y-54181531D01*
X132351488Y-54181531D02*
X131780060Y-54752960D01*
X131780060Y-54752960D02*
X132399107Y-54752960D01*
%TO.C,D13*%
D13*
X248377084Y-91209701D02*
X248377084Y-87199701D01*
X248377084Y-91209701D02*
X250377084Y-91209701D01*
X250377084Y-91209701D02*
X250377084Y-87199701D01*
%TO.C,D6*%
X155508334Y-72159701D02*
X155508334Y-68149701D01*
X155508334Y-72159701D02*
X157508334Y-72159701D01*
X157508334Y-72159701D02*
X157508334Y-68149701D01*
%TO.C,D9*%
X98358334Y-72159701D02*
X98358334Y-68149701D01*
X98358334Y-72159701D02*
X100358334Y-72159701D01*
X100358334Y-72159701D02*
X100358334Y-68149701D01*
%TO.C,D26*%
X198370834Y-110259701D02*
X198370834Y-106249701D01*
X198370834Y-110259701D02*
X200370834Y-110259701D01*
X200370834Y-110259701D02*
X200370834Y-106249701D01*
%TO.C,D17*%
X169795834Y-91209701D02*
X169795834Y-87199701D01*
X169795834Y-91209701D02*
X171795834Y-91209701D01*
X171795834Y-91209701D02*
X171795834Y-87199701D01*
%TO.C,D36*%
X226945834Y-129309701D02*
X226945834Y-125299701D01*
X226945834Y-129309701D02*
X228945834Y-129309701D01*
X228945834Y-129309701D02*
X228945834Y-125299701D01*
%TO.C,D3*%
X212658334Y-72159701D02*
X212658334Y-68149701D01*
X212658334Y-72159701D02*
X214658334Y-72159701D01*
X214658334Y-72159701D02*
X214658334Y-68149701D01*
%TO.C,J1*%
D14*
X143554334Y-54557180D02*
X143554334Y-57887101D01*
X143554334Y-57887101D02*
X144545795Y-57887101D01*
X149349406Y-53137302D02*
X144617262Y-53137302D01*
X149420873Y-57887101D02*
X150412334Y-57887101D01*
X150412334Y-57887101D02*
X150412334Y-54557180D01*
D15*
X151964334Y-56712201D02*
G75*
G02*
X151202334Y-56712201I-381000J0D01*
G01*
X151202334Y-56712201D02*
G75*
G02*
X151964334Y-56712201I381000J0D01*
G01*
%TO.C,D15*%
D13*
X207895834Y-91209701D02*
X207895834Y-87199701D01*
X207895834Y-91209701D02*
X209895834Y-91209701D01*
X209895834Y-91209701D02*
X209895834Y-87199701D01*
%TO.C,D8*%
X117408334Y-72159701D02*
X117408334Y-68149701D01*
X117408334Y-72159701D02*
X119408334Y-72159701D01*
X119408334Y-72159701D02*
X119408334Y-68149701D01*
%TO.C,C4*%
X28479584Y-84657537D02*
X28479584Y-84441865D01*
X29199584Y-84657537D02*
X29199584Y-84441865D01*
%TO.C,U1*%
X29979584Y-84189701D02*
X30454584Y-84189701D01*
X29979584Y-84664701D02*
X29979584Y-84189701D01*
X29979584Y-91409701D02*
X29979584Y-90934701D01*
X30454584Y-91409701D02*
X29979584Y-91409701D01*
X36724584Y-84189701D02*
X37199584Y-84189701D01*
X37199584Y-84189701D02*
X37199584Y-84664701D01*
X37199584Y-90934701D02*
X37199584Y-91409701D01*
X37199584Y-91409701D02*
X36724584Y-91409701D01*
X29449584Y-85049701D02*
X29119584Y-85289701D01*
X29119584Y-84809701D01*
X29449584Y-85049701D01*
G36*
X29449584Y-85049701D02*
G01*
X29119584Y-85289701D01*
X29119584Y-84809701D01*
X29449584Y-85049701D01*
G37*
%TO.C,D7*%
X136458334Y-72159701D02*
X136458334Y-68149701D01*
X136458334Y-72159701D02*
X138458334Y-72159701D01*
X138458334Y-72159701D02*
X138458334Y-68149701D01*
%TO.C,D12*%
X36445834Y-72159701D02*
X36445834Y-68149701D01*
X36445834Y-72159701D02*
X38445834Y-72159701D01*
X38445834Y-72159701D02*
X38445834Y-68149701D01*
%TO.C,TP2*%
X138289584Y-58299701D02*
G75*
G02*
X135889584Y-58299701I-1200000J0D01*
G01*
X135889584Y-58299701D02*
G75*
G02*
X138289584Y-58299701I1200000J0D01*
G01*
%TO.C,C6*%
X36197420Y-92189701D02*
X35981748Y-92189701D01*
X36197420Y-92909701D02*
X35981748Y-92909701D01*
%TO.C,D16*%
X188845834Y-91209701D02*
X188845834Y-87199701D01*
X188845834Y-91209701D02*
X190845834Y-91209701D01*
X190845834Y-91209701D02*
X190845834Y-87199701D01*
%TO.C,D22*%
X74545834Y-91209701D02*
X74545834Y-87199701D01*
X74545834Y-91209701D02*
X76545834Y-91209701D01*
X76545834Y-91209701D02*
X76545834Y-87199701D01*
%TO.C,D23*%
X43589584Y-91209701D02*
X43589584Y-87199701D01*
X43589584Y-91209701D02*
X45589584Y-91209701D01*
X45589584Y-91209701D02*
X45589584Y-87199701D01*
%TO.C,D34*%
X38827084Y-110259701D02*
X38827084Y-106249701D01*
X38827084Y-110259701D02*
X40827084Y-110259701D01*
X40827084Y-110259701D02*
X40827084Y-106249701D01*
%TO.C,TP4*%
X32814584Y-80799701D02*
G75*
G02*
X31414584Y-80799701I-700000J0D01*
G01*
X31414584Y-80799701D02*
G75*
G02*
X32814584Y-80799701I700000J0D01*
G01*
%TO.C,D43*%
X34064584Y-129309701D02*
X34064584Y-125299701D01*
X34064584Y-129309701D02*
X36064584Y-129309701D01*
X36064584Y-129309701D02*
X36064584Y-125299701D01*
%TO.C,D40*%
X112645834Y-129309701D02*
X112645834Y-125299701D01*
X112645834Y-129309701D02*
X114645834Y-129309701D01*
X114645834Y-129309701D02*
X114645834Y-125299701D01*
%TO.C,C1*%
X139104584Y-57038449D02*
X139104584Y-57560953D01*
X140574584Y-57038449D02*
X140574584Y-57560953D01*
%TO.C,D11*%
X60258334Y-72159701D02*
X60258334Y-68149701D01*
X60258334Y-72159701D02*
X62258334Y-72159701D01*
X62258334Y-72159701D02*
X62258334Y-68149701D01*
%TO.C,D33*%
X65020834Y-110259701D02*
X65020834Y-106249701D01*
X65020834Y-110259701D02*
X67020834Y-110259701D01*
X67020834Y-110259701D02*
X67020834Y-106249701D01*
%TO.C,D41*%
X84070834Y-129309701D02*
X84070834Y-125299701D01*
X84070834Y-129309701D02*
X86070834Y-129309701D01*
X86070834Y-129309701D02*
X86070834Y-125299701D01*
%TO.C,R1*%
X32505725Y-82575951D02*
X32198443Y-82575951D01*
X32505725Y-83335951D02*
X32198443Y-83335951D01*
%TO.C,C12*%
X128079584Y-57159121D02*
X128079584Y-57440281D01*
X129099584Y-57159121D02*
X129099584Y-57440281D01*
%TO.C,D31*%
X103120834Y-110259701D02*
X103120834Y-106249701D01*
X103120834Y-110259701D02*
X105120834Y-110259701D01*
X105120834Y-110259701D02*
X105120834Y-106249701D01*
%TO.C,C11*%
X134079584Y-57440281D02*
X134079584Y-57159121D01*
X135099584Y-57440281D02*
X135099584Y-57159121D01*
%TO.C,FB1*%
X141529584Y-56900079D02*
X141529584Y-57699323D01*
X142649584Y-56900079D02*
X142649584Y-57699323D01*
%TO.C,C10*%
X37979584Y-84407537D02*
X37979584Y-84191865D01*
X38699584Y-84407537D02*
X38699584Y-84191865D01*
%TO.C,TP3*%
X127289584Y-57299701D02*
G75*
G02*
X124889584Y-57299701I-1200000J0D01*
G01*
X124889584Y-57299701D02*
G75*
G02*
X127289584Y-57299701I1200000J0D01*
G01*
%TO.C,C8*%
X28479584Y-89441865D02*
X28479584Y-89657537D01*
X29199584Y-89441865D02*
X29199584Y-89657537D01*
%TO.C,C2*%
X28479584Y-87407537D02*
X28479584Y-87191865D01*
X29199584Y-87407537D02*
X29199584Y-87191865D01*
%TO.C,D35*%
X248377084Y-129309701D02*
X248377084Y-125299701D01*
X248377084Y-129309701D02*
X250377084Y-129309701D01*
X250377084Y-129309701D02*
X250377084Y-125299701D01*
%TO.C,D39*%
X141220834Y-129309701D02*
X141220834Y-125299701D01*
X141220834Y-129309701D02*
X143220834Y-129309701D01*
X143220834Y-129309701D02*
X143220834Y-125299701D01*
%TO.C,D30*%
X122170834Y-110259701D02*
X122170834Y-106249701D01*
X122170834Y-110259701D02*
X124170834Y-110259701D01*
X124170834Y-110259701D02*
X124170834Y-106249701D01*
%TO.C,D4*%
X193608334Y-72159701D02*
X193608334Y-68149701D01*
X193608334Y-72159701D02*
X195608334Y-72159701D01*
X195608334Y-72159701D02*
X195608334Y-68149701D01*
%TO.C,TP5*%
X30789584Y-80799701D02*
G75*
G02*
X29389584Y-80799701I-700000J0D01*
G01*
X29389584Y-80799701D02*
G75*
G02*
X30789584Y-80799701I700000J0D01*
G01*
%TO.C,D42*%
X55495834Y-129309701D02*
X55495834Y-125299701D01*
X55495834Y-129309701D02*
X57495834Y-129309701D01*
X57495834Y-129309701D02*
X57495834Y-125299701D01*
%TO.C,D2*%
X231708334Y-72159701D02*
X231708334Y-68149701D01*
X231708334Y-72159701D02*
X233708334Y-72159701D01*
X233708334Y-72159701D02*
X233708334Y-68149701D01*
%TO.C,D32*%
X84070834Y-110259701D02*
X84070834Y-106249701D01*
X84070834Y-110259701D02*
X86070834Y-110259701D01*
X86070834Y-110259701D02*
X86070834Y-106249701D01*
%TO.C,D20*%
X112645834Y-91209701D02*
X112645834Y-87199701D01*
X112645834Y-91209701D02*
X114645834Y-91209701D01*
X114645834Y-91209701D02*
X114645834Y-87199701D01*
%TO.C,D25*%
X217420834Y-110259701D02*
X217420834Y-106249701D01*
X217420834Y-110259701D02*
X219420834Y-110259701D01*
X219420834Y-110259701D02*
X219420834Y-106249701D01*
%TO.C,D29*%
X141220834Y-110259701D02*
X141220834Y-106249701D01*
X141220834Y-110259701D02*
X143220834Y-110259701D01*
X143220834Y-110259701D02*
X143220834Y-106249701D01*
%TO.C,C7*%
X26829584Y-89909121D02*
X26829584Y-90190281D01*
X27849584Y-89909121D02*
X27849584Y-90190281D01*
%TO.C,D28*%
X160270834Y-110259701D02*
X160270834Y-106249701D01*
X160270834Y-110259701D02*
X162270834Y-110259701D01*
X162270834Y-110259701D02*
X162270834Y-106249701D01*
%TO.C,TP1*%
X27789584Y-87299701D02*
G75*
G02*
X26389584Y-87299701I-700000J0D01*
G01*
X26389584Y-87299701D02*
G75*
G02*
X27789584Y-87299701I700000J0D01*
G01*
%TO.C,C5*%
X30478670Y-82595951D02*
X30262998Y-82595951D01*
X30478670Y-83315951D02*
X30262998Y-83315951D01*
%TO.C,D5*%
X174558334Y-72159701D02*
X174558334Y-68149701D01*
X174558334Y-72159701D02*
X176558334Y-72159701D01*
X176558334Y-72159701D02*
X176558334Y-68149701D01*
%TO.C,C3*%
X36230164Y-93369387D02*
X35949004Y-93369387D01*
X36230164Y-94389387D02*
X35949004Y-94389387D01*
%TO.C,D19*%
X131695834Y-91209701D02*
X131695834Y-87199701D01*
X131695834Y-91209701D02*
X133695834Y-91209701D01*
X133695834Y-91209701D02*
X133695834Y-87199701D01*
%TO.C,D21*%
X93595834Y-91209701D02*
X93595834Y-87199701D01*
X93595834Y-91209701D02*
X95595834Y-91209701D01*
X95595834Y-91209701D02*
X95595834Y-87199701D01*
%TO.C,D18*%
X150745834Y-91209701D02*
X150745834Y-87199701D01*
X150745834Y-91209701D02*
X152745834Y-91209701D01*
X152745834Y-91209701D02*
X152745834Y-87199701D01*
%TO.C,D27*%
X179320834Y-110259701D02*
X179320834Y-106249701D01*
X179320834Y-110259701D02*
X181320834Y-110259701D01*
X181320834Y-110259701D02*
X181320834Y-106249701D01*
%TO.C,D37*%
X198370834Y-129309701D02*
X198370834Y-125299701D01*
X198370834Y-129309701D02*
X200370834Y-129309701D01*
X200370834Y-129309701D02*
X200370834Y-125299701D01*
%TO.C,D38*%
X169795834Y-129309701D02*
X169795834Y-125299701D01*
X169795834Y-129309701D02*
X171795834Y-129309701D01*
X171795834Y-129309701D02*
X171795834Y-125299701D01*
%TO.C,D10*%
X79308334Y-72159701D02*
X79308334Y-68149701D01*
X79308334Y-72159701D02*
X81308334Y-72159701D01*
X81308334Y-72159701D02*
X81308334Y-68149701D01*
%TO.C,D14*%
X226945834Y-91209701D02*
X226945834Y-87199701D01*
X226945834Y-91209701D02*
X228945834Y-91209701D01*
X228945834Y-91209701D02*
X228945834Y-87199701D01*
%TO.C,C9*%
X26829584Y-84190281D02*
X26829584Y-83909121D01*
X27849584Y-84190281D02*
X27849584Y-83909121D01*
%TO.C,D24*%
X243614584Y-110259701D02*
X243614584Y-106249701D01*
X243614584Y-110259701D02*
X245614584Y-110259701D01*
X245614584Y-110259701D02*
X245614584Y-106249701D01*
%TO.C,D1*%
X250758334Y-72159701D02*
X250758334Y-68149701D01*
X250758334Y-72159701D02*
X252758334Y-72159701D01*
X252758334Y-72159701D02*
X252758334Y-68149701D01*
%TO.C,U2*%
X130679584Y-55739701D02*
X132499584Y-55739701D01*
X130679584Y-55789701D02*
X130679584Y-55739701D01*
X130679584Y-57689701D02*
X130679584Y-56909701D01*
X130679584Y-58859701D02*
X130679584Y-58809701D01*
X132499584Y-55739701D02*
X132499584Y-55789701D01*
X132499584Y-58809701D02*
X132499584Y-58859701D01*
X132499584Y-58859701D02*
X130679584Y-58859701D01*
X133279584Y-59139701D02*
X132799584Y-59139701D01*
X133039584Y-58809701D01*
X133279584Y-59139701D01*
G36*
X133279584Y-59139701D02*
G01*
X132799584Y-59139701D01*
X133039584Y-58809701D01*
X133279584Y-59139701D01*
G37*
%TD*%
M02*
