%TF.GenerationSoftware,KiCad,Pcbnew,9.99.0-5522-g400384cf72*%
%TF.CreationDate,2026-02-12T00:01:38-08:00*%
%TF.ProjectId,amb-kb,616d622d-6b62-42e6-9b69-6361645f7063,rev?*%
%TF.SameCoordinates,Original*%
%TF.FileFunction,Soldermask,Bot*%
%TF.FilePolarity,Negative*%
%FSLAX46Y46*%
G04 Gerber Fmt 4.6, Leading zero omitted, Abs format (unit mm)*
G04 Created by KiCad (PCBNEW 9.99.0-5522-g400384cf72) date 2026-02-12 00:01:38*
%MOMM*%
%LPD*%
G01*
G04 APERTURE LIST*
%ADD10C,1.701800*%
%ADD11C,3.000000*%
%ADD12C,3.987800*%
%ADD13C,3.500000*%
%ADD14C,3.048000*%
G04 APERTURE END LIST*
D10*
%TO.C,MX29*%
X144284584Y-107899701D03*
D11*
X146824584Y-102819701D03*
D12*
X149364584Y-107899701D03*
D11*
X153174584Y-105359701D03*
D10*
X154444584Y-107899701D03*
%TD*%
%TO.C,MX16*%
X191909584Y-88849701D03*
D11*
X194449584Y-83769701D03*
D12*
X196989584Y-88849701D03*
D11*
X200799584Y-86309701D03*
D10*
X202069584Y-88849701D03*
%TD*%
%TO.C,MX1*%
X253822084Y-69799701D03*
D11*
X256362084Y-64719701D03*
D12*
X258902084Y-69799701D03*
D11*
X262712084Y-67259701D03*
D10*
X263982084Y-69799701D03*
%TD*%
%TO.C,MX21*%
X96659584Y-88849701D03*
D11*
X99199584Y-83769701D03*
D12*
X101739584Y-88849701D03*
D11*
X105549584Y-86309701D03*
D10*
X106819584Y-88849701D03*
%TD*%
%TO.C,MX43*%
X37128334Y-126949701D03*
D11*
X39668334Y-121869701D03*
D12*
X42208334Y-126949701D03*
D11*
X46018334Y-124409701D03*
D10*
X47288334Y-126949701D03*
%TD*%
%TO.C,MX6*%
X158572084Y-69799701D03*
D11*
X161112084Y-64719701D03*
D12*
X163652084Y-69799701D03*
D11*
X167462084Y-67259701D03*
D10*
X168732084Y-69799701D03*
%TD*%
%TO.C,MX8*%
X120472084Y-69799701D03*
D11*
X123012084Y-64719701D03*
D12*
X125552084Y-69799701D03*
D11*
X129362084Y-67259701D03*
D10*
X130632084Y-69799701D03*
%TD*%
%TO.C,MX19*%
X134759584Y-88849701D03*
D11*
X137299584Y-83769701D03*
D12*
X139839584Y-88849701D03*
D11*
X143649584Y-86309701D03*
D10*
X144919584Y-88849701D03*
%TD*%
%TO.C,MX5*%
X177622084Y-69799701D03*
D11*
X180162084Y-64719701D03*
D12*
X182702084Y-69799701D03*
D11*
X186512084Y-67259701D03*
D10*
X187782084Y-69799701D03*
%TD*%
%TO.C,MX41*%
X87134584Y-126949701D03*
D11*
X89674584Y-121869701D03*
D12*
X92214584Y-126949701D03*
D11*
X96024584Y-124409701D03*
D10*
X97294584Y-126949701D03*
%TD*%
%TO.C,MX33*%
X68084584Y-107899701D03*
D11*
X70624584Y-102819701D03*
D12*
X73164584Y-107899701D03*
D11*
X76974584Y-105359701D03*
D10*
X78244584Y-107899701D03*
%TD*%
%TO.C,MX24*%
X246678334Y-107899701D03*
D11*
X249218334Y-102819701D03*
D12*
X251758334Y-107899701D03*
D11*
X255568334Y-105359701D03*
D10*
X256838334Y-107899701D03*
%TD*%
%TO.C,MX22*%
X77609584Y-88849701D03*
D11*
X80149584Y-83769701D03*
D12*
X82689584Y-88849701D03*
D11*
X86499584Y-86309701D03*
D10*
X87769584Y-88849701D03*
%TD*%
%TO.C,MX31*%
X106184584Y-107899701D03*
D11*
X108724584Y-102819701D03*
D12*
X111264584Y-107899701D03*
D11*
X115074584Y-105359701D03*
D10*
X116344584Y-107899701D03*
%TD*%
%TO.C,MX39*%
X144284584Y-126949701D03*
D11*
X146824584Y-121869701D03*
D12*
X149364584Y-126949701D03*
D11*
X153174584Y-124409701D03*
D10*
X154444584Y-126949701D03*
%TD*%
%TO.C,MX3*%
X215722084Y-69799701D03*
D11*
X218262084Y-64719701D03*
D12*
X220802084Y-69799701D03*
D11*
X224612084Y-67259701D03*
D10*
X225882084Y-69799701D03*
%TD*%
D13*
%TO.C,MH2*%
X221300076Y-126949711D03*
%TD*%
D10*
%TO.C,MX35*%
X251440834Y-126949701D03*
D11*
X253980834Y-121869701D03*
D12*
X256520834Y-126949701D03*
D11*
X260330834Y-124409701D03*
D10*
X261600834Y-126949701D03*
%TD*%
%TO.C,MX10*%
X82372084Y-69799701D03*
D11*
X84912084Y-64719701D03*
D12*
X87452084Y-69799701D03*
D11*
X91262084Y-67259701D03*
D10*
X92532084Y-69799701D03*
%TD*%
%TO.C,MX34*%
X41890834Y-107899701D03*
D11*
X44430834Y-102819701D03*
D12*
X46970834Y-107899701D03*
D11*
X50780834Y-105359701D03*
D10*
X52050834Y-107899701D03*
%TD*%
%TO.C,MX30*%
X125234584Y-107899701D03*
D11*
X127774584Y-102819701D03*
D12*
X130314584Y-107899701D03*
D11*
X134124584Y-105359701D03*
D10*
X135394584Y-107899701D03*
%TD*%
%TO.C,MX42*%
X58559584Y-126949701D03*
D11*
X61099584Y-121869701D03*
D12*
X63639584Y-126949701D03*
D11*
X67449584Y-124409701D03*
D10*
X68719584Y-126949701D03*
%TD*%
%TO.C,MX7*%
X139522084Y-69799701D03*
D11*
X142062084Y-64719701D03*
D12*
X144602084Y-69799701D03*
D11*
X148412084Y-67259701D03*
D10*
X149682084Y-69799701D03*
%TD*%
%TO.C,MX32*%
X87134584Y-107899701D03*
D11*
X89674584Y-102819701D03*
D12*
X92214584Y-107899701D03*
D11*
X96024584Y-105359701D03*
D10*
X97294584Y-107899701D03*
%TD*%
%TO.C,MX25*%
X220484584Y-107899701D03*
D11*
X223024584Y-102819701D03*
D12*
X225564584Y-107899701D03*
D11*
X229374584Y-105359701D03*
D10*
X230644584Y-107899701D03*
%TD*%
%TO.C,MX20*%
X115709584Y-88849701D03*
D11*
X118249584Y-83769701D03*
D12*
X120789584Y-88849701D03*
D11*
X124599584Y-86309701D03*
D10*
X125869584Y-88849701D03*
%TD*%
%TO.C,MX28*%
X163334584Y-107899701D03*
D11*
X165874584Y-102819701D03*
D12*
X168414584Y-107899701D03*
D11*
X172224584Y-105359701D03*
D10*
X173494584Y-107899701D03*
%TD*%
%TO.C,MX9*%
X101422084Y-69799701D03*
D11*
X103962084Y-64719701D03*
D12*
X106502084Y-69799701D03*
D11*
X110312084Y-67259701D03*
D10*
X111582084Y-69799701D03*
%TD*%
%TO.C,MX18*%
X153809584Y-88849701D03*
D11*
X156349584Y-83769701D03*
D12*
X158889584Y-88849701D03*
D11*
X162699584Y-86309701D03*
D10*
X163969584Y-88849701D03*
%TD*%
%TO.C,MX26*%
X201434584Y-107899701D03*
D11*
X203974584Y-102819701D03*
D12*
X206514584Y-107899701D03*
D11*
X210324584Y-105359701D03*
D10*
X211594584Y-107899701D03*
%TD*%
%TO.C,MX12*%
X39509584Y-69799701D03*
D11*
X42049584Y-64719701D03*
D12*
X44589584Y-69799701D03*
D11*
X48399584Y-67259701D03*
D10*
X49669584Y-69799701D03*
%TD*%
%TO.C,MX11*%
X63322084Y-69799701D03*
D11*
X65862084Y-64719701D03*
D12*
X68402084Y-69799701D03*
D11*
X72212084Y-67259701D03*
D10*
X73482084Y-69799701D03*
%TD*%
D14*
%TO.C,MX23*%
X39795334Y-81864701D03*
D12*
X39795334Y-97104701D03*
D10*
X46653334Y-88849701D03*
D11*
X49193334Y-83769701D03*
D12*
X51733334Y-88849701D03*
D11*
X55543334Y-86309701D03*
D10*
X56813334Y-88849701D03*
D14*
X63671334Y-81864701D03*
D12*
X63671334Y-97104701D03*
%TD*%
D10*
%TO.C,MX13*%
X251440834Y-88849701D03*
D11*
X253980834Y-83769701D03*
D12*
X256520834Y-88849701D03*
D11*
X260330834Y-86309701D03*
D10*
X261600834Y-88849701D03*
%TD*%
D13*
%TO.C,MH1*%
X77631260Y-126949711D03*
%TD*%
%TO.C,MH4*%
X70563736Y-80023469D03*
%TD*%
D10*
%TO.C,MX4*%
X196672084Y-69799701D03*
D11*
X199212084Y-64719701D03*
D12*
X201752084Y-69799701D03*
D11*
X205562084Y-67259701D03*
D10*
X206832084Y-69799701D03*
%TD*%
%TO.C,MX2*%
X234772084Y-69799701D03*
D11*
X237312084Y-64719701D03*
D12*
X239852084Y-69799701D03*
D11*
X243662084Y-67259701D03*
D10*
X244932084Y-69799701D03*
%TD*%
D14*
%TO.C,MX38*%
X166001584Y-119964701D03*
D12*
X166001584Y-135204701D03*
D10*
X172859584Y-126949701D03*
D11*
X175399584Y-121869701D03*
D12*
X177939584Y-126949701D03*
D11*
X181749584Y-124409701D03*
D10*
X183019584Y-126949701D03*
D14*
X189877584Y-119964701D03*
D12*
X189877584Y-135204701D03*
%TD*%
D10*
%TO.C,MX27*%
X182384584Y-107899701D03*
D11*
X184924584Y-102819701D03*
D12*
X187464584Y-107899701D03*
D11*
X191274584Y-105359701D03*
D10*
X192544584Y-107899701D03*
%TD*%
%TO.C,MX17*%
X172859584Y-88849701D03*
D11*
X175399584Y-83769701D03*
D12*
X177939584Y-88849701D03*
D11*
X181749584Y-86309701D03*
D10*
X183019584Y-88849701D03*
%TD*%
%TO.C,MX37*%
X201434584Y-126949701D03*
D11*
X203974584Y-121869701D03*
D12*
X206514584Y-126949701D03*
D11*
X210324584Y-124409701D03*
D10*
X211594584Y-126949701D03*
%TD*%
%TO.C,MX14*%
X230009584Y-88849701D03*
D11*
X232549584Y-83769701D03*
D12*
X235089584Y-88849701D03*
D11*
X238899584Y-86309701D03*
D10*
X240169584Y-88849701D03*
%TD*%
D14*
%TO.C,MX40*%
X108851584Y-119964701D03*
D12*
X108851584Y-135204701D03*
D10*
X115709584Y-126949701D03*
D11*
X118249584Y-121869701D03*
D12*
X120789584Y-126949701D03*
D11*
X124599584Y-124409701D03*
D10*
X125869584Y-126949701D03*
D14*
X132727584Y-119964701D03*
D12*
X132727584Y-135204701D03*
%TD*%
D10*
%TO.C,MX15*%
X210959584Y-88849701D03*
D11*
X213499584Y-83769701D03*
D12*
X216039584Y-88849701D03*
D11*
X219849584Y-86309701D03*
D10*
X221119584Y-88849701D03*
%TD*%
%TO.C,MX36*%
X230009584Y-126949701D03*
D11*
X232549584Y-121869701D03*
D12*
X235089584Y-126949701D03*
D11*
X238899584Y-124409701D03*
D10*
X240169584Y-126949701D03*
%TD*%
D13*
%TO.C,MH3*%
X245669792Y-80023469D03*
%TD*%
M02*
