M48
; DRILL file KiCad 9.99.0-5522-g400384cf72 date 2026-02-12T00:01:32
; FORMAT={-:-/ absolute / metric / decimal}
; #@! TF.CreationDate,2026-02-12T00:01:32-08:00
; #@! TF.GenerationSoftware,Kicad,Pcbnew,9.99.0-5522-g400384cf72
; #@! TF.FileFunction,NonPlated,1,4,NPTH
FMAT,2
METRIC
; #@! TA.AperFunction,NonPlated,NPTH,ComponentDrill
T1C1.702
; #@! TA.AperFunction,NonPlated,NPTH,ComponentDrill
T2C3.000
; #@! TA.AperFunction,NonPlated,NPTH,ComponentDrill
T3C3.048
; #@! TA.AperFunction,NonPlated,NPTH,ComponentDrill
T4C3.988
%
G90
G05
T1
X37.128Y-126.95
X39.51Y-69.8
X41.891Y-107.9
X46.653Y-88.85
X47.288Y-126.95
X49.67Y-69.8
X52.051Y-107.9
X56.813Y-88.85
X58.56Y-126.95
X63.322Y-69.8
X68.085Y-107.9
X68.72Y-126.95
X73.482Y-69.8
X77.61Y-88.85
X78.245Y-107.9
X82.372Y-69.8
X87.135Y-107.9
X87.135Y-126.95
X87.77Y-88.85
X92.532Y-69.8
X96.66Y-88.85
X97.295Y-107.9
X97.295Y-126.95
X101.422Y-69.8
X106.185Y-107.9
X106.82Y-88.85
X111.582Y-69.8
X115.71Y-88.85
X115.71Y-126.95
X116.345Y-107.9
X120.472Y-69.8
X125.235Y-107.9
X125.87Y-88.85
X125.87Y-126.95
X130.632Y-69.8
X134.76Y-88.85
X135.395Y-107.9
X139.522Y-69.8
X144.285Y-107.9
X144.285Y-126.95
X144.92Y-88.85
X149.682Y-69.8
X153.81Y-88.85
X154.445Y-107.9
X154.445Y-126.95
X158.572Y-69.8
X163.335Y-107.9
X163.97Y-88.85
X168.732Y-69.8
X172.86Y-88.85
X172.86Y-126.95
X173.495Y-107.9
X177.622Y-69.8
X182.385Y-107.9
X183.02Y-88.85
X183.02Y-126.95
X187.782Y-69.8
X191.91Y-88.85
X192.545Y-107.9
X196.672Y-69.8
X201.435Y-107.9
X201.435Y-126.95
X202.07Y-88.85
X206.832Y-69.8
X210.96Y-88.85
X211.595Y-107.9
X211.595Y-126.95
X215.722Y-69.8
X220.485Y-107.9
X221.12Y-88.85
X225.882Y-69.8
X230.01Y-88.85
X230.01Y-126.95
X230.645Y-107.9
X234.772Y-69.8
X240.17Y-88.85
X240.17Y-126.95
X244.932Y-69.8
X246.678Y-107.9
X251.441Y-88.85
X251.441Y-126.95
X253.822Y-69.8
X256.838Y-107.9
X261.601Y-88.85
X261.601Y-126.95
X263.982Y-69.8
T2
X39.668Y-121.87
X42.05Y-64.72
X44.431Y-102.82
X46.018Y-124.41
X48.4Y-67.26
X49.193Y-83.77
X50.781Y-105.36
X55.543Y-86.31
X61.1Y-121.87
X65.862Y-64.72
X67.45Y-124.41
X70.625Y-102.82
X72.212Y-67.26
X76.975Y-105.36
X80.15Y-83.77
X84.912Y-64.72
X86.5Y-86.31
X89.675Y-102.82
X89.675Y-121.87
X91.262Y-67.26
X96.025Y-105.36
X96.025Y-124.41
X99.2Y-83.77
X103.962Y-64.72
X105.55Y-86.31
X108.725Y-102.82
X110.312Y-67.26
X115.075Y-105.36
X118.25Y-83.77
X118.25Y-121.87
X123.012Y-64.72
X124.6Y-86.31
X124.6Y-124.41
X127.775Y-102.82
X129.362Y-67.26
X134.125Y-105.36
X137.3Y-83.77
X142.062Y-64.72
X143.65Y-86.31
X146.825Y-102.82
X146.825Y-121.87
X148.412Y-67.26
X153.175Y-105.36
X153.175Y-124.41
X156.35Y-83.77
X161.112Y-64.72
X162.7Y-86.31
X165.875Y-102.82
X167.462Y-67.26
X172.225Y-105.36
X175.4Y-83.77
X175.4Y-121.87
X180.162Y-64.72
X181.75Y-86.31
X181.75Y-124.41
X184.925Y-102.82
X186.512Y-67.26
X191.275Y-105.36
X194.45Y-83.77
X199.212Y-64.72
X200.8Y-86.31
X203.975Y-102.82
X203.975Y-121.87
X205.562Y-67.26
X210.325Y-105.36
X210.325Y-124.41
X213.5Y-83.77
X218.262Y-64.72
X219.85Y-86.31
X223.025Y-102.82
X224.612Y-67.26
X229.375Y-105.36
X232.55Y-83.77
X232.55Y-121.87
X237.312Y-64.72
X238.9Y-86.31
X238.9Y-124.41
X243.662Y-67.26
X249.218Y-102.82
X253.981Y-83.77
X253.981Y-121.87
X255.568Y-105.36
X256.362Y-64.72
X260.331Y-86.31
X260.331Y-124.41
X262.712Y-67.26
T3
X39.795Y-81.865
X63.671Y-81.865
X108.852Y-119.965
X132.728Y-119.965
X166.002Y-119.965
X189.878Y-119.965
T4
X39.795Y-97.105
X42.208Y-126.95
X44.59Y-69.8
X46.971Y-107.9
X51.733Y-88.85
X63.64Y-126.95
X63.671Y-97.105
X68.402Y-69.8
X73.165Y-107.9
X82.69Y-88.85
X87.452Y-69.8
X92.215Y-107.9
X92.215Y-126.95
X101.74Y-88.85
X106.502Y-69.8
X108.852Y-135.205
X111.265Y-107.9
X120.79Y-88.85
X120.79Y-126.95
X125.552Y-69.8
X130.315Y-107.9
X132.728Y-135.205
X139.84Y-88.85
X144.602Y-69.8
X149.365Y-107.9
X149.365Y-126.95
X158.89Y-88.85
X163.652Y-69.8
X166.002Y-135.205
X168.415Y-107.9
X177.94Y-88.85
X177.94Y-126.95
X182.702Y-69.8
X187.465Y-107.9
X189.878Y-135.205
X196.99Y-88.85
X201.752Y-69.8
X206.515Y-107.9
X206.515Y-126.95
X216.04Y-88.85
X220.802Y-69.8
X225.565Y-107.9
X235.09Y-88.85
X235.09Y-126.95
X239.852Y-69.8
X251.758Y-107.9
X256.521Y-88.85
X256.521Y-126.95
X258.902Y-69.8
M30
