%TF.GenerationSoftware,KiCad,Pcbnew,9.99.0-5522-g400384cf72*%
%TF.CreationDate,2026-02-12T00:01:38-08:00*%
%TF.ProjectId,amb-kb,616d622d-6b62-42e6-9b69-6361645f7063,rev?*%
%TF.SameCoordinates,Original*%
%TF.FileFunction,Paste,Top*%
%TF.FilePolarity,Positive*%
%FSLAX46Y46*%
G04 Gerber Fmt 4.6, Leading zero omitted, Abs format (unit mm)*
G04 Created by KiCad (PCBNEW 9.99.0-5522-g400384cf72) date 2026-02-12 00:01:38*
%MOMM*%
%LPD*%
G01*
G04 APERTURE LIST*
G04 Aperture macros list*
%AMRoundRect*
0 Rectangle with rounded corners*
0 $1 Rounding radius*
0 $2 $3 $4 $5 $6 $7 $8 $9 X,Y pos of 4 corners*
0 Add a 4 corners polygon primitive as box body*
4,1,4,$2,$3,$4,$5,$6,$7,$8,$9,$2,$3,0*
0 Add four circle primitives for the rounded corners*
1,1,$1+$1,$2,$3*
1,1,$1+$1,$4,$5*
1,1,$1+$1,$6,$7*
1,1,$1+$1,$8,$9*
0 Add four rect primitives between the rounded corners*
20,1,$1+$1,$2,$3,$4,$5,0*
20,1,$1+$1,$4,$5,$6,$7,0*
20,1,$1+$1,$6,$7,$8,$9,0*
20,1,$1+$1,$8,$9,$2,$3,0*%
G04 Aperture macros list end*
%ADD10RoundRect,0.225000X0.375000X-0.225000X0.375000X0.225000X-0.375000X0.225000X-0.375000X-0.225000X0*%
%ADD11RoundRect,0.200000X-1.075000X-1.050000X1.075000X-1.050000X1.075000X1.050000X-1.075000X1.050000X0*%
%ADD12R,0.609600X0.889000*%
%ADD13R,0.762000X0.838200*%
%ADD14RoundRect,0.140000X0.170000X-0.140000X0.170000X0.140000X-0.170000X0.140000X-0.170000X-0.140000X0*%
%ADD15RoundRect,0.250000X-0.315000X-0.315000X0.315000X-0.315000X0.315000X0.315000X-0.315000X0.315000X0*%
%ADD16RoundRect,0.062500X-0.375000X-0.062500X0.375000X-0.062500X0.375000X0.062500X-0.375000X0.062500X0*%
%ADD17RoundRect,0.062500X-0.062500X-0.375000X0.062500X-0.375000X0.062500X0.375000X-0.062500X0.375000X0*%
%ADD18RoundRect,0.140000X0.140000X0.170000X-0.140000X0.170000X-0.140000X-0.170000X0.140000X-0.170000X0*%
%ADD19RoundRect,0.250000X-0.475000X0.250000X-0.475000X-0.250000X0.475000X-0.250000X0.475000X0.250000X0*%
%ADD20RoundRect,0.135000X0.135000X0.185000X-0.135000X0.185000X-0.135000X-0.185000X0.135000X-0.185000X0*%
%ADD21RoundRect,0.225000X-0.250000X0.225000X-0.250000X-0.225000X0.250000X-0.225000X0.250000X0.225000X0*%
%ADD22RoundRect,0.225000X0.250000X-0.225000X0.250000X0.225000X-0.250000X0.225000X-0.250000X-0.225000X0*%
%ADD23RoundRect,0.218750X-0.381250X0.218750X-0.381250X-0.218750X0.381250X-0.218750X0.381250X0.218750X0*%
%ADD24RoundRect,0.140000X-0.170000X0.140000X-0.170000X-0.140000X0.170000X-0.140000X0.170000X0.140000X0*%
%ADD25RoundRect,0.225000X0.225000X0.250000X-0.225000X0.250000X-0.225000X-0.250000X0.225000X-0.250000X0*%
%ADD26RoundRect,0.150000X0.512500X0.150000X-0.512500X0.150000X-0.512500X-0.150000X0.512500X-0.150000X0*%
G04 APERTURE END LIST*
D10*
%TO.C,D13*%
X249377084Y-90499701D03*
X249377084Y-87199701D03*
%TD*%
%TO.C,D6*%
X156508334Y-71449701D03*
X156508334Y-68149701D03*
%TD*%
%TO.C,D9*%
X99358334Y-71449701D03*
X99358334Y-68149701D03*
%TD*%
%TO.C,D26*%
X199370834Y-109549701D03*
X199370834Y-106249701D03*
%TD*%
D11*
%TO.C,MX29*%
X156449584Y-105359701D03*
X143522584Y-102819701D03*
%TD*%
%TO.C,MX16*%
X204074584Y-86309701D03*
X191147584Y-83769701D03*
%TD*%
D10*
%TO.C,D17*%
X170795834Y-90499701D03*
X170795834Y-87199701D03*
%TD*%
D11*
%TO.C,MX1*%
X265987084Y-67259701D03*
X253060084Y-64719701D03*
%TD*%
%TO.C,MX21*%
X108824584Y-86309701D03*
X95897584Y-83769701D03*
%TD*%
D10*
%TO.C,D36*%
X227945834Y-128599701D03*
X227945834Y-125299701D03*
%TD*%
D11*
%TO.C,MX43*%
X49293334Y-124409701D03*
X36366334Y-121869701D03*
%TD*%
%TO.C,MX6*%
X170737084Y-67259701D03*
X157810084Y-64719701D03*
%TD*%
D10*
%TO.C,D3*%
X213658334Y-71449701D03*
X213658334Y-68149701D03*
%TD*%
D11*
%TO.C,MX8*%
X132637084Y-67259701D03*
X119710084Y-64719701D03*
%TD*%
%TO.C,MX19*%
X146924584Y-86309701D03*
X133997584Y-83769701D03*
%TD*%
D12*
%TO.C,J1*%
X148783333Y-57595101D03*
X147583333Y-57595101D03*
X146383335Y-57595101D03*
X145183335Y-57595101D03*
D13*
X149933333Y-53820100D03*
X144033335Y-53820100D03*
%TD*%
D11*
%TO.C,MX5*%
X189787084Y-67259701D03*
X176860084Y-64719701D03*
%TD*%
D10*
%TO.C,D15*%
X208895834Y-90499701D03*
X208895834Y-87199701D03*
%TD*%
%TO.C,D8*%
X118408334Y-71449701D03*
X118408334Y-68149701D03*
%TD*%
D14*
%TO.C,C4*%
X28839584Y-85029701D03*
X28839584Y-84069701D03*
%TD*%
D11*
%TO.C,MX41*%
X99299584Y-124409701D03*
X86372584Y-121869701D03*
%TD*%
D15*
%TO.C,U1*%
X31489584Y-85699701D03*
X31489584Y-87099701D03*
X31489584Y-88499701D03*
X31489584Y-89899701D03*
X32889584Y-85699701D03*
X32889584Y-87099701D03*
X32889584Y-88499701D03*
X32889584Y-89899701D03*
X34289584Y-85699701D03*
X34289584Y-87099701D03*
X34289584Y-88499701D03*
X34289584Y-89899701D03*
X35689584Y-85699701D03*
X35689584Y-87099701D03*
X35689584Y-88499701D03*
X35689584Y-89899701D03*
D16*
X30152084Y-85049701D03*
X30152084Y-85549701D03*
X30152084Y-86049701D03*
X30152084Y-86549701D03*
X30152084Y-87049701D03*
X30152084Y-87549701D03*
X30152084Y-88049701D03*
X30152084Y-88549701D03*
X30152084Y-89049701D03*
X30152084Y-89549701D03*
X30152084Y-90049701D03*
X30152084Y-90549701D03*
D17*
X30839584Y-91237201D03*
X31339584Y-91237201D03*
X31839584Y-91237201D03*
X32339584Y-91237201D03*
X32839584Y-91237201D03*
X33339584Y-91237201D03*
X33839584Y-91237201D03*
X34339584Y-91237201D03*
X34839584Y-91237201D03*
X35339584Y-91237201D03*
X35839584Y-91237201D03*
X36339584Y-91237201D03*
D16*
X37027084Y-90549701D03*
X37027084Y-90049701D03*
X37027084Y-89549701D03*
X37027084Y-89049701D03*
X37027084Y-88549701D03*
X37027084Y-88049701D03*
X37027084Y-87549701D03*
X37027084Y-87049701D03*
X37027084Y-86549701D03*
X37027084Y-86049701D03*
X37027084Y-85549701D03*
X37027084Y-85049701D03*
D17*
X36339584Y-84362201D03*
X35839584Y-84362201D03*
X35339584Y-84362201D03*
X34839584Y-84362201D03*
X34339584Y-84362201D03*
X33839584Y-84362201D03*
X33339584Y-84362201D03*
X32839584Y-84362201D03*
X32339584Y-84362201D03*
X31839584Y-84362201D03*
X31339584Y-84362201D03*
X30839584Y-84362201D03*
%TD*%
D11*
%TO.C,MX33*%
X80249584Y-105359701D03*
X67322584Y-102819701D03*
%TD*%
%TO.C,MX24*%
X258843334Y-105359701D03*
X245916334Y-102819701D03*
%TD*%
D10*
%TO.C,D7*%
X137458334Y-71449701D03*
X137458334Y-68149701D03*
%TD*%
%TO.C,D12*%
X37445834Y-71449701D03*
X37445834Y-68149701D03*
%TD*%
D11*
%TO.C,MX22*%
X89774584Y-86309701D03*
X76847584Y-83769701D03*
%TD*%
D18*
%TO.C,C6*%
X36569584Y-92549701D03*
X35609584Y-92549701D03*
%TD*%
D10*
%TO.C,D16*%
X189845834Y-90499701D03*
X189845834Y-87199701D03*
%TD*%
%TO.C,D22*%
X75545834Y-90499701D03*
X75545834Y-87199701D03*
%TD*%
%TO.C,D23*%
X44589584Y-90499701D03*
X44589584Y-87199701D03*
%TD*%
D11*
%TO.C,MX31*%
X118349584Y-105359701D03*
X105422584Y-102819701D03*
%TD*%
%TO.C,MX39*%
X156449584Y-124409701D03*
X143522584Y-121869701D03*
%TD*%
D10*
%TO.C,D34*%
X39827084Y-109549701D03*
X39827084Y-106249701D03*
%TD*%
D11*
%TO.C,MX3*%
X227887084Y-67259701D03*
X214960084Y-64719701D03*
%TD*%
D10*
%TO.C,D43*%
X35064584Y-128599701D03*
X35064584Y-125299701D03*
%TD*%
D11*
%TO.C,MX35*%
X263605834Y-124409701D03*
X250678834Y-121869701D03*
%TD*%
%TO.C,MX10*%
X94537084Y-67259701D03*
X81610084Y-64719701D03*
%TD*%
D10*
%TO.C,D40*%
X113645834Y-128599701D03*
X113645834Y-125299701D03*
%TD*%
D19*
%TO.C,C1*%
X139839584Y-56349701D03*
X139839584Y-58249701D03*
%TD*%
D10*
%TO.C,D11*%
X61258334Y-71449701D03*
X61258334Y-68149701D03*
%TD*%
%TO.C,D33*%
X66020834Y-109549701D03*
X66020834Y-106249701D03*
%TD*%
D11*
%TO.C,MX34*%
X54055834Y-105359701D03*
X41128834Y-102819701D03*
%TD*%
%TO.C,MX30*%
X137399584Y-105359701D03*
X124472584Y-102819701D03*
%TD*%
D10*
%TO.C,D41*%
X85070834Y-128599701D03*
X85070834Y-125299701D03*
%TD*%
D11*
%TO.C,MX42*%
X70724584Y-124409701D03*
X57797584Y-121869701D03*
%TD*%
%TO.C,MX7*%
X151687084Y-67259701D03*
X138760084Y-64719701D03*
%TD*%
%TO.C,MX32*%
X99299584Y-105359701D03*
X86372584Y-102819701D03*
%TD*%
D20*
%TO.C,R1*%
X32862084Y-82955951D03*
X31842084Y-82955951D03*
%TD*%
D11*
%TO.C,MX25*%
X232649584Y-105359701D03*
X219722584Y-102819701D03*
%TD*%
D21*
%TO.C,C12*%
X128589584Y-56524701D03*
X128589584Y-58074701D03*
%TD*%
D10*
%TO.C,D31*%
X104120834Y-109549701D03*
X104120834Y-106249701D03*
%TD*%
D11*
%TO.C,MX20*%
X127874584Y-86309701D03*
X114947584Y-83769701D03*
%TD*%
D22*
%TO.C,C11*%
X134589584Y-58074701D03*
X134589584Y-56524701D03*
%TD*%
D23*
%TO.C,FB1*%
X142089584Y-56237201D03*
X142089584Y-58362201D03*
%TD*%
D11*
%TO.C,MX28*%
X175499584Y-105359701D03*
X162572584Y-102819701D03*
%TD*%
%TO.C,MX9*%
X113587084Y-67259701D03*
X100660084Y-64719701D03*
%TD*%
D14*
%TO.C,C10*%
X38339584Y-84779701D03*
X38339584Y-83819701D03*
%TD*%
D11*
%TO.C,MX18*%
X165974584Y-86309701D03*
X153047584Y-83769701D03*
%TD*%
%TO.C,MX26*%
X213599584Y-105359701D03*
X200672584Y-102819701D03*
%TD*%
D24*
%TO.C,C8*%
X28839584Y-89069701D03*
X28839584Y-90029701D03*
%TD*%
D14*
%TO.C,C2*%
X28839584Y-87779701D03*
X28839584Y-86819701D03*
%TD*%
D10*
%TO.C,D35*%
X249377084Y-128599701D03*
X249377084Y-125299701D03*
%TD*%
%TO.C,D39*%
X142220834Y-128599701D03*
X142220834Y-125299701D03*
%TD*%
%TO.C,D30*%
X123170834Y-109549701D03*
X123170834Y-106249701D03*
%TD*%
%TO.C,D4*%
X194608334Y-71449701D03*
X194608334Y-68149701D03*
%TD*%
D11*
%TO.C,MX12*%
X51674584Y-67259701D03*
X38747584Y-64719701D03*
%TD*%
%TO.C,MX11*%
X75487084Y-67259701D03*
X62560084Y-64719701D03*
%TD*%
D10*
%TO.C,D42*%
X56495834Y-128599701D03*
X56495834Y-125299701D03*
%TD*%
%TO.C,D2*%
X232708334Y-71449701D03*
X232708334Y-68149701D03*
%TD*%
%TO.C,D32*%
X85070834Y-109549701D03*
X85070834Y-106249701D03*
%TD*%
D11*
%TO.C,MX23*%
X58818334Y-86309701D03*
X45891334Y-83769701D03*
%TD*%
%TO.C,MX13*%
X263605834Y-86309701D03*
X250678834Y-83769701D03*
%TD*%
D10*
%TO.C,D20*%
X113645834Y-90499701D03*
X113645834Y-87199701D03*
%TD*%
%TO.C,D25*%
X218420834Y-109549701D03*
X218420834Y-106249701D03*
%TD*%
%TO.C,D29*%
X142220834Y-109549701D03*
X142220834Y-106249701D03*
%TD*%
D21*
%TO.C,C7*%
X27339584Y-89274701D03*
X27339584Y-90824701D03*
%TD*%
D10*
%TO.C,D28*%
X161270834Y-109549701D03*
X161270834Y-106249701D03*
%TD*%
D18*
%TO.C,C5*%
X30850834Y-82955951D03*
X29890834Y-82955951D03*
%TD*%
D10*
%TO.C,D5*%
X175558334Y-71449701D03*
X175558334Y-68149701D03*
%TD*%
D11*
%TO.C,MX4*%
X208837084Y-67259701D03*
X195910084Y-64719701D03*
%TD*%
%TO.C,MX2*%
X246937084Y-67259701D03*
X234010084Y-64719701D03*
%TD*%
D25*
%TO.C,C3*%
X36864584Y-93879387D03*
X35314584Y-93879387D03*
%TD*%
D11*
%TO.C,MX38*%
X185024584Y-124409701D03*
X172097584Y-121869701D03*
%TD*%
D10*
%TO.C,D19*%
X132695834Y-90499701D03*
X132695834Y-87199701D03*
%TD*%
%TO.C,D21*%
X94595834Y-90499701D03*
X94595834Y-87199701D03*
%TD*%
%TO.C,D18*%
X151745834Y-90499701D03*
X151745834Y-87199701D03*
%TD*%
%TO.C,D27*%
X180320834Y-109549701D03*
X180320834Y-106249701D03*
%TD*%
D11*
%TO.C,MX27*%
X194549584Y-105359701D03*
X181622584Y-102819701D03*
%TD*%
D10*
%TO.C,D37*%
X199370834Y-128599701D03*
X199370834Y-125299701D03*
%TD*%
%TO.C,D38*%
X170795834Y-128599701D03*
X170795834Y-125299701D03*
%TD*%
%TO.C,D10*%
X80308334Y-71449701D03*
X80308334Y-68149701D03*
%TD*%
D11*
%TO.C,MX17*%
X185024584Y-86309701D03*
X172097584Y-83769701D03*
%TD*%
%TO.C,MX37*%
X213599584Y-124409701D03*
X200672584Y-121869701D03*
%TD*%
%TO.C,MX14*%
X242174584Y-86309701D03*
X229247584Y-83769701D03*
%TD*%
D10*
%TO.C,D14*%
X227945834Y-90499701D03*
X227945834Y-87199701D03*
%TD*%
D22*
%TO.C,C9*%
X27339584Y-84824701D03*
X27339584Y-83274701D03*
%TD*%
D11*
%TO.C,MX40*%
X127874584Y-124409701D03*
X114947584Y-121869701D03*
%TD*%
%TO.C,MX15*%
X223124584Y-86309701D03*
X210197584Y-83769701D03*
%TD*%
%TO.C,MX36*%
X242174584Y-124409701D03*
X229247584Y-121869701D03*
%TD*%
D10*
%TO.C,D24*%
X244614584Y-109549701D03*
X244614584Y-106249701D03*
%TD*%
%TO.C,D1*%
X251758334Y-71449701D03*
X251758334Y-68149701D03*
%TD*%
D26*
%TO.C,U2*%
X132727084Y-58249701D03*
X132727084Y-57299701D03*
X132727084Y-56349701D03*
X130452084Y-56349701D03*
X130452084Y-58249701D03*
%TD*%
M02*
