%TF.GenerationSoftware,KiCad,Pcbnew,9.99.0-5522-g400384cf72*%
%TF.CreationDate,2026-02-12T00:01:32-08:00*%
%TF.ProjectId,amb-kb,616d622d-6b62-42e6-9b69-6361645f7063,rev?*%
%TF.SameCoordinates,Original*%
%TF.FileFunction,Drillmap*%
%TF.FilePolarity,Positive*%
%FSLAX45Y45*%
G04 Gerber Fmt 4.5, Leading zero omitted, Abs format (unit mm)*
G04 Created by KiCad (PCBNEW 9.99.0-5522-g400384cf72) date 2026-02-12 00:01:32*
%MOMM*%
%LPD*%
G01*
G04 APERTURE LIST*
%ADD10C,0.050000*%
%ADD11C,0.200000*%
%ADD12C,0.100000*%
%ADD13C,0.220000*%
G04 APERTURE END LIST*
D10*
X2217358Y-5414760D02*
X2217358Y-5414760D01*
G75*
G02*
X2417358Y-5214760I200002J0D01*
G01*
X27455450Y-5214760D01*
G75*
G02*
X27655450Y-5414760I0J-200000D01*
G01*
X27655450Y-14260341D01*
G75*
G02*
X27455450Y-14460341I-200000J1D01*
G01*
X2417358Y-14460341D01*
G75*
G02*
X2217358Y-14260341I2J200001D01*
G01*
X2217358Y-5414760D01*
D11*
D12*
X2918958Y-8829970D02*
X2938958Y-8849970D01*
X2938958Y-8829970D02*
X2918958Y-8849970D01*
X3148958Y-8349970D02*
X3168958Y-8369970D01*
X3168958Y-8349970D02*
X3148958Y-8369970D01*
X3848958Y-8544970D02*
X3868958Y-8564970D01*
X3868958Y-8544970D02*
X3848958Y-8564970D01*
X2746458Y-8229970D02*
G75*
G02*
X2721458Y-8229970I-12500J0D01*
G01*
X2721458Y-8229970D02*
G75*
G02*
X2746458Y-8229970I12500J0D01*
G01*
X2896458Y-8604970D02*
G75*
G02*
X2871458Y-8604970I-12500J0D01*
G01*
X2871458Y-8604970D02*
G75*
G02*
X2896458Y-8604970I12500J0D01*
G01*
X2921458Y-8295595D02*
G75*
G02*
X2896458Y-8295595I-12500J0D01*
G01*
X2896458Y-8295595D02*
G75*
G02*
X2921458Y-8295595I12500J0D01*
G01*
X2971458Y-8406970D02*
G75*
G02*
X2946458Y-8406970I-12500J0D01*
G01*
X2946458Y-8406970D02*
G75*
G02*
X2971458Y-8406970I12500J0D01*
G01*
X3196708Y-8225220D02*
G75*
G02*
X3171708Y-8225220I-12500J0D01*
G01*
X3171708Y-8225220D02*
G75*
G02*
X3196708Y-8225220I12500J0D01*
G01*
X3944458Y-8477970D02*
G75*
G02*
X3919458Y-8477970I-12500J0D01*
G01*
X3919458Y-8477970D02*
G75*
G02*
X3944458Y-8477970I12500J0D01*
G01*
X4039639Y-8598150D02*
G75*
G02*
X4014639Y-8598150I-12500J0D01*
G01*
X4014639Y-8598150D02*
G75*
G02*
X4039639Y-8598150I12500J0D01*
G01*
X4103278Y-8661790D02*
G75*
G02*
X4078278Y-8661790I-12500J0D01*
G01*
X4078278Y-8661790D02*
G75*
G02*
X4103278Y-8661790I12500J0D01*
G01*
X14039639Y-7448150D02*
G75*
G02*
X14014639Y-7448150I-12500J0D01*
G01*
X14014639Y-7448150D02*
G75*
G02*
X14039639Y-7448150I12500J0D01*
G01*
X14103278Y-7511790D02*
G75*
G02*
X14078278Y-7511790I-12500J0D01*
G01*
X14078278Y-7511790D02*
G75*
G02*
X14103278Y-7511790I12500J0D01*
G01*
X14514639Y-6548150D02*
G75*
G02*
X14489639Y-6548150I-12500J0D01*
G01*
X14489639Y-6548150D02*
G75*
G02*
X14514639Y-6548150I12500J0D01*
G01*
X14578278Y-6611790D02*
G75*
G02*
X14553278Y-6611790I-12500J0D01*
G01*
X14553278Y-6611790D02*
G75*
G02*
X14578278Y-6611790I12500J0D01*
G01*
X14665833Y-5886450D02*
G75*
G02*
X14640833Y-5886450I-12500J0D01*
G01*
X14640833Y-5886450D02*
G75*
G02*
X14665833Y-5886450I12500J0D01*
G01*
X14755833Y-5886450D02*
G75*
G02*
X14730833Y-5886450I-12500J0D01*
G01*
X14730833Y-5886450D02*
G75*
G02*
X14755833Y-5886450I12500J0D01*
G01*
X2608958Y-8462470D02*
X2608958Y-8502470D01*
X2588958Y-8482470D02*
X2628958Y-8482470D01*
X2611458Y-8907470D02*
X2611458Y-8947470D01*
X2591458Y-8927470D02*
X2631458Y-8927470D01*
X2611458Y-9062470D02*
X2611458Y-9102470D01*
X2591458Y-9082470D02*
X2631458Y-9082470D01*
X2883958Y-9084970D02*
X2883958Y-9124970D01*
X2863958Y-9104970D02*
X2903958Y-9104970D01*
X3085083Y-8159970D02*
X3085083Y-8199970D01*
X3065083Y-8179970D02*
X3105083Y-8179970D01*
X3358958Y-9559970D02*
X3358958Y-9599970D01*
X3338958Y-9579970D02*
X3378958Y-9579970D01*
X3458958Y-9234970D02*
X3458958Y-9274970D01*
X3438958Y-9254970D02*
X3478958Y-9254970D01*
X3506458Y-12971845D02*
X3506458Y-13011845D01*
X3486458Y-12991845D02*
X3526458Y-12991845D01*
X3531458Y-9482470D02*
X3531458Y-9522470D01*
X3511458Y-9502470D02*
X3551458Y-9502470D01*
X3735958Y-8386970D02*
X3735958Y-8426970D01*
X3715958Y-8406970D02*
X3755958Y-8406970D01*
X3744583Y-7256845D02*
X3744583Y-7296845D01*
X3724583Y-7276845D02*
X3764583Y-7276845D01*
X3800990Y-9367939D02*
X3800990Y-9407939D01*
X3780990Y-9387939D02*
X3820990Y-9387939D01*
X3982708Y-11066845D02*
X3982708Y-11106845D01*
X3962708Y-11086845D02*
X4002708Y-11086845D01*
X4508958Y-9161845D02*
X4508958Y-9201845D01*
X4488958Y-9181845D02*
X4528958Y-9181845D01*
X4508958Y-9359970D02*
X4508958Y-9399970D01*
X4488958Y-9379970D02*
X4528958Y-9379970D01*
X4508958Y-9559970D02*
X4508958Y-9599970D01*
X4488958Y-9579970D02*
X4528958Y-9579970D01*
X4508958Y-9759970D02*
X4508958Y-9799970D01*
X4488958Y-9779970D02*
X4528958Y-9779970D01*
X5649583Y-12971845D02*
X5649583Y-13011845D01*
X5629583Y-12991845D02*
X5669583Y-12991845D01*
X6125833Y-7256845D02*
X6125833Y-7296845D01*
X6105833Y-7276845D02*
X6145833Y-7276845D01*
X6602083Y-11066845D02*
X6602083Y-11106845D01*
X6582083Y-11086845D02*
X6622083Y-11086845D01*
X7554583Y-9161845D02*
X7554583Y-9201845D01*
X7534583Y-9181845D02*
X7574583Y-9181845D01*
X8030833Y-7256845D02*
X8030833Y-7296845D01*
X8010833Y-7276845D02*
X8050833Y-7276845D01*
X8507083Y-11066845D02*
X8507083Y-11106845D01*
X8487083Y-11086845D02*
X8527083Y-11086845D01*
X8507083Y-12971845D02*
X8507083Y-13011845D01*
X8487083Y-12991845D02*
X8527083Y-12991845D01*
X9459583Y-9161845D02*
X9459583Y-9201845D01*
X9439583Y-9181845D02*
X9479583Y-9181845D01*
X9935833Y-7256845D02*
X9935833Y-7296845D01*
X9915833Y-7276845D02*
X9955833Y-7276845D01*
X10412083Y-11066845D02*
X10412083Y-11106845D01*
X10392083Y-11086845D02*
X10432083Y-11086845D01*
X11364583Y-9161845D02*
X11364583Y-9201845D01*
X11344583Y-9181845D02*
X11384583Y-9181845D01*
X11364583Y-12971845D02*
X11364583Y-13011845D01*
X11344583Y-12991845D02*
X11384583Y-12991845D01*
X11840833Y-7256845D02*
X11840833Y-7296845D01*
X11820833Y-7276845D02*
X11860833Y-7276845D01*
X12317083Y-11066845D02*
X12317083Y-11106845D01*
X12297083Y-11086845D02*
X12337083Y-11086845D01*
X12608958Y-5709970D02*
X12608958Y-5749970D01*
X12588958Y-5729970D02*
X12628958Y-5729970D01*
X12858958Y-5509970D02*
X12858958Y-5549970D01*
X12838958Y-5529970D02*
X12878958Y-5529970D01*
X12858958Y-5909970D02*
X12858958Y-5949970D01*
X12838958Y-5929970D02*
X12878958Y-5929970D01*
X13045208Y-5898720D02*
X13045208Y-5938720D01*
X13025208Y-5918720D02*
X13065208Y-5918720D01*
X13133958Y-5709970D02*
X13133958Y-5749970D01*
X13113958Y-5729970D02*
X13153958Y-5729970D01*
X13269583Y-9161845D02*
X13269583Y-9201845D01*
X13249583Y-9181845D02*
X13289583Y-9181845D01*
X13583958Y-5632470D02*
X13583958Y-5672470D01*
X13563958Y-5652470D02*
X13603958Y-5652470D01*
X13745833Y-7256845D02*
X13745833Y-7296845D01*
X13725833Y-7276845D02*
X13765833Y-7276845D01*
X13983958Y-5934970D02*
X13983958Y-5974970D01*
X13963958Y-5954970D02*
X14003958Y-5954970D01*
X14058958Y-5284970D02*
X14058958Y-5324970D01*
X14038958Y-5304970D02*
X14078958Y-5304970D01*
X14158958Y-5284970D02*
X14158958Y-5324970D01*
X14138958Y-5304970D02*
X14178958Y-5304970D01*
X14222083Y-11066845D02*
X14222083Y-11106845D01*
X14202083Y-11086845D02*
X14242083Y-11086845D01*
X14222083Y-12971845D02*
X14222083Y-13011845D01*
X14202083Y-12991845D02*
X14242083Y-12991845D01*
X14258958Y-5284970D02*
X14258958Y-5324970D01*
X14238958Y-5304970D02*
X14278958Y-5304970D01*
X14518333Y-5850595D02*
X14518333Y-5890595D01*
X14498333Y-5870595D02*
X14538333Y-5870595D01*
X15133958Y-5284970D02*
X15133958Y-5324970D01*
X15113958Y-5304970D02*
X15153958Y-5304970D01*
X15174583Y-9161845D02*
X15174583Y-9201845D01*
X15154583Y-9181845D02*
X15194583Y-9181845D01*
X15233958Y-5284970D02*
X15233958Y-5324970D01*
X15213958Y-5304970D02*
X15253958Y-5304970D01*
X15333958Y-5284970D02*
X15333958Y-5324970D01*
X15313958Y-5304970D02*
X15353958Y-5304970D01*
X15650833Y-7256845D02*
X15650833Y-7296845D01*
X15630833Y-7276845D02*
X15670833Y-7276845D01*
X16127083Y-11066845D02*
X16127083Y-11106845D01*
X16107083Y-11086845D02*
X16147083Y-11086845D01*
X17079583Y-9161845D02*
X17079583Y-9201845D01*
X17059583Y-9181845D02*
X17099583Y-9181845D01*
X17079583Y-12971845D02*
X17079583Y-13011845D01*
X17059583Y-12991845D02*
X17099583Y-12991845D01*
X17555833Y-7256845D02*
X17555833Y-7296845D01*
X17535833Y-7276845D02*
X17575833Y-7276845D01*
X17658958Y-9959970D02*
X17658958Y-9999970D01*
X17638958Y-9979970D02*
X17678958Y-9979970D01*
X18032083Y-11066845D02*
X18032083Y-11106845D01*
X18012083Y-11086845D02*
X18052083Y-11086845D01*
X18984583Y-9161845D02*
X18984583Y-9201845D01*
X18964583Y-9181845D02*
X19004583Y-9181845D01*
X19460833Y-7256845D02*
X19460833Y-7296845D01*
X19440833Y-7276845D02*
X19480833Y-7276845D01*
X19937083Y-11066845D02*
X19937083Y-11106845D01*
X19917083Y-11086845D02*
X19957083Y-11086845D01*
X19937083Y-12971845D02*
X19937083Y-13011845D01*
X19917083Y-12991845D02*
X19957083Y-12991845D01*
X20889583Y-9161845D02*
X20889583Y-9201845D01*
X20869583Y-9181845D02*
X20909583Y-9181845D01*
X21365833Y-7256845D02*
X21365833Y-7296845D01*
X21345833Y-7276845D02*
X21385833Y-7276845D01*
X21842083Y-11066845D02*
X21842083Y-11106845D01*
X21822083Y-11086845D02*
X21862083Y-11086845D01*
X22794583Y-9161845D02*
X22794583Y-9201845D01*
X22774583Y-9181845D02*
X22814583Y-9181845D01*
X22794583Y-12971845D02*
X22794583Y-13011845D01*
X22774583Y-12991845D02*
X22814583Y-12991845D01*
X23270833Y-7256845D02*
X23270833Y-7296845D01*
X23250833Y-7276845D02*
X23290833Y-7276845D01*
X23798880Y-9765673D02*
X23798880Y-9805673D01*
X23778880Y-9785673D02*
X23818880Y-9785673D01*
X24461458Y-11066845D02*
X24461458Y-11106845D01*
X24441458Y-11086845D02*
X24481458Y-11086845D01*
X24937708Y-9161845D02*
X24937708Y-9201845D01*
X24917708Y-9181845D02*
X24957708Y-9181845D01*
X24937708Y-12971845D02*
X24937708Y-13011845D01*
X24917708Y-12991845D02*
X24957708Y-12991845D01*
X25175833Y-7256845D02*
X25175833Y-7296845D01*
X25155833Y-7276845D02*
X25195833Y-7276845D01*
X26158958Y-9559970D02*
X26158958Y-9599970D01*
X26138958Y-9579970D02*
X26178958Y-9579970D01*
D13*
X7134156Y-8080129D02*
X7134156Y-7924564D01*
X6978591Y-7924564D01*
X6978591Y-8080129D01*
X7134156Y-8080129D01*
X7840908Y-12772754D02*
X7840908Y-12617189D01*
X7685343Y-12617189D01*
X7685343Y-12772754D01*
X7840908Y-12772754D01*
X22207790Y-12772754D02*
X22207790Y-12617189D01*
X22052225Y-12617189D01*
X22052225Y-12772754D01*
X22207790Y-12772754D01*
X24644762Y-8080129D02*
X24644762Y-7924564D01*
X24489197Y-7924564D01*
X24489197Y-8080129D01*
X24644762Y-8080129D01*
D11*
X2475635Y-14774325D02*
X2475635Y-14574325D01*
X2475635Y-14574325D02*
X2523254Y-14574325D01*
X2523254Y-14574325D02*
X2551826Y-14583848D01*
X2551826Y-14583848D02*
X2570873Y-14602896D01*
X2570873Y-14602896D02*
X2580397Y-14621944D01*
X2580397Y-14621944D02*
X2589921Y-14660039D01*
X2589921Y-14660039D02*
X2589921Y-14688610D01*
X2589921Y-14688610D02*
X2580397Y-14726705D01*
X2580397Y-14726705D02*
X2570873Y-14745753D01*
X2570873Y-14745753D02*
X2551826Y-14764801D01*
X2551826Y-14764801D02*
X2523254Y-14774325D01*
X2523254Y-14774325D02*
X2475635Y-14774325D01*
X2675635Y-14774325D02*
X2675635Y-14640991D01*
X2675635Y-14679086D02*
X2685159Y-14660039D01*
X2685159Y-14660039D02*
X2694683Y-14650515D01*
X2694683Y-14650515D02*
X2713730Y-14640991D01*
X2713730Y-14640991D02*
X2732778Y-14640991D01*
X2799445Y-14774325D02*
X2799445Y-14640991D01*
X2799445Y-14574325D02*
X2789921Y-14583848D01*
X2789921Y-14583848D02*
X2799445Y-14593372D01*
X2799445Y-14593372D02*
X2808968Y-14583848D01*
X2808968Y-14583848D02*
X2799445Y-14574325D01*
X2799445Y-14574325D02*
X2799445Y-14593372D01*
X2923254Y-14774325D02*
X2904207Y-14764801D01*
X2904207Y-14764801D02*
X2894683Y-14745753D01*
X2894683Y-14745753D02*
X2894683Y-14574325D01*
X3028016Y-14774325D02*
X3008968Y-14764801D01*
X3008968Y-14764801D02*
X2999445Y-14745753D01*
X2999445Y-14745753D02*
X2999445Y-14574325D01*
X3256588Y-14774325D02*
X3256588Y-14574325D01*
X3256588Y-14574325D02*
X3323254Y-14717182D01*
X3323254Y-14717182D02*
X3389921Y-14574325D01*
X3389921Y-14574325D02*
X3389921Y-14774325D01*
X3570873Y-14774325D02*
X3570873Y-14669563D01*
X3570873Y-14669563D02*
X3561349Y-14650515D01*
X3561349Y-14650515D02*
X3542302Y-14640991D01*
X3542302Y-14640991D02*
X3504207Y-14640991D01*
X3504207Y-14640991D02*
X3485159Y-14650515D01*
X3570873Y-14764801D02*
X3551826Y-14774325D01*
X3551826Y-14774325D02*
X3504207Y-14774325D01*
X3504207Y-14774325D02*
X3485159Y-14764801D01*
X3485159Y-14764801D02*
X3475635Y-14745753D01*
X3475635Y-14745753D02*
X3475635Y-14726705D01*
X3475635Y-14726705D02*
X3485159Y-14707658D01*
X3485159Y-14707658D02*
X3504207Y-14698134D01*
X3504207Y-14698134D02*
X3551826Y-14698134D01*
X3551826Y-14698134D02*
X3570873Y-14688610D01*
X3666111Y-14640991D02*
X3666111Y-14840991D01*
X3666111Y-14650515D02*
X3685159Y-14640991D01*
X3685159Y-14640991D02*
X3723254Y-14640991D01*
X3723254Y-14640991D02*
X3742302Y-14650515D01*
X3742302Y-14650515D02*
X3751826Y-14660039D01*
X3751826Y-14660039D02*
X3761349Y-14679086D01*
X3761349Y-14679086D02*
X3761349Y-14736229D01*
X3761349Y-14736229D02*
X3751826Y-14755277D01*
X3751826Y-14755277D02*
X3742302Y-14764801D01*
X3742302Y-14764801D02*
X3723254Y-14774325D01*
X3723254Y-14774325D02*
X3685159Y-14774325D01*
X3685159Y-14774325D02*
X3666111Y-14764801D01*
X3847064Y-14755277D02*
X3856588Y-14764801D01*
X3856588Y-14764801D02*
X3847064Y-14774325D01*
X3847064Y-14774325D02*
X3837540Y-14764801D01*
X3837540Y-14764801D02*
X3847064Y-14755277D01*
X3847064Y-14755277D02*
X3847064Y-14774325D01*
X3847064Y-14650515D02*
X3856588Y-14660039D01*
X3856588Y-14660039D02*
X3847064Y-14669563D01*
X3847064Y-14669563D02*
X3837540Y-14660039D01*
X3837540Y-14660039D02*
X3847064Y-14650515D01*
X3847064Y-14650515D02*
X3847064Y-14669563D01*
D12*
X2194858Y-15092841D02*
X2214858Y-15112841D01*
X2214858Y-15092841D02*
X2194858Y-15112841D01*
D11*
X2513730Y-14994325D02*
X2532778Y-14994325D01*
X2532778Y-14994325D02*
X2551826Y-15003848D01*
X2551826Y-15003848D02*
X2561350Y-15013372D01*
X2561350Y-15013372D02*
X2570873Y-15032420D01*
X2570873Y-15032420D02*
X2580397Y-15070515D01*
X2580397Y-15070515D02*
X2580397Y-15118134D01*
X2580397Y-15118134D02*
X2570873Y-15156229D01*
X2570873Y-15156229D02*
X2561350Y-15175277D01*
X2561350Y-15175277D02*
X2551826Y-15184801D01*
X2551826Y-15184801D02*
X2532778Y-15194325D01*
X2532778Y-15194325D02*
X2513730Y-15194325D01*
X2513730Y-15194325D02*
X2494683Y-15184801D01*
X2494683Y-15184801D02*
X2485159Y-15175277D01*
X2485159Y-15175277D02*
X2475635Y-15156229D01*
X2475635Y-15156229D02*
X2466111Y-15118134D01*
X2466111Y-15118134D02*
X2466111Y-15070515D01*
X2466111Y-15070515D02*
X2475635Y-15032420D01*
X2475635Y-15032420D02*
X2485159Y-15013372D01*
X2485159Y-15013372D02*
X2494683Y-15003848D01*
X2494683Y-15003848D02*
X2513730Y-14994325D01*
X2666111Y-15175277D02*
X2675635Y-15184801D01*
X2675635Y-15184801D02*
X2666111Y-15194325D01*
X2666111Y-15194325D02*
X2656588Y-15184801D01*
X2656588Y-15184801D02*
X2666111Y-15175277D01*
X2666111Y-15175277D02*
X2666111Y-15194325D01*
X2751826Y-15013372D02*
X2761350Y-15003848D01*
X2761350Y-15003848D02*
X2780397Y-14994325D01*
X2780397Y-14994325D02*
X2828016Y-14994325D01*
X2828016Y-14994325D02*
X2847064Y-15003848D01*
X2847064Y-15003848D02*
X2856588Y-15013372D01*
X2856588Y-15013372D02*
X2866111Y-15032420D01*
X2866111Y-15032420D02*
X2866111Y-15051467D01*
X2866111Y-15051467D02*
X2856588Y-15080039D01*
X2856588Y-15080039D02*
X2742302Y-15194325D01*
X2742302Y-15194325D02*
X2866111Y-15194325D01*
X2989921Y-14994325D02*
X3008969Y-14994325D01*
X3008969Y-14994325D02*
X3028016Y-15003848D01*
X3028016Y-15003848D02*
X3037540Y-15013372D01*
X3037540Y-15013372D02*
X3047064Y-15032420D01*
X3047064Y-15032420D02*
X3056588Y-15070515D01*
X3056588Y-15070515D02*
X3056588Y-15118134D01*
X3056588Y-15118134D02*
X3047064Y-15156229D01*
X3047064Y-15156229D02*
X3037540Y-15175277D01*
X3037540Y-15175277D02*
X3028016Y-15184801D01*
X3028016Y-15184801D02*
X3008969Y-15194325D01*
X3008969Y-15194325D02*
X2989921Y-15194325D01*
X2989921Y-15194325D02*
X2970873Y-15184801D01*
X2970873Y-15184801D02*
X2961349Y-15175277D01*
X2961349Y-15175277D02*
X2951826Y-15156229D01*
X2951826Y-15156229D02*
X2942302Y-15118134D01*
X2942302Y-15118134D02*
X2942302Y-15070515D01*
X2942302Y-15070515D02*
X2951826Y-15032420D01*
X2951826Y-15032420D02*
X2961349Y-15013372D01*
X2961349Y-15013372D02*
X2970873Y-15003848D01*
X2970873Y-15003848D02*
X2989921Y-14994325D01*
X3180397Y-14994325D02*
X3199445Y-14994325D01*
X3199445Y-14994325D02*
X3218492Y-15003848D01*
X3218492Y-15003848D02*
X3228016Y-15013372D01*
X3228016Y-15013372D02*
X3237540Y-15032420D01*
X3237540Y-15032420D02*
X3247064Y-15070515D01*
X3247064Y-15070515D02*
X3247064Y-15118134D01*
X3247064Y-15118134D02*
X3237540Y-15156229D01*
X3237540Y-15156229D02*
X3228016Y-15175277D01*
X3228016Y-15175277D02*
X3218492Y-15184801D01*
X3218492Y-15184801D02*
X3199445Y-15194325D01*
X3199445Y-15194325D02*
X3180397Y-15194325D01*
X3180397Y-15194325D02*
X3161349Y-15184801D01*
X3161349Y-15184801D02*
X3151826Y-15175277D01*
X3151826Y-15175277D02*
X3142302Y-15156229D01*
X3142302Y-15156229D02*
X3132778Y-15118134D01*
X3132778Y-15118134D02*
X3132778Y-15070515D01*
X3132778Y-15070515D02*
X3142302Y-15032420D01*
X3142302Y-15032420D02*
X3151826Y-15013372D01*
X3151826Y-15013372D02*
X3161349Y-15003848D01*
X3161349Y-15003848D02*
X3180397Y-14994325D01*
X3332778Y-15194325D02*
X3332778Y-15060991D01*
X3332778Y-15080039D02*
X3342302Y-15070515D01*
X3342302Y-15070515D02*
X3361349Y-15060991D01*
X3361349Y-15060991D02*
X3389921Y-15060991D01*
X3389921Y-15060991D02*
X3408969Y-15070515D01*
X3408969Y-15070515D02*
X3418492Y-15089563D01*
X3418492Y-15089563D02*
X3418492Y-15194325D01*
X3418492Y-15089563D02*
X3428016Y-15070515D01*
X3428016Y-15070515D02*
X3447064Y-15060991D01*
X3447064Y-15060991D02*
X3475635Y-15060991D01*
X3475635Y-15060991D02*
X3494683Y-15070515D01*
X3494683Y-15070515D02*
X3504207Y-15089563D01*
X3504207Y-15089563D02*
X3504207Y-15194325D01*
X3599445Y-15194325D02*
X3599445Y-15060991D01*
X3599445Y-15080039D02*
X3608969Y-15070515D01*
X3608969Y-15070515D02*
X3628016Y-15060991D01*
X3628016Y-15060991D02*
X3656588Y-15060991D01*
X3656588Y-15060991D02*
X3675635Y-15070515D01*
X3675635Y-15070515D02*
X3685159Y-15089563D01*
X3685159Y-15089563D02*
X3685159Y-15194325D01*
X3685159Y-15089563D02*
X3694683Y-15070515D01*
X3694683Y-15070515D02*
X3713730Y-15060991D01*
X3713730Y-15060991D02*
X3742302Y-15060991D01*
X3742302Y-15060991D02*
X3761350Y-15070515D01*
X3761350Y-15070515D02*
X3770873Y-15089563D01*
X3770873Y-15089563D02*
X3770873Y-15194325D01*
X4161350Y-14984801D02*
X3989921Y-15241944D01*
X4418493Y-14994325D02*
X4437540Y-14994325D01*
X4437540Y-14994325D02*
X4456588Y-15003848D01*
X4456588Y-15003848D02*
X4466112Y-15013372D01*
X4466112Y-15013372D02*
X4475635Y-15032420D01*
X4475635Y-15032420D02*
X4485159Y-15070515D01*
X4485159Y-15070515D02*
X4485159Y-15118134D01*
X4485159Y-15118134D02*
X4475635Y-15156229D01*
X4475635Y-15156229D02*
X4466112Y-15175277D01*
X4466112Y-15175277D02*
X4456588Y-15184801D01*
X4456588Y-15184801D02*
X4437540Y-15194325D01*
X4437540Y-15194325D02*
X4418493Y-15194325D01*
X4418493Y-15194325D02*
X4399445Y-15184801D01*
X4399445Y-15184801D02*
X4389921Y-15175277D01*
X4389921Y-15175277D02*
X4380397Y-15156229D01*
X4380397Y-15156229D02*
X4370874Y-15118134D01*
X4370874Y-15118134D02*
X4370874Y-15070515D01*
X4370874Y-15070515D02*
X4380397Y-15032420D01*
X4380397Y-15032420D02*
X4389921Y-15013372D01*
X4389921Y-15013372D02*
X4399445Y-15003848D01*
X4399445Y-15003848D02*
X4418493Y-14994325D01*
X4570874Y-15175277D02*
X4580397Y-15184801D01*
X4580397Y-15184801D02*
X4570874Y-15194325D01*
X4570874Y-15194325D02*
X4561350Y-15184801D01*
X4561350Y-15184801D02*
X4570874Y-15175277D01*
X4570874Y-15175277D02*
X4570874Y-15194325D01*
X4704207Y-14994325D02*
X4723255Y-14994325D01*
X4723255Y-14994325D02*
X4742302Y-15003848D01*
X4742302Y-15003848D02*
X4751826Y-15013372D01*
X4751826Y-15013372D02*
X4761350Y-15032420D01*
X4761350Y-15032420D02*
X4770874Y-15070515D01*
X4770874Y-15070515D02*
X4770874Y-15118134D01*
X4770874Y-15118134D02*
X4761350Y-15156229D01*
X4761350Y-15156229D02*
X4751826Y-15175277D01*
X4751826Y-15175277D02*
X4742302Y-15184801D01*
X4742302Y-15184801D02*
X4723255Y-15194325D01*
X4723255Y-15194325D02*
X4704207Y-15194325D01*
X4704207Y-15194325D02*
X4685159Y-15184801D01*
X4685159Y-15184801D02*
X4675635Y-15175277D01*
X4675635Y-15175277D02*
X4666112Y-15156229D01*
X4666112Y-15156229D02*
X4656588Y-15118134D01*
X4656588Y-15118134D02*
X4656588Y-15070515D01*
X4656588Y-15070515D02*
X4666112Y-15032420D01*
X4666112Y-15032420D02*
X4675635Y-15013372D01*
X4675635Y-15013372D02*
X4685159Y-15003848D01*
X4685159Y-15003848D02*
X4704207Y-14994325D01*
X4894683Y-14994325D02*
X4913731Y-14994325D01*
X4913731Y-14994325D02*
X4932778Y-15003848D01*
X4932778Y-15003848D02*
X4942302Y-15013372D01*
X4942302Y-15013372D02*
X4951826Y-15032420D01*
X4951826Y-15032420D02*
X4961350Y-15070515D01*
X4961350Y-15070515D02*
X4961350Y-15118134D01*
X4961350Y-15118134D02*
X4951826Y-15156229D01*
X4951826Y-15156229D02*
X4942302Y-15175277D01*
X4942302Y-15175277D02*
X4932778Y-15184801D01*
X4932778Y-15184801D02*
X4913731Y-15194325D01*
X4913731Y-15194325D02*
X4894683Y-15194325D01*
X4894683Y-15194325D02*
X4875635Y-15184801D01*
X4875635Y-15184801D02*
X4866112Y-15175277D01*
X4866112Y-15175277D02*
X4856588Y-15156229D01*
X4856588Y-15156229D02*
X4847064Y-15118134D01*
X4847064Y-15118134D02*
X4847064Y-15070515D01*
X4847064Y-15070515D02*
X4856588Y-15032420D01*
X4856588Y-15032420D02*
X4866112Y-15013372D01*
X4866112Y-15013372D02*
X4875635Y-15003848D01*
X4875635Y-15003848D02*
X4894683Y-14994325D01*
X5028016Y-14994325D02*
X5161350Y-14994325D01*
X5161350Y-14994325D02*
X5075635Y-15194325D01*
X5247064Y-15194325D02*
X5285159Y-15194325D01*
X5285159Y-15194325D02*
X5304207Y-15184801D01*
X5304207Y-15184801D02*
X5313731Y-15175277D01*
X5313731Y-15175277D02*
X5332778Y-15146705D01*
X5332778Y-15146705D02*
X5342302Y-15108610D01*
X5342302Y-15108610D02*
X5342302Y-15032420D01*
X5342302Y-15032420D02*
X5332778Y-15013372D01*
X5332778Y-15013372D02*
X5323255Y-15003848D01*
X5323255Y-15003848D02*
X5304207Y-14994325D01*
X5304207Y-14994325D02*
X5266112Y-14994325D01*
X5266112Y-14994325D02*
X5247064Y-15003848D01*
X5247064Y-15003848D02*
X5237540Y-15013372D01*
X5237540Y-15013372D02*
X5228016Y-15032420D01*
X5228016Y-15032420D02*
X5228016Y-15080039D01*
X5228016Y-15080039D02*
X5237540Y-15099086D01*
X5237540Y-15099086D02*
X5247064Y-15108610D01*
X5247064Y-15108610D02*
X5266112Y-15118134D01*
X5266112Y-15118134D02*
X5304207Y-15118134D01*
X5304207Y-15118134D02*
X5323255Y-15108610D01*
X5323255Y-15108610D02*
X5332778Y-15099086D01*
X5332778Y-15099086D02*
X5342302Y-15080039D01*
X5418493Y-14994325D02*
X5418493Y-15032420D01*
X5494683Y-14994325D02*
X5494683Y-15032420D01*
X5789921Y-15270515D02*
X5780397Y-15260991D01*
X5780397Y-15260991D02*
X5761350Y-15232420D01*
X5761350Y-15232420D02*
X5751826Y-15213372D01*
X5751826Y-15213372D02*
X5742302Y-15184801D01*
X5742302Y-15184801D02*
X5732778Y-15137182D01*
X5732778Y-15137182D02*
X5732778Y-15099086D01*
X5732778Y-15099086D02*
X5742302Y-15051467D01*
X5742302Y-15051467D02*
X5751826Y-15022896D01*
X5751826Y-15022896D02*
X5761350Y-15003848D01*
X5761350Y-15003848D02*
X5780397Y-14975277D01*
X5780397Y-14975277D02*
X5789921Y-14965753D01*
X5847064Y-14994325D02*
X5970874Y-14994325D01*
X5970874Y-14994325D02*
X5904207Y-15070515D01*
X5904207Y-15070515D02*
X5932778Y-15070515D01*
X5932778Y-15070515D02*
X5951826Y-15080039D01*
X5951826Y-15080039D02*
X5961350Y-15089563D01*
X5961350Y-15089563D02*
X5970874Y-15108610D01*
X5970874Y-15108610D02*
X5970874Y-15156229D01*
X5970874Y-15156229D02*
X5961350Y-15175277D01*
X5961350Y-15175277D02*
X5951826Y-15184801D01*
X5951826Y-15184801D02*
X5932778Y-15194325D01*
X5932778Y-15194325D02*
X5875635Y-15194325D01*
X5875635Y-15194325D02*
X5856588Y-15184801D01*
X5856588Y-15184801D02*
X5847064Y-15175277D01*
X6208969Y-15194325D02*
X6208969Y-14994325D01*
X6294683Y-15194325D02*
X6294683Y-15089563D01*
X6294683Y-15089563D02*
X6285159Y-15070515D01*
X6285159Y-15070515D02*
X6266112Y-15060991D01*
X6266112Y-15060991D02*
X6237540Y-15060991D01*
X6237540Y-15060991D02*
X6218493Y-15070515D01*
X6218493Y-15070515D02*
X6208969Y-15080039D01*
X6418493Y-15194325D02*
X6399445Y-15184801D01*
X6399445Y-15184801D02*
X6389921Y-15175277D01*
X6389921Y-15175277D02*
X6380397Y-15156229D01*
X6380397Y-15156229D02*
X6380397Y-15099086D01*
X6380397Y-15099086D02*
X6389921Y-15080039D01*
X6389921Y-15080039D02*
X6399445Y-15070515D01*
X6399445Y-15070515D02*
X6418493Y-15060991D01*
X6418493Y-15060991D02*
X6447064Y-15060991D01*
X6447064Y-15060991D02*
X6466112Y-15070515D01*
X6466112Y-15070515D02*
X6475636Y-15080039D01*
X6475636Y-15080039D02*
X6485159Y-15099086D01*
X6485159Y-15099086D02*
X6485159Y-15156229D01*
X6485159Y-15156229D02*
X6475636Y-15175277D01*
X6475636Y-15175277D02*
X6466112Y-15184801D01*
X6466112Y-15184801D02*
X6447064Y-15194325D01*
X6447064Y-15194325D02*
X6418493Y-15194325D01*
X6599445Y-15194325D02*
X6580397Y-15184801D01*
X6580397Y-15184801D02*
X6570874Y-15165753D01*
X6570874Y-15165753D02*
X6570874Y-14994325D01*
X6751826Y-15184801D02*
X6732778Y-15194325D01*
X6732778Y-15194325D02*
X6694683Y-15194325D01*
X6694683Y-15194325D02*
X6675636Y-15184801D01*
X6675636Y-15184801D02*
X6666112Y-15165753D01*
X6666112Y-15165753D02*
X6666112Y-15089563D01*
X6666112Y-15089563D02*
X6675636Y-15070515D01*
X6675636Y-15070515D02*
X6694683Y-15060991D01*
X6694683Y-15060991D02*
X6732778Y-15060991D01*
X6732778Y-15060991D02*
X6751826Y-15070515D01*
X6751826Y-15070515D02*
X6761350Y-15089563D01*
X6761350Y-15089563D02*
X6761350Y-15108610D01*
X6761350Y-15108610D02*
X6666112Y-15127658D01*
X6837540Y-15184801D02*
X6856588Y-15194325D01*
X6856588Y-15194325D02*
X6894683Y-15194325D01*
X6894683Y-15194325D02*
X6913731Y-15184801D01*
X6913731Y-15184801D02*
X6923255Y-15165753D01*
X6923255Y-15165753D02*
X6923255Y-15156229D01*
X6923255Y-15156229D02*
X6913731Y-15137182D01*
X6913731Y-15137182D02*
X6894683Y-15127658D01*
X6894683Y-15127658D02*
X6866112Y-15127658D01*
X6866112Y-15127658D02*
X6847064Y-15118134D01*
X6847064Y-15118134D02*
X6837540Y-15099086D01*
X6837540Y-15099086D02*
X6837540Y-15089563D01*
X6837540Y-15089563D02*
X6847064Y-15070515D01*
X6847064Y-15070515D02*
X6866112Y-15060991D01*
X6866112Y-15060991D02*
X6894683Y-15060991D01*
X6894683Y-15060991D02*
X6913731Y-15070515D01*
X6989921Y-15270515D02*
X6999445Y-15260991D01*
X6999445Y-15260991D02*
X7018493Y-15232420D01*
X7018493Y-15232420D02*
X7028017Y-15213372D01*
X7028017Y-15213372D02*
X7037540Y-15184801D01*
X7037540Y-15184801D02*
X7047064Y-15137182D01*
X7047064Y-15137182D02*
X7047064Y-15099086D01*
X7047064Y-15099086D02*
X7037540Y-15051467D01*
X7037540Y-15051467D02*
X7028017Y-15022896D01*
X7028017Y-15022896D02*
X7018493Y-15003848D01*
X7018493Y-15003848D02*
X6999445Y-14975277D01*
X6999445Y-14975277D02*
X6989921Y-14965753D01*
D12*
X2214858Y-15366841D02*
G75*
G02*
X2189858Y-15366841I-12500J0D01*
G01*
X2189858Y-15366841D02*
G75*
G02*
X2214858Y-15366841I12500J0D01*
G01*
D11*
X2513730Y-15258325D02*
X2532778Y-15258325D01*
X2532778Y-15258325D02*
X2551826Y-15267848D01*
X2551826Y-15267848D02*
X2561350Y-15277372D01*
X2561350Y-15277372D02*
X2570873Y-15296420D01*
X2570873Y-15296420D02*
X2580397Y-15334515D01*
X2580397Y-15334515D02*
X2580397Y-15382134D01*
X2580397Y-15382134D02*
X2570873Y-15420229D01*
X2570873Y-15420229D02*
X2561350Y-15439277D01*
X2561350Y-15439277D02*
X2551826Y-15448801D01*
X2551826Y-15448801D02*
X2532778Y-15458325D01*
X2532778Y-15458325D02*
X2513730Y-15458325D01*
X2513730Y-15458325D02*
X2494683Y-15448801D01*
X2494683Y-15448801D02*
X2485159Y-15439277D01*
X2485159Y-15439277D02*
X2475635Y-15420229D01*
X2475635Y-15420229D02*
X2466111Y-15382134D01*
X2466111Y-15382134D02*
X2466111Y-15334515D01*
X2466111Y-15334515D02*
X2475635Y-15296420D01*
X2475635Y-15296420D02*
X2485159Y-15277372D01*
X2485159Y-15277372D02*
X2494683Y-15267848D01*
X2494683Y-15267848D02*
X2513730Y-15258325D01*
X2666111Y-15439277D02*
X2675635Y-15448801D01*
X2675635Y-15448801D02*
X2666111Y-15458325D01*
X2666111Y-15458325D02*
X2656588Y-15448801D01*
X2656588Y-15448801D02*
X2666111Y-15439277D01*
X2666111Y-15439277D02*
X2666111Y-15458325D01*
X2751826Y-15277372D02*
X2761350Y-15267848D01*
X2761350Y-15267848D02*
X2780397Y-15258325D01*
X2780397Y-15258325D02*
X2828016Y-15258325D01*
X2828016Y-15258325D02*
X2847064Y-15267848D01*
X2847064Y-15267848D02*
X2856588Y-15277372D01*
X2856588Y-15277372D02*
X2866111Y-15296420D01*
X2866111Y-15296420D02*
X2866111Y-15315467D01*
X2866111Y-15315467D02*
X2856588Y-15344039D01*
X2856588Y-15344039D02*
X2742302Y-15458325D01*
X2742302Y-15458325D02*
X2866111Y-15458325D01*
X3047064Y-15258325D02*
X2951826Y-15258325D01*
X2951826Y-15258325D02*
X2942302Y-15353563D01*
X2942302Y-15353563D02*
X2951826Y-15344039D01*
X2951826Y-15344039D02*
X2970873Y-15334515D01*
X2970873Y-15334515D02*
X3018492Y-15334515D01*
X3018492Y-15334515D02*
X3037540Y-15344039D01*
X3037540Y-15344039D02*
X3047064Y-15353563D01*
X3047064Y-15353563D02*
X3056588Y-15372610D01*
X3056588Y-15372610D02*
X3056588Y-15420229D01*
X3056588Y-15420229D02*
X3047064Y-15439277D01*
X3047064Y-15439277D02*
X3037540Y-15448801D01*
X3037540Y-15448801D02*
X3018492Y-15458325D01*
X3018492Y-15458325D02*
X2970873Y-15458325D01*
X2970873Y-15458325D02*
X2951826Y-15448801D01*
X2951826Y-15448801D02*
X2942302Y-15439277D01*
X3180397Y-15258325D02*
X3199445Y-15258325D01*
X3199445Y-15258325D02*
X3218492Y-15267848D01*
X3218492Y-15267848D02*
X3228016Y-15277372D01*
X3228016Y-15277372D02*
X3237540Y-15296420D01*
X3237540Y-15296420D02*
X3247064Y-15334515D01*
X3247064Y-15334515D02*
X3247064Y-15382134D01*
X3247064Y-15382134D02*
X3237540Y-15420229D01*
X3237540Y-15420229D02*
X3228016Y-15439277D01*
X3228016Y-15439277D02*
X3218492Y-15448801D01*
X3218492Y-15448801D02*
X3199445Y-15458325D01*
X3199445Y-15458325D02*
X3180397Y-15458325D01*
X3180397Y-15458325D02*
X3161349Y-15448801D01*
X3161349Y-15448801D02*
X3151826Y-15439277D01*
X3151826Y-15439277D02*
X3142302Y-15420229D01*
X3142302Y-15420229D02*
X3132778Y-15382134D01*
X3132778Y-15382134D02*
X3132778Y-15334515D01*
X3132778Y-15334515D02*
X3142302Y-15296420D01*
X3142302Y-15296420D02*
X3151826Y-15277372D01*
X3151826Y-15277372D02*
X3161349Y-15267848D01*
X3161349Y-15267848D02*
X3180397Y-15258325D01*
X3332778Y-15458325D02*
X3332778Y-15324991D01*
X3332778Y-15344039D02*
X3342302Y-15334515D01*
X3342302Y-15334515D02*
X3361349Y-15324991D01*
X3361349Y-15324991D02*
X3389921Y-15324991D01*
X3389921Y-15324991D02*
X3408969Y-15334515D01*
X3408969Y-15334515D02*
X3418492Y-15353563D01*
X3418492Y-15353563D02*
X3418492Y-15458325D01*
X3418492Y-15353563D02*
X3428016Y-15334515D01*
X3428016Y-15334515D02*
X3447064Y-15324991D01*
X3447064Y-15324991D02*
X3475635Y-15324991D01*
X3475635Y-15324991D02*
X3494683Y-15334515D01*
X3494683Y-15334515D02*
X3504207Y-15353563D01*
X3504207Y-15353563D02*
X3504207Y-15458325D01*
X3599445Y-15458325D02*
X3599445Y-15324991D01*
X3599445Y-15344039D02*
X3608969Y-15334515D01*
X3608969Y-15334515D02*
X3628016Y-15324991D01*
X3628016Y-15324991D02*
X3656588Y-15324991D01*
X3656588Y-15324991D02*
X3675635Y-15334515D01*
X3675635Y-15334515D02*
X3685159Y-15353563D01*
X3685159Y-15353563D02*
X3685159Y-15458325D01*
X3685159Y-15353563D02*
X3694683Y-15334515D01*
X3694683Y-15334515D02*
X3713730Y-15324991D01*
X3713730Y-15324991D02*
X3742302Y-15324991D01*
X3742302Y-15324991D02*
X3761350Y-15334515D01*
X3761350Y-15334515D02*
X3770873Y-15353563D01*
X3770873Y-15353563D02*
X3770873Y-15458325D01*
X4161350Y-15248801D02*
X3989921Y-15505944D01*
X4418493Y-15258325D02*
X4437540Y-15258325D01*
X4437540Y-15258325D02*
X4456588Y-15267848D01*
X4456588Y-15267848D02*
X4466112Y-15277372D01*
X4466112Y-15277372D02*
X4475635Y-15296420D01*
X4475635Y-15296420D02*
X4485159Y-15334515D01*
X4485159Y-15334515D02*
X4485159Y-15382134D01*
X4485159Y-15382134D02*
X4475635Y-15420229D01*
X4475635Y-15420229D02*
X4466112Y-15439277D01*
X4466112Y-15439277D02*
X4456588Y-15448801D01*
X4456588Y-15448801D02*
X4437540Y-15458325D01*
X4437540Y-15458325D02*
X4418493Y-15458325D01*
X4418493Y-15458325D02*
X4399445Y-15448801D01*
X4399445Y-15448801D02*
X4389921Y-15439277D01*
X4389921Y-15439277D02*
X4380397Y-15420229D01*
X4380397Y-15420229D02*
X4370874Y-15382134D01*
X4370874Y-15382134D02*
X4370874Y-15334515D01*
X4370874Y-15334515D02*
X4380397Y-15296420D01*
X4380397Y-15296420D02*
X4389921Y-15277372D01*
X4389921Y-15277372D02*
X4399445Y-15267848D01*
X4399445Y-15267848D02*
X4418493Y-15258325D01*
X4570874Y-15439277D02*
X4580397Y-15448801D01*
X4580397Y-15448801D02*
X4570874Y-15458325D01*
X4570874Y-15458325D02*
X4561350Y-15448801D01*
X4561350Y-15448801D02*
X4570874Y-15439277D01*
X4570874Y-15439277D02*
X4570874Y-15458325D01*
X4704207Y-15258325D02*
X4723255Y-15258325D01*
X4723255Y-15258325D02*
X4742302Y-15267848D01*
X4742302Y-15267848D02*
X4751826Y-15277372D01*
X4751826Y-15277372D02*
X4761350Y-15296420D01*
X4761350Y-15296420D02*
X4770874Y-15334515D01*
X4770874Y-15334515D02*
X4770874Y-15382134D01*
X4770874Y-15382134D02*
X4761350Y-15420229D01*
X4761350Y-15420229D02*
X4751826Y-15439277D01*
X4751826Y-15439277D02*
X4742302Y-15448801D01*
X4742302Y-15448801D02*
X4723255Y-15458325D01*
X4723255Y-15458325D02*
X4704207Y-15458325D01*
X4704207Y-15458325D02*
X4685159Y-15448801D01*
X4685159Y-15448801D02*
X4675635Y-15439277D01*
X4675635Y-15439277D02*
X4666112Y-15420229D01*
X4666112Y-15420229D02*
X4656588Y-15382134D01*
X4656588Y-15382134D02*
X4656588Y-15334515D01*
X4656588Y-15334515D02*
X4666112Y-15296420D01*
X4666112Y-15296420D02*
X4675635Y-15277372D01*
X4675635Y-15277372D02*
X4685159Y-15267848D01*
X4685159Y-15267848D02*
X4704207Y-15258325D01*
X4894683Y-15258325D02*
X4913731Y-15258325D01*
X4913731Y-15258325D02*
X4932778Y-15267848D01*
X4932778Y-15267848D02*
X4942302Y-15277372D01*
X4942302Y-15277372D02*
X4951826Y-15296420D01*
X4951826Y-15296420D02*
X4961350Y-15334515D01*
X4961350Y-15334515D02*
X4961350Y-15382134D01*
X4961350Y-15382134D02*
X4951826Y-15420229D01*
X4951826Y-15420229D02*
X4942302Y-15439277D01*
X4942302Y-15439277D02*
X4932778Y-15448801D01*
X4932778Y-15448801D02*
X4913731Y-15458325D01*
X4913731Y-15458325D02*
X4894683Y-15458325D01*
X4894683Y-15458325D02*
X4875635Y-15448801D01*
X4875635Y-15448801D02*
X4866112Y-15439277D01*
X4866112Y-15439277D02*
X4856588Y-15420229D01*
X4856588Y-15420229D02*
X4847064Y-15382134D01*
X4847064Y-15382134D02*
X4847064Y-15334515D01*
X4847064Y-15334515D02*
X4856588Y-15296420D01*
X4856588Y-15296420D02*
X4866112Y-15277372D01*
X4866112Y-15277372D02*
X4875635Y-15267848D01*
X4875635Y-15267848D02*
X4894683Y-15258325D01*
X5056588Y-15458325D02*
X5094683Y-15458325D01*
X5094683Y-15458325D02*
X5113731Y-15448801D01*
X5113731Y-15448801D02*
X5123255Y-15439277D01*
X5123255Y-15439277D02*
X5142302Y-15410705D01*
X5142302Y-15410705D02*
X5151826Y-15372610D01*
X5151826Y-15372610D02*
X5151826Y-15296420D01*
X5151826Y-15296420D02*
X5142302Y-15277372D01*
X5142302Y-15277372D02*
X5132778Y-15267848D01*
X5132778Y-15267848D02*
X5113731Y-15258325D01*
X5113731Y-15258325D02*
X5075635Y-15258325D01*
X5075635Y-15258325D02*
X5056588Y-15267848D01*
X5056588Y-15267848D02*
X5047064Y-15277372D01*
X5047064Y-15277372D02*
X5037540Y-15296420D01*
X5037540Y-15296420D02*
X5037540Y-15344039D01*
X5037540Y-15344039D02*
X5047064Y-15363086D01*
X5047064Y-15363086D02*
X5056588Y-15372610D01*
X5056588Y-15372610D02*
X5075635Y-15382134D01*
X5075635Y-15382134D02*
X5113731Y-15382134D01*
X5113731Y-15382134D02*
X5132778Y-15372610D01*
X5132778Y-15372610D02*
X5142302Y-15363086D01*
X5142302Y-15363086D02*
X5151826Y-15344039D01*
X5266112Y-15344039D02*
X5247064Y-15334515D01*
X5247064Y-15334515D02*
X5237540Y-15324991D01*
X5237540Y-15324991D02*
X5228016Y-15305944D01*
X5228016Y-15305944D02*
X5228016Y-15296420D01*
X5228016Y-15296420D02*
X5237540Y-15277372D01*
X5237540Y-15277372D02*
X5247064Y-15267848D01*
X5247064Y-15267848D02*
X5266112Y-15258325D01*
X5266112Y-15258325D02*
X5304207Y-15258325D01*
X5304207Y-15258325D02*
X5323255Y-15267848D01*
X5323255Y-15267848D02*
X5332778Y-15277372D01*
X5332778Y-15277372D02*
X5342302Y-15296420D01*
X5342302Y-15296420D02*
X5342302Y-15305944D01*
X5342302Y-15305944D02*
X5332778Y-15324991D01*
X5332778Y-15324991D02*
X5323255Y-15334515D01*
X5323255Y-15334515D02*
X5304207Y-15344039D01*
X5304207Y-15344039D02*
X5266112Y-15344039D01*
X5266112Y-15344039D02*
X5247064Y-15353563D01*
X5247064Y-15353563D02*
X5237540Y-15363086D01*
X5237540Y-15363086D02*
X5228016Y-15382134D01*
X5228016Y-15382134D02*
X5228016Y-15420229D01*
X5228016Y-15420229D02*
X5237540Y-15439277D01*
X5237540Y-15439277D02*
X5247064Y-15448801D01*
X5247064Y-15448801D02*
X5266112Y-15458325D01*
X5266112Y-15458325D02*
X5304207Y-15458325D01*
X5304207Y-15458325D02*
X5323255Y-15448801D01*
X5323255Y-15448801D02*
X5332778Y-15439277D01*
X5332778Y-15439277D02*
X5342302Y-15420229D01*
X5342302Y-15420229D02*
X5342302Y-15382134D01*
X5342302Y-15382134D02*
X5332778Y-15363086D01*
X5332778Y-15363086D02*
X5323255Y-15353563D01*
X5323255Y-15353563D02*
X5304207Y-15344039D01*
X5418493Y-15258325D02*
X5418493Y-15296420D01*
X5494683Y-15258325D02*
X5494683Y-15296420D01*
X5789921Y-15534515D02*
X5780397Y-15524991D01*
X5780397Y-15524991D02*
X5761350Y-15496420D01*
X5761350Y-15496420D02*
X5751826Y-15477372D01*
X5751826Y-15477372D02*
X5742302Y-15448801D01*
X5742302Y-15448801D02*
X5732778Y-15401182D01*
X5732778Y-15401182D02*
X5732778Y-15363086D01*
X5732778Y-15363086D02*
X5742302Y-15315467D01*
X5742302Y-15315467D02*
X5751826Y-15286896D01*
X5751826Y-15286896D02*
X5761350Y-15267848D01*
X5761350Y-15267848D02*
X5780397Y-15239277D01*
X5780397Y-15239277D02*
X5789921Y-15229753D01*
X5970874Y-15458325D02*
X5856588Y-15458325D01*
X5913731Y-15458325D02*
X5913731Y-15258325D01*
X5913731Y-15258325D02*
X5894683Y-15286896D01*
X5894683Y-15286896D02*
X5875635Y-15305944D01*
X5875635Y-15305944D02*
X5856588Y-15315467D01*
X6142302Y-15324991D02*
X6142302Y-15458325D01*
X6094683Y-15248801D02*
X6047064Y-15391658D01*
X6047064Y-15391658D02*
X6170874Y-15391658D01*
X6399445Y-15458325D02*
X6399445Y-15258325D01*
X6485159Y-15458325D02*
X6485159Y-15353563D01*
X6485159Y-15353563D02*
X6475636Y-15334515D01*
X6475636Y-15334515D02*
X6456588Y-15324991D01*
X6456588Y-15324991D02*
X6428016Y-15324991D01*
X6428016Y-15324991D02*
X6408969Y-15334515D01*
X6408969Y-15334515D02*
X6399445Y-15344039D01*
X6608969Y-15458325D02*
X6589921Y-15448801D01*
X6589921Y-15448801D02*
X6580397Y-15439277D01*
X6580397Y-15439277D02*
X6570874Y-15420229D01*
X6570874Y-15420229D02*
X6570874Y-15363086D01*
X6570874Y-15363086D02*
X6580397Y-15344039D01*
X6580397Y-15344039D02*
X6589921Y-15334515D01*
X6589921Y-15334515D02*
X6608969Y-15324991D01*
X6608969Y-15324991D02*
X6637540Y-15324991D01*
X6637540Y-15324991D02*
X6656588Y-15334515D01*
X6656588Y-15334515D02*
X6666112Y-15344039D01*
X6666112Y-15344039D02*
X6675636Y-15363086D01*
X6675636Y-15363086D02*
X6675636Y-15420229D01*
X6675636Y-15420229D02*
X6666112Y-15439277D01*
X6666112Y-15439277D02*
X6656588Y-15448801D01*
X6656588Y-15448801D02*
X6637540Y-15458325D01*
X6637540Y-15458325D02*
X6608969Y-15458325D01*
X6789921Y-15458325D02*
X6770874Y-15448801D01*
X6770874Y-15448801D02*
X6761350Y-15429753D01*
X6761350Y-15429753D02*
X6761350Y-15258325D01*
X6942302Y-15448801D02*
X6923255Y-15458325D01*
X6923255Y-15458325D02*
X6885159Y-15458325D01*
X6885159Y-15458325D02*
X6866112Y-15448801D01*
X6866112Y-15448801D02*
X6856588Y-15429753D01*
X6856588Y-15429753D02*
X6856588Y-15353563D01*
X6856588Y-15353563D02*
X6866112Y-15334515D01*
X6866112Y-15334515D02*
X6885159Y-15324991D01*
X6885159Y-15324991D02*
X6923255Y-15324991D01*
X6923255Y-15324991D02*
X6942302Y-15334515D01*
X6942302Y-15334515D02*
X6951826Y-15353563D01*
X6951826Y-15353563D02*
X6951826Y-15372610D01*
X6951826Y-15372610D02*
X6856588Y-15391658D01*
X7028017Y-15448801D02*
X7047064Y-15458325D01*
X7047064Y-15458325D02*
X7085159Y-15458325D01*
X7085159Y-15458325D02*
X7104207Y-15448801D01*
X7104207Y-15448801D02*
X7113731Y-15429753D01*
X7113731Y-15429753D02*
X7113731Y-15420229D01*
X7113731Y-15420229D02*
X7104207Y-15401182D01*
X7104207Y-15401182D02*
X7085159Y-15391658D01*
X7085159Y-15391658D02*
X7056588Y-15391658D01*
X7056588Y-15391658D02*
X7037540Y-15382134D01*
X7037540Y-15382134D02*
X7028017Y-15363086D01*
X7028017Y-15363086D02*
X7028017Y-15353563D01*
X7028017Y-15353563D02*
X7037540Y-15334515D01*
X7037540Y-15334515D02*
X7056588Y-15324991D01*
X7056588Y-15324991D02*
X7085159Y-15324991D01*
X7085159Y-15324991D02*
X7104207Y-15334515D01*
X7180398Y-15534515D02*
X7189921Y-15524991D01*
X7189921Y-15524991D02*
X7208969Y-15496420D01*
X7208969Y-15496420D02*
X7218493Y-15477372D01*
X7218493Y-15477372D02*
X7228017Y-15448801D01*
X7228017Y-15448801D02*
X7237540Y-15401182D01*
X7237540Y-15401182D02*
X7237540Y-15363086D01*
X7237540Y-15363086D02*
X7228017Y-15315467D01*
X7228017Y-15315467D02*
X7218493Y-15286896D01*
X7218493Y-15286896D02*
X7208969Y-15267848D01*
X7208969Y-15267848D02*
X7189921Y-15239277D01*
X7189921Y-15239277D02*
X7180398Y-15229753D01*
D12*
X2194858Y-15610841D02*
X2194858Y-15650841D01*
X2174858Y-15630841D02*
X2214858Y-15630841D01*
D11*
X2513730Y-15522325D02*
X2532778Y-15522325D01*
X2532778Y-15522325D02*
X2551826Y-15531848D01*
X2551826Y-15531848D02*
X2561350Y-15541372D01*
X2561350Y-15541372D02*
X2570873Y-15560420D01*
X2570873Y-15560420D02*
X2580397Y-15598515D01*
X2580397Y-15598515D02*
X2580397Y-15646134D01*
X2580397Y-15646134D02*
X2570873Y-15684229D01*
X2570873Y-15684229D02*
X2561350Y-15703277D01*
X2561350Y-15703277D02*
X2551826Y-15712801D01*
X2551826Y-15712801D02*
X2532778Y-15722325D01*
X2532778Y-15722325D02*
X2513730Y-15722325D01*
X2513730Y-15722325D02*
X2494683Y-15712801D01*
X2494683Y-15712801D02*
X2485159Y-15703277D01*
X2485159Y-15703277D02*
X2475635Y-15684229D01*
X2475635Y-15684229D02*
X2466111Y-15646134D01*
X2466111Y-15646134D02*
X2466111Y-15598515D01*
X2466111Y-15598515D02*
X2475635Y-15560420D01*
X2475635Y-15560420D02*
X2485159Y-15541372D01*
X2485159Y-15541372D02*
X2494683Y-15531848D01*
X2494683Y-15531848D02*
X2513730Y-15522325D01*
X2666111Y-15703277D02*
X2675635Y-15712801D01*
X2675635Y-15712801D02*
X2666111Y-15722325D01*
X2666111Y-15722325D02*
X2656588Y-15712801D01*
X2656588Y-15712801D02*
X2666111Y-15703277D01*
X2666111Y-15703277D02*
X2666111Y-15722325D01*
X2847064Y-15588991D02*
X2847064Y-15722325D01*
X2799445Y-15512801D02*
X2751826Y-15655658D01*
X2751826Y-15655658D02*
X2875635Y-15655658D01*
X2989921Y-15522325D02*
X3008969Y-15522325D01*
X3008969Y-15522325D02*
X3028016Y-15531848D01*
X3028016Y-15531848D02*
X3037540Y-15541372D01*
X3037540Y-15541372D02*
X3047064Y-15560420D01*
X3047064Y-15560420D02*
X3056588Y-15598515D01*
X3056588Y-15598515D02*
X3056588Y-15646134D01*
X3056588Y-15646134D02*
X3047064Y-15684229D01*
X3047064Y-15684229D02*
X3037540Y-15703277D01*
X3037540Y-15703277D02*
X3028016Y-15712801D01*
X3028016Y-15712801D02*
X3008969Y-15722325D01*
X3008969Y-15722325D02*
X2989921Y-15722325D01*
X2989921Y-15722325D02*
X2970873Y-15712801D01*
X2970873Y-15712801D02*
X2961349Y-15703277D01*
X2961349Y-15703277D02*
X2951826Y-15684229D01*
X2951826Y-15684229D02*
X2942302Y-15646134D01*
X2942302Y-15646134D02*
X2942302Y-15598515D01*
X2942302Y-15598515D02*
X2951826Y-15560420D01*
X2951826Y-15560420D02*
X2961349Y-15541372D01*
X2961349Y-15541372D02*
X2970873Y-15531848D01*
X2970873Y-15531848D02*
X2989921Y-15522325D01*
X3180397Y-15522325D02*
X3199445Y-15522325D01*
X3199445Y-15522325D02*
X3218492Y-15531848D01*
X3218492Y-15531848D02*
X3228016Y-15541372D01*
X3228016Y-15541372D02*
X3237540Y-15560420D01*
X3237540Y-15560420D02*
X3247064Y-15598515D01*
X3247064Y-15598515D02*
X3247064Y-15646134D01*
X3247064Y-15646134D02*
X3237540Y-15684229D01*
X3237540Y-15684229D02*
X3228016Y-15703277D01*
X3228016Y-15703277D02*
X3218492Y-15712801D01*
X3218492Y-15712801D02*
X3199445Y-15722325D01*
X3199445Y-15722325D02*
X3180397Y-15722325D01*
X3180397Y-15722325D02*
X3161349Y-15712801D01*
X3161349Y-15712801D02*
X3151826Y-15703277D01*
X3151826Y-15703277D02*
X3142302Y-15684229D01*
X3142302Y-15684229D02*
X3132778Y-15646134D01*
X3132778Y-15646134D02*
X3132778Y-15598515D01*
X3132778Y-15598515D02*
X3142302Y-15560420D01*
X3142302Y-15560420D02*
X3151826Y-15541372D01*
X3151826Y-15541372D02*
X3161349Y-15531848D01*
X3161349Y-15531848D02*
X3180397Y-15522325D01*
X3332778Y-15722325D02*
X3332778Y-15588991D01*
X3332778Y-15608039D02*
X3342302Y-15598515D01*
X3342302Y-15598515D02*
X3361349Y-15588991D01*
X3361349Y-15588991D02*
X3389921Y-15588991D01*
X3389921Y-15588991D02*
X3408969Y-15598515D01*
X3408969Y-15598515D02*
X3418492Y-15617563D01*
X3418492Y-15617563D02*
X3418492Y-15722325D01*
X3418492Y-15617563D02*
X3428016Y-15598515D01*
X3428016Y-15598515D02*
X3447064Y-15588991D01*
X3447064Y-15588991D02*
X3475635Y-15588991D01*
X3475635Y-15588991D02*
X3494683Y-15598515D01*
X3494683Y-15598515D02*
X3504207Y-15617563D01*
X3504207Y-15617563D02*
X3504207Y-15722325D01*
X3599445Y-15722325D02*
X3599445Y-15588991D01*
X3599445Y-15608039D02*
X3608969Y-15598515D01*
X3608969Y-15598515D02*
X3628016Y-15588991D01*
X3628016Y-15588991D02*
X3656588Y-15588991D01*
X3656588Y-15588991D02*
X3675635Y-15598515D01*
X3675635Y-15598515D02*
X3685159Y-15617563D01*
X3685159Y-15617563D02*
X3685159Y-15722325D01*
X3685159Y-15617563D02*
X3694683Y-15598515D01*
X3694683Y-15598515D02*
X3713730Y-15588991D01*
X3713730Y-15588991D02*
X3742302Y-15588991D01*
X3742302Y-15588991D02*
X3761350Y-15598515D01*
X3761350Y-15598515D02*
X3770873Y-15617563D01*
X3770873Y-15617563D02*
X3770873Y-15722325D01*
X4161350Y-15512801D02*
X3989921Y-15769944D01*
X4418493Y-15522325D02*
X4437540Y-15522325D01*
X4437540Y-15522325D02*
X4456588Y-15531848D01*
X4456588Y-15531848D02*
X4466112Y-15541372D01*
X4466112Y-15541372D02*
X4475635Y-15560420D01*
X4475635Y-15560420D02*
X4485159Y-15598515D01*
X4485159Y-15598515D02*
X4485159Y-15646134D01*
X4485159Y-15646134D02*
X4475635Y-15684229D01*
X4475635Y-15684229D02*
X4466112Y-15703277D01*
X4466112Y-15703277D02*
X4456588Y-15712801D01*
X4456588Y-15712801D02*
X4437540Y-15722325D01*
X4437540Y-15722325D02*
X4418493Y-15722325D01*
X4418493Y-15722325D02*
X4399445Y-15712801D01*
X4399445Y-15712801D02*
X4389921Y-15703277D01*
X4389921Y-15703277D02*
X4380397Y-15684229D01*
X4380397Y-15684229D02*
X4370874Y-15646134D01*
X4370874Y-15646134D02*
X4370874Y-15598515D01*
X4370874Y-15598515D02*
X4380397Y-15560420D01*
X4380397Y-15560420D02*
X4389921Y-15541372D01*
X4389921Y-15541372D02*
X4399445Y-15531848D01*
X4399445Y-15531848D02*
X4418493Y-15522325D01*
X4570874Y-15703277D02*
X4580397Y-15712801D01*
X4580397Y-15712801D02*
X4570874Y-15722325D01*
X4570874Y-15722325D02*
X4561350Y-15712801D01*
X4561350Y-15712801D02*
X4570874Y-15703277D01*
X4570874Y-15703277D02*
X4570874Y-15722325D01*
X4704207Y-15522325D02*
X4723255Y-15522325D01*
X4723255Y-15522325D02*
X4742302Y-15531848D01*
X4742302Y-15531848D02*
X4751826Y-15541372D01*
X4751826Y-15541372D02*
X4761350Y-15560420D01*
X4761350Y-15560420D02*
X4770874Y-15598515D01*
X4770874Y-15598515D02*
X4770874Y-15646134D01*
X4770874Y-15646134D02*
X4761350Y-15684229D01*
X4761350Y-15684229D02*
X4751826Y-15703277D01*
X4751826Y-15703277D02*
X4742302Y-15712801D01*
X4742302Y-15712801D02*
X4723255Y-15722325D01*
X4723255Y-15722325D02*
X4704207Y-15722325D01*
X4704207Y-15722325D02*
X4685159Y-15712801D01*
X4685159Y-15712801D02*
X4675635Y-15703277D01*
X4675635Y-15703277D02*
X4666112Y-15684229D01*
X4666112Y-15684229D02*
X4656588Y-15646134D01*
X4656588Y-15646134D02*
X4656588Y-15598515D01*
X4656588Y-15598515D02*
X4666112Y-15560420D01*
X4666112Y-15560420D02*
X4675635Y-15541372D01*
X4675635Y-15541372D02*
X4685159Y-15531848D01*
X4685159Y-15531848D02*
X4704207Y-15522325D01*
X4961350Y-15722325D02*
X4847064Y-15722325D01*
X4904207Y-15722325D02*
X4904207Y-15522325D01*
X4904207Y-15522325D02*
X4885159Y-15550896D01*
X4885159Y-15550896D02*
X4866112Y-15569944D01*
X4866112Y-15569944D02*
X4847064Y-15579467D01*
X5142302Y-15522325D02*
X5047064Y-15522325D01*
X5047064Y-15522325D02*
X5037540Y-15617563D01*
X5037540Y-15617563D02*
X5047064Y-15608039D01*
X5047064Y-15608039D02*
X5066112Y-15598515D01*
X5066112Y-15598515D02*
X5113731Y-15598515D01*
X5113731Y-15598515D02*
X5132778Y-15608039D01*
X5132778Y-15608039D02*
X5142302Y-15617563D01*
X5142302Y-15617563D02*
X5151826Y-15636610D01*
X5151826Y-15636610D02*
X5151826Y-15684229D01*
X5151826Y-15684229D02*
X5142302Y-15703277D01*
X5142302Y-15703277D02*
X5132778Y-15712801D01*
X5132778Y-15712801D02*
X5113731Y-15722325D01*
X5113731Y-15722325D02*
X5066112Y-15722325D01*
X5066112Y-15722325D02*
X5047064Y-15712801D01*
X5047064Y-15712801D02*
X5037540Y-15703277D01*
X5218493Y-15522325D02*
X5351826Y-15522325D01*
X5351826Y-15522325D02*
X5266112Y-15722325D01*
X5418493Y-15522325D02*
X5418493Y-15560420D01*
X5494683Y-15522325D02*
X5494683Y-15560420D01*
X5789921Y-15798515D02*
X5780397Y-15788991D01*
X5780397Y-15788991D02*
X5761350Y-15760420D01*
X5761350Y-15760420D02*
X5751826Y-15741372D01*
X5751826Y-15741372D02*
X5742302Y-15712801D01*
X5742302Y-15712801D02*
X5732778Y-15665182D01*
X5732778Y-15665182D02*
X5732778Y-15627086D01*
X5732778Y-15627086D02*
X5742302Y-15579467D01*
X5742302Y-15579467D02*
X5751826Y-15550896D01*
X5751826Y-15550896D02*
X5761350Y-15531848D01*
X5761350Y-15531848D02*
X5780397Y-15503277D01*
X5780397Y-15503277D02*
X5789921Y-15493753D01*
X5847064Y-15522325D02*
X5980397Y-15522325D01*
X5980397Y-15522325D02*
X5894683Y-15722325D01*
X6037540Y-15522325D02*
X6161350Y-15522325D01*
X6161350Y-15522325D02*
X6094683Y-15598515D01*
X6094683Y-15598515D02*
X6123255Y-15598515D01*
X6123255Y-15598515D02*
X6142302Y-15608039D01*
X6142302Y-15608039D02*
X6151826Y-15617563D01*
X6151826Y-15617563D02*
X6161350Y-15636610D01*
X6161350Y-15636610D02*
X6161350Y-15684229D01*
X6161350Y-15684229D02*
X6151826Y-15703277D01*
X6151826Y-15703277D02*
X6142302Y-15712801D01*
X6142302Y-15712801D02*
X6123255Y-15722325D01*
X6123255Y-15722325D02*
X6066112Y-15722325D01*
X6066112Y-15722325D02*
X6047064Y-15712801D01*
X6047064Y-15712801D02*
X6037540Y-15703277D01*
X6399445Y-15722325D02*
X6399445Y-15522325D01*
X6485159Y-15722325D02*
X6485159Y-15617563D01*
X6485159Y-15617563D02*
X6475636Y-15598515D01*
X6475636Y-15598515D02*
X6456588Y-15588991D01*
X6456588Y-15588991D02*
X6428016Y-15588991D01*
X6428016Y-15588991D02*
X6408969Y-15598515D01*
X6408969Y-15598515D02*
X6399445Y-15608039D01*
X6608969Y-15722325D02*
X6589921Y-15712801D01*
X6589921Y-15712801D02*
X6580397Y-15703277D01*
X6580397Y-15703277D02*
X6570874Y-15684229D01*
X6570874Y-15684229D02*
X6570874Y-15627086D01*
X6570874Y-15627086D02*
X6580397Y-15608039D01*
X6580397Y-15608039D02*
X6589921Y-15598515D01*
X6589921Y-15598515D02*
X6608969Y-15588991D01*
X6608969Y-15588991D02*
X6637540Y-15588991D01*
X6637540Y-15588991D02*
X6656588Y-15598515D01*
X6656588Y-15598515D02*
X6666112Y-15608039D01*
X6666112Y-15608039D02*
X6675636Y-15627086D01*
X6675636Y-15627086D02*
X6675636Y-15684229D01*
X6675636Y-15684229D02*
X6666112Y-15703277D01*
X6666112Y-15703277D02*
X6656588Y-15712801D01*
X6656588Y-15712801D02*
X6637540Y-15722325D01*
X6637540Y-15722325D02*
X6608969Y-15722325D01*
X6789921Y-15722325D02*
X6770874Y-15712801D01*
X6770874Y-15712801D02*
X6761350Y-15693753D01*
X6761350Y-15693753D02*
X6761350Y-15522325D01*
X6942302Y-15712801D02*
X6923255Y-15722325D01*
X6923255Y-15722325D02*
X6885159Y-15722325D01*
X6885159Y-15722325D02*
X6866112Y-15712801D01*
X6866112Y-15712801D02*
X6856588Y-15693753D01*
X6856588Y-15693753D02*
X6856588Y-15617563D01*
X6856588Y-15617563D02*
X6866112Y-15598515D01*
X6866112Y-15598515D02*
X6885159Y-15588991D01*
X6885159Y-15588991D02*
X6923255Y-15588991D01*
X6923255Y-15588991D02*
X6942302Y-15598515D01*
X6942302Y-15598515D02*
X6951826Y-15617563D01*
X6951826Y-15617563D02*
X6951826Y-15636610D01*
X6951826Y-15636610D02*
X6856588Y-15655658D01*
X7028017Y-15712801D02*
X7047064Y-15722325D01*
X7047064Y-15722325D02*
X7085159Y-15722325D01*
X7085159Y-15722325D02*
X7104207Y-15712801D01*
X7104207Y-15712801D02*
X7113731Y-15693753D01*
X7113731Y-15693753D02*
X7113731Y-15684229D01*
X7113731Y-15684229D02*
X7104207Y-15665182D01*
X7104207Y-15665182D02*
X7085159Y-15655658D01*
X7085159Y-15655658D02*
X7056588Y-15655658D01*
X7056588Y-15655658D02*
X7037540Y-15646134D01*
X7037540Y-15646134D02*
X7028017Y-15627086D01*
X7028017Y-15627086D02*
X7028017Y-15617563D01*
X7028017Y-15617563D02*
X7037540Y-15598515D01*
X7037540Y-15598515D02*
X7056588Y-15588991D01*
X7056588Y-15588991D02*
X7085159Y-15588991D01*
X7085159Y-15588991D02*
X7104207Y-15598515D01*
X7180398Y-15798515D02*
X7189921Y-15788991D01*
X7189921Y-15788991D02*
X7208969Y-15760420D01*
X7208969Y-15760420D02*
X7218493Y-15741372D01*
X7218493Y-15741372D02*
X7228017Y-15712801D01*
X7228017Y-15712801D02*
X7237540Y-15665182D01*
X7237540Y-15665182D02*
X7237540Y-15627086D01*
X7237540Y-15627086D02*
X7228017Y-15579467D01*
X7228017Y-15579467D02*
X7218493Y-15550896D01*
X7218493Y-15550896D02*
X7208969Y-15531848D01*
X7208969Y-15531848D02*
X7189921Y-15503277D01*
X7189921Y-15503277D02*
X7180398Y-15493753D01*
X2185570Y-15965552D02*
X2185570Y-15824129D01*
X2044147Y-15824129D01*
X2044147Y-15965552D01*
X2185570Y-15965552D01*
X2466111Y-15805372D02*
X2475635Y-15795848D01*
X2475635Y-15795848D02*
X2494683Y-15786325D01*
X2494683Y-15786325D02*
X2542302Y-15786325D01*
X2542302Y-15786325D02*
X2561350Y-15795848D01*
X2561350Y-15795848D02*
X2570873Y-15805372D01*
X2570873Y-15805372D02*
X2580397Y-15824420D01*
X2580397Y-15824420D02*
X2580397Y-15843467D01*
X2580397Y-15843467D02*
X2570873Y-15872039D01*
X2570873Y-15872039D02*
X2456588Y-15986325D01*
X2456588Y-15986325D02*
X2580397Y-15986325D01*
X2666111Y-15967277D02*
X2675635Y-15976801D01*
X2675635Y-15976801D02*
X2666111Y-15986325D01*
X2666111Y-15986325D02*
X2656588Y-15976801D01*
X2656588Y-15976801D02*
X2666111Y-15967277D01*
X2666111Y-15967277D02*
X2666111Y-15986325D01*
X2751826Y-15805372D02*
X2761350Y-15795848D01*
X2761350Y-15795848D02*
X2780397Y-15786325D01*
X2780397Y-15786325D02*
X2828016Y-15786325D01*
X2828016Y-15786325D02*
X2847064Y-15795848D01*
X2847064Y-15795848D02*
X2856588Y-15805372D01*
X2856588Y-15805372D02*
X2866111Y-15824420D01*
X2866111Y-15824420D02*
X2866111Y-15843467D01*
X2866111Y-15843467D02*
X2856588Y-15872039D01*
X2856588Y-15872039D02*
X2742302Y-15986325D01*
X2742302Y-15986325D02*
X2866111Y-15986325D01*
X2989921Y-15786325D02*
X3008969Y-15786325D01*
X3008969Y-15786325D02*
X3028016Y-15795848D01*
X3028016Y-15795848D02*
X3037540Y-15805372D01*
X3037540Y-15805372D02*
X3047064Y-15824420D01*
X3047064Y-15824420D02*
X3056588Y-15862515D01*
X3056588Y-15862515D02*
X3056588Y-15910134D01*
X3056588Y-15910134D02*
X3047064Y-15948229D01*
X3047064Y-15948229D02*
X3037540Y-15967277D01*
X3037540Y-15967277D02*
X3028016Y-15976801D01*
X3028016Y-15976801D02*
X3008969Y-15986325D01*
X3008969Y-15986325D02*
X2989921Y-15986325D01*
X2989921Y-15986325D02*
X2970873Y-15976801D01*
X2970873Y-15976801D02*
X2961349Y-15967277D01*
X2961349Y-15967277D02*
X2951826Y-15948229D01*
X2951826Y-15948229D02*
X2942302Y-15910134D01*
X2942302Y-15910134D02*
X2942302Y-15862515D01*
X2942302Y-15862515D02*
X2951826Y-15824420D01*
X2951826Y-15824420D02*
X2961349Y-15805372D01*
X2961349Y-15805372D02*
X2970873Y-15795848D01*
X2970873Y-15795848D02*
X2989921Y-15786325D01*
X3180397Y-15786325D02*
X3199445Y-15786325D01*
X3199445Y-15786325D02*
X3218492Y-15795848D01*
X3218492Y-15795848D02*
X3228016Y-15805372D01*
X3228016Y-15805372D02*
X3237540Y-15824420D01*
X3237540Y-15824420D02*
X3247064Y-15862515D01*
X3247064Y-15862515D02*
X3247064Y-15910134D01*
X3247064Y-15910134D02*
X3237540Y-15948229D01*
X3237540Y-15948229D02*
X3228016Y-15967277D01*
X3228016Y-15967277D02*
X3218492Y-15976801D01*
X3218492Y-15976801D02*
X3199445Y-15986325D01*
X3199445Y-15986325D02*
X3180397Y-15986325D01*
X3180397Y-15986325D02*
X3161349Y-15976801D01*
X3161349Y-15976801D02*
X3151826Y-15967277D01*
X3151826Y-15967277D02*
X3142302Y-15948229D01*
X3142302Y-15948229D02*
X3132778Y-15910134D01*
X3132778Y-15910134D02*
X3132778Y-15862515D01*
X3132778Y-15862515D02*
X3142302Y-15824420D01*
X3142302Y-15824420D02*
X3151826Y-15805372D01*
X3151826Y-15805372D02*
X3161349Y-15795848D01*
X3161349Y-15795848D02*
X3180397Y-15786325D01*
X3332778Y-15986325D02*
X3332778Y-15852991D01*
X3332778Y-15872039D02*
X3342302Y-15862515D01*
X3342302Y-15862515D02*
X3361349Y-15852991D01*
X3361349Y-15852991D02*
X3389921Y-15852991D01*
X3389921Y-15852991D02*
X3408969Y-15862515D01*
X3408969Y-15862515D02*
X3418492Y-15881563D01*
X3418492Y-15881563D02*
X3418492Y-15986325D01*
X3418492Y-15881563D02*
X3428016Y-15862515D01*
X3428016Y-15862515D02*
X3447064Y-15852991D01*
X3447064Y-15852991D02*
X3475635Y-15852991D01*
X3475635Y-15852991D02*
X3494683Y-15862515D01*
X3494683Y-15862515D02*
X3504207Y-15881563D01*
X3504207Y-15881563D02*
X3504207Y-15986325D01*
X3599445Y-15986325D02*
X3599445Y-15852991D01*
X3599445Y-15872039D02*
X3608969Y-15862515D01*
X3608969Y-15862515D02*
X3628016Y-15852991D01*
X3628016Y-15852991D02*
X3656588Y-15852991D01*
X3656588Y-15852991D02*
X3675635Y-15862515D01*
X3675635Y-15862515D02*
X3685159Y-15881563D01*
X3685159Y-15881563D02*
X3685159Y-15986325D01*
X3685159Y-15881563D02*
X3694683Y-15862515D01*
X3694683Y-15862515D02*
X3713730Y-15852991D01*
X3713730Y-15852991D02*
X3742302Y-15852991D01*
X3742302Y-15852991D02*
X3761350Y-15862515D01*
X3761350Y-15862515D02*
X3770873Y-15881563D01*
X3770873Y-15881563D02*
X3770873Y-15986325D01*
X4161350Y-15776801D02*
X3989921Y-16033944D01*
X4418493Y-15786325D02*
X4437540Y-15786325D01*
X4437540Y-15786325D02*
X4456588Y-15795848D01*
X4456588Y-15795848D02*
X4466112Y-15805372D01*
X4466112Y-15805372D02*
X4475635Y-15824420D01*
X4475635Y-15824420D02*
X4485159Y-15862515D01*
X4485159Y-15862515D02*
X4485159Y-15910134D01*
X4485159Y-15910134D02*
X4475635Y-15948229D01*
X4475635Y-15948229D02*
X4466112Y-15967277D01*
X4466112Y-15967277D02*
X4456588Y-15976801D01*
X4456588Y-15976801D02*
X4437540Y-15986325D01*
X4437540Y-15986325D02*
X4418493Y-15986325D01*
X4418493Y-15986325D02*
X4399445Y-15976801D01*
X4399445Y-15976801D02*
X4389921Y-15967277D01*
X4389921Y-15967277D02*
X4380397Y-15948229D01*
X4380397Y-15948229D02*
X4370874Y-15910134D01*
X4370874Y-15910134D02*
X4370874Y-15862515D01*
X4370874Y-15862515D02*
X4380397Y-15824420D01*
X4380397Y-15824420D02*
X4389921Y-15805372D01*
X4389921Y-15805372D02*
X4399445Y-15795848D01*
X4399445Y-15795848D02*
X4418493Y-15786325D01*
X4570874Y-15967277D02*
X4580397Y-15976801D01*
X4580397Y-15976801D02*
X4570874Y-15986325D01*
X4570874Y-15986325D02*
X4561350Y-15976801D01*
X4561350Y-15976801D02*
X4570874Y-15967277D01*
X4570874Y-15967277D02*
X4570874Y-15986325D01*
X4704207Y-15786325D02*
X4723255Y-15786325D01*
X4723255Y-15786325D02*
X4742302Y-15795848D01*
X4742302Y-15795848D02*
X4751826Y-15805372D01*
X4751826Y-15805372D02*
X4761350Y-15824420D01*
X4761350Y-15824420D02*
X4770874Y-15862515D01*
X4770874Y-15862515D02*
X4770874Y-15910134D01*
X4770874Y-15910134D02*
X4761350Y-15948229D01*
X4761350Y-15948229D02*
X4751826Y-15967277D01*
X4751826Y-15967277D02*
X4742302Y-15976801D01*
X4742302Y-15976801D02*
X4723255Y-15986325D01*
X4723255Y-15986325D02*
X4704207Y-15986325D01*
X4704207Y-15986325D02*
X4685159Y-15976801D01*
X4685159Y-15976801D02*
X4675635Y-15967277D01*
X4675635Y-15967277D02*
X4666112Y-15948229D01*
X4666112Y-15948229D02*
X4656588Y-15910134D01*
X4656588Y-15910134D02*
X4656588Y-15862515D01*
X4656588Y-15862515D02*
X4666112Y-15824420D01*
X4666112Y-15824420D02*
X4675635Y-15805372D01*
X4675635Y-15805372D02*
X4685159Y-15795848D01*
X4685159Y-15795848D02*
X4704207Y-15786325D01*
X4885159Y-15872039D02*
X4866112Y-15862515D01*
X4866112Y-15862515D02*
X4856588Y-15852991D01*
X4856588Y-15852991D02*
X4847064Y-15833944D01*
X4847064Y-15833944D02*
X4847064Y-15824420D01*
X4847064Y-15824420D02*
X4856588Y-15805372D01*
X4856588Y-15805372D02*
X4866112Y-15795848D01*
X4866112Y-15795848D02*
X4885159Y-15786325D01*
X4885159Y-15786325D02*
X4923255Y-15786325D01*
X4923255Y-15786325D02*
X4942302Y-15795848D01*
X4942302Y-15795848D02*
X4951826Y-15805372D01*
X4951826Y-15805372D02*
X4961350Y-15824420D01*
X4961350Y-15824420D02*
X4961350Y-15833944D01*
X4961350Y-15833944D02*
X4951826Y-15852991D01*
X4951826Y-15852991D02*
X4942302Y-15862515D01*
X4942302Y-15862515D02*
X4923255Y-15872039D01*
X4923255Y-15872039D02*
X4885159Y-15872039D01*
X4885159Y-15872039D02*
X4866112Y-15881563D01*
X4866112Y-15881563D02*
X4856588Y-15891086D01*
X4856588Y-15891086D02*
X4847064Y-15910134D01*
X4847064Y-15910134D02*
X4847064Y-15948229D01*
X4847064Y-15948229D02*
X4856588Y-15967277D01*
X4856588Y-15967277D02*
X4866112Y-15976801D01*
X4866112Y-15976801D02*
X4885159Y-15986325D01*
X4885159Y-15986325D02*
X4923255Y-15986325D01*
X4923255Y-15986325D02*
X4942302Y-15976801D01*
X4942302Y-15976801D02*
X4951826Y-15967277D01*
X4951826Y-15967277D02*
X4961350Y-15948229D01*
X4961350Y-15948229D02*
X4961350Y-15910134D01*
X4961350Y-15910134D02*
X4951826Y-15891086D01*
X4951826Y-15891086D02*
X4942302Y-15881563D01*
X4942302Y-15881563D02*
X4923255Y-15872039D01*
X5132778Y-15786325D02*
X5094683Y-15786325D01*
X5094683Y-15786325D02*
X5075635Y-15795848D01*
X5075635Y-15795848D02*
X5066112Y-15805372D01*
X5066112Y-15805372D02*
X5047064Y-15833944D01*
X5047064Y-15833944D02*
X5037540Y-15872039D01*
X5037540Y-15872039D02*
X5037540Y-15948229D01*
X5037540Y-15948229D02*
X5047064Y-15967277D01*
X5047064Y-15967277D02*
X5056588Y-15976801D01*
X5056588Y-15976801D02*
X5075635Y-15986325D01*
X5075635Y-15986325D02*
X5113731Y-15986325D01*
X5113731Y-15986325D02*
X5132778Y-15976801D01*
X5132778Y-15976801D02*
X5142302Y-15967277D01*
X5142302Y-15967277D02*
X5151826Y-15948229D01*
X5151826Y-15948229D02*
X5151826Y-15900610D01*
X5151826Y-15900610D02*
X5142302Y-15881563D01*
X5142302Y-15881563D02*
X5132778Y-15872039D01*
X5132778Y-15872039D02*
X5113731Y-15862515D01*
X5113731Y-15862515D02*
X5075635Y-15862515D01*
X5075635Y-15862515D02*
X5056588Y-15872039D01*
X5056588Y-15872039D02*
X5047064Y-15881563D01*
X5047064Y-15881563D02*
X5037540Y-15900610D01*
X5323255Y-15786325D02*
X5285159Y-15786325D01*
X5285159Y-15786325D02*
X5266112Y-15795848D01*
X5266112Y-15795848D02*
X5256588Y-15805372D01*
X5256588Y-15805372D02*
X5237540Y-15833944D01*
X5237540Y-15833944D02*
X5228016Y-15872039D01*
X5228016Y-15872039D02*
X5228016Y-15948229D01*
X5228016Y-15948229D02*
X5237540Y-15967277D01*
X5237540Y-15967277D02*
X5247064Y-15976801D01*
X5247064Y-15976801D02*
X5266112Y-15986325D01*
X5266112Y-15986325D02*
X5304207Y-15986325D01*
X5304207Y-15986325D02*
X5323255Y-15976801D01*
X5323255Y-15976801D02*
X5332778Y-15967277D01*
X5332778Y-15967277D02*
X5342302Y-15948229D01*
X5342302Y-15948229D02*
X5342302Y-15900610D01*
X5342302Y-15900610D02*
X5332778Y-15881563D01*
X5332778Y-15881563D02*
X5323255Y-15872039D01*
X5323255Y-15872039D02*
X5304207Y-15862515D01*
X5304207Y-15862515D02*
X5266112Y-15862515D01*
X5266112Y-15862515D02*
X5247064Y-15872039D01*
X5247064Y-15872039D02*
X5237540Y-15881563D01*
X5237540Y-15881563D02*
X5228016Y-15900610D01*
X5418493Y-15786325D02*
X5418493Y-15824420D01*
X5494683Y-15786325D02*
X5494683Y-15824420D01*
X5789921Y-16062515D02*
X5780397Y-16052991D01*
X5780397Y-16052991D02*
X5761350Y-16024420D01*
X5761350Y-16024420D02*
X5751826Y-16005372D01*
X5751826Y-16005372D02*
X5742302Y-15976801D01*
X5742302Y-15976801D02*
X5732778Y-15929182D01*
X5732778Y-15929182D02*
X5732778Y-15891086D01*
X5732778Y-15891086D02*
X5742302Y-15843467D01*
X5742302Y-15843467D02*
X5751826Y-15814896D01*
X5751826Y-15814896D02*
X5761350Y-15795848D01*
X5761350Y-15795848D02*
X5780397Y-15767277D01*
X5780397Y-15767277D02*
X5789921Y-15757753D01*
X5951826Y-15852991D02*
X5951826Y-15986325D01*
X5904207Y-15776801D02*
X5856588Y-15919658D01*
X5856588Y-15919658D02*
X5980397Y-15919658D01*
X6208969Y-15986325D02*
X6208969Y-15786325D01*
X6294683Y-15986325D02*
X6294683Y-15881563D01*
X6294683Y-15881563D02*
X6285159Y-15862515D01*
X6285159Y-15862515D02*
X6266112Y-15852991D01*
X6266112Y-15852991D02*
X6237540Y-15852991D01*
X6237540Y-15852991D02*
X6218493Y-15862515D01*
X6218493Y-15862515D02*
X6208969Y-15872039D01*
X6418493Y-15986325D02*
X6399445Y-15976801D01*
X6399445Y-15976801D02*
X6389921Y-15967277D01*
X6389921Y-15967277D02*
X6380397Y-15948229D01*
X6380397Y-15948229D02*
X6380397Y-15891086D01*
X6380397Y-15891086D02*
X6389921Y-15872039D01*
X6389921Y-15872039D02*
X6399445Y-15862515D01*
X6399445Y-15862515D02*
X6418493Y-15852991D01*
X6418493Y-15852991D02*
X6447064Y-15852991D01*
X6447064Y-15852991D02*
X6466112Y-15862515D01*
X6466112Y-15862515D02*
X6475636Y-15872039D01*
X6475636Y-15872039D02*
X6485159Y-15891086D01*
X6485159Y-15891086D02*
X6485159Y-15948229D01*
X6485159Y-15948229D02*
X6475636Y-15967277D01*
X6475636Y-15967277D02*
X6466112Y-15976801D01*
X6466112Y-15976801D02*
X6447064Y-15986325D01*
X6447064Y-15986325D02*
X6418493Y-15986325D01*
X6599445Y-15986325D02*
X6580397Y-15976801D01*
X6580397Y-15976801D02*
X6570874Y-15957753D01*
X6570874Y-15957753D02*
X6570874Y-15786325D01*
X6751826Y-15976801D02*
X6732778Y-15986325D01*
X6732778Y-15986325D02*
X6694683Y-15986325D01*
X6694683Y-15986325D02*
X6675636Y-15976801D01*
X6675636Y-15976801D02*
X6666112Y-15957753D01*
X6666112Y-15957753D02*
X6666112Y-15881563D01*
X6666112Y-15881563D02*
X6675636Y-15862515D01*
X6675636Y-15862515D02*
X6694683Y-15852991D01*
X6694683Y-15852991D02*
X6732778Y-15852991D01*
X6732778Y-15852991D02*
X6751826Y-15862515D01*
X6751826Y-15862515D02*
X6761350Y-15881563D01*
X6761350Y-15881563D02*
X6761350Y-15900610D01*
X6761350Y-15900610D02*
X6666112Y-15919658D01*
X6837540Y-15976801D02*
X6856588Y-15986325D01*
X6856588Y-15986325D02*
X6894683Y-15986325D01*
X6894683Y-15986325D02*
X6913731Y-15976801D01*
X6913731Y-15976801D02*
X6923255Y-15957753D01*
X6923255Y-15957753D02*
X6923255Y-15948229D01*
X6923255Y-15948229D02*
X6913731Y-15929182D01*
X6913731Y-15929182D02*
X6894683Y-15919658D01*
X6894683Y-15919658D02*
X6866112Y-15919658D01*
X6866112Y-15919658D02*
X6847064Y-15910134D01*
X6847064Y-15910134D02*
X6837540Y-15891086D01*
X6837540Y-15891086D02*
X6837540Y-15881563D01*
X6837540Y-15881563D02*
X6847064Y-15862515D01*
X6847064Y-15862515D02*
X6866112Y-15852991D01*
X6866112Y-15852991D02*
X6894683Y-15852991D01*
X6894683Y-15852991D02*
X6913731Y-15862515D01*
X6989921Y-16062515D02*
X6999445Y-16052991D01*
X6999445Y-16052991D02*
X7018493Y-16024420D01*
X7018493Y-16024420D02*
X7028017Y-16005372D01*
X7028017Y-16005372D02*
X7037540Y-15976801D01*
X7037540Y-15976801D02*
X7047064Y-15929182D01*
X7047064Y-15929182D02*
X7047064Y-15891086D01*
X7047064Y-15891086D02*
X7037540Y-15843467D01*
X7037540Y-15843467D02*
X7028017Y-15814896D01*
X7028017Y-15814896D02*
X7018493Y-15795848D01*
X7018493Y-15795848D02*
X6999445Y-15767277D01*
X6999445Y-15767277D02*
X6989921Y-15757753D01*
M02*
