M48
; DRILL file KiCad 9.99.0-5522-g400384cf72 date 2026-02-12T00:01:32
; FORMAT={-:-/ absolute / metric / decimal}
; #@! TF.CreationDate,2026-02-12T00:01:32-08:00
; #@! TF.GenerationSoftware,Kicad,Pcbnew,9.99.0-5522-g400384cf72
; #@! TF.FileFunction,Plated,1,4,PTH
FMAT,2
METRIC
; #@! TA.AperFunction,Plated,PTH,ViaDrill
T1C0.200
; #@! TA.AperFunction,Plated,PTH,ViaDrill
T2C0.250
; #@! TA.AperFunction,Plated,PTH,ViaDrill
T3C0.400
; #@! TA.AperFunction,Plated,PTH,ComponentDrill
T4C2.200
%
G90
G05
T1
X29.29Y-88.4
X31.59Y-83.6
X38.59Y-85.55
T2
X27.34Y-82.3
X28.84Y-86.05
X29.09Y-82.956
X29.59Y-84.07
X31.842Y-82.252
X39.32Y-84.78
X40.271Y-85.982
X40.908Y-86.618
X140.271Y-74.482
X140.908Y-75.118
X145.021Y-65.482
X145.658Y-66.118
X146.533Y-58.864
X147.433Y-58.864
T3
X26.09Y-84.825
X26.115Y-89.275
X26.115Y-90.825
X28.84Y-91.05
X30.851Y-81.8
X33.59Y-95.8
X34.59Y-92.55
X35.065Y-129.918
X35.315Y-95.025
X37.36Y-84.07
X37.446Y-72.768
X38.01Y-93.879
X39.827Y-110.868
X45.09Y-91.818
X45.09Y-93.8
X45.09Y-95.8
X45.09Y-97.8
X56.496Y-129.918
X61.258Y-72.768
X66.021Y-110.868
X75.546Y-91.818
X80.308Y-72.768
X85.071Y-110.868
X85.071Y-129.918
X94.596Y-91.818
X99.358Y-72.768
X104.121Y-110.868
X113.646Y-91.818
X113.646Y-129.918
X118.408Y-72.768
X123.171Y-110.868
X126.09Y-57.3
X128.59Y-55.3
X128.59Y-59.3
X130.452Y-59.187
X131.34Y-57.3
X132.696Y-91.818
X135.84Y-56.525
X137.458Y-72.768
X139.84Y-59.55
X140.59Y-53.05
X141.59Y-53.05
X142.221Y-110.868
X142.221Y-129.918
X142.59Y-53.05
X145.183Y-58.706
X151.34Y-53.05
X151.746Y-91.818
X152.34Y-53.05
X153.34Y-53.05
X156.508Y-72.768
X161.271Y-110.868
X170.796Y-91.818
X170.796Y-129.918
X175.558Y-72.768
X176.59Y-99.8
X180.321Y-110.868
X189.846Y-91.818
X194.608Y-72.768
X199.371Y-110.868
X199.371Y-129.918
X208.896Y-91.818
X213.658Y-72.768
X218.421Y-110.868
X227.946Y-91.818
X227.946Y-129.918
X232.708Y-72.768
X237.989Y-97.857
X244.615Y-110.868
X249.377Y-91.818
X249.377Y-129.918
X251.758Y-72.768
X261.59Y-95.8
T4
X70.564Y-80.023
X77.631Y-126.95
X221.3Y-126.95
X245.67Y-80.023
M30
