%TF.GenerationSoftware,KiCad,Pcbnew,9.99.0-5522-g400384cf72*%
%TF.CreationDate,2026-02-12T00:01:38-08:00*%
%TF.ProjectId,amb-kb,616d622d-6b62-42e6-9b69-6361645f7063,rev?*%
%TF.SameCoordinates,Original*%
%TF.FileFunction,Soldermask,Top*%
%TF.FilePolarity,Negative*%
%FSLAX46Y46*%
G04 Gerber Fmt 4.6, Leading zero omitted, Abs format (unit mm)*
G04 Created by KiCad (PCBNEW 9.99.0-5522-g400384cf72) date 2026-02-12 00:01:38*
%MOMM*%
%LPD*%
G01*
G04 APERTURE LIST*
G04 Aperture macros list*
%AMRoundRect*
0 Rectangle with rounded corners*
0 $1 Rounding radius*
0 $2 $3 $4 $5 $6 $7 $8 $9 X,Y pos of 4 corners*
0 Add a 4 corners polygon primitive as box body*
4,1,4,$2,$3,$4,$5,$6,$7,$8,$9,$2,$3,0*
0 Add four circle primitives for the rounded corners*
1,1,$1+$1,$2,$3*
1,1,$1+$1,$4,$5*
1,1,$1+$1,$6,$7*
1,1,$1+$1,$8,$9*
0 Add four rect primitives between the rounded corners*
20,1,$1+$1,$2,$3,$4,$5,0*
20,1,$1+$1,$4,$5,$6,$7,0*
20,1,$1+$1,$6,$7,$8,$9,0*
20,1,$1+$1,$8,$9,$2,$3,0*%
G04 Aperture macros list end*
%ADD10RoundRect,0.225000X0.375000X-0.225000X0.375000X0.225000X-0.375000X0.225000X-0.375000X-0.225000X0*%
%ADD11C,1.701800*%
%ADD12C,3.000000*%
%ADD13C,3.987800*%
%ADD14RoundRect,0.200000X-1.075000X-1.050000X1.075000X-1.050000X1.075000X1.050000X-1.075000X1.050000X0*%
%ADD15R,0.609600X0.889000*%
%ADD16R,0.762000X0.838200*%
%ADD17RoundRect,0.140000X0.170000X-0.140000X0.170000X0.140000X-0.170000X0.140000X-0.170000X-0.140000X0*%
%ADD18RoundRect,0.062500X-0.375000X-0.062500X0.375000X-0.062500X0.375000X0.062500X-0.375000X0.062500X0*%
%ADD19RoundRect,0.062500X-0.062500X-0.375000X0.062500X-0.375000X0.062500X0.375000X-0.062500X0.375000X0*%
%ADD20R,5.600000X5.600000*%
%ADD21C,2.000000*%
%ADD22RoundRect,0.140000X0.140000X0.170000X-0.140000X0.170000X-0.140000X-0.170000X0.140000X-0.170000X0*%
%ADD23C,3.500000*%
%ADD24C,1.000000*%
%ADD25RoundRect,0.250000X-0.475000X0.250000X-0.475000X-0.250000X0.475000X-0.250000X0.475000X0.250000X0*%
%ADD26RoundRect,0.135000X0.135000X0.185000X-0.135000X0.185000X-0.135000X-0.185000X0.135000X-0.185000X0*%
%ADD27RoundRect,0.225000X-0.250000X0.225000X-0.250000X-0.225000X0.250000X-0.225000X0.250000X0.225000X0*%
%ADD28RoundRect,0.225000X0.250000X-0.225000X0.250000X0.225000X-0.250000X0.225000X-0.250000X-0.225000X0*%
%ADD29RoundRect,0.218750X-0.381250X0.218750X-0.381250X-0.218750X0.381250X-0.218750X0.381250X0.218750X0*%
%ADD30RoundRect,0.140000X-0.170000X0.140000X-0.170000X-0.140000X0.170000X-0.140000X0.170000X0.140000X0*%
%ADD31C,4.500000*%
%ADD32C,3.048000*%
%ADD33RoundRect,0.225000X0.225000X0.250000X-0.225000X0.250000X-0.225000X-0.250000X0.225000X-0.250000X0*%
%ADD34RoundRect,0.150000X0.512500X0.150000X-0.512500X0.150000X-0.512500X-0.150000X0.512500X-0.150000X0*%
G04 APERTURE END LIST*
D10*
%TO.C,D13*%
X249377084Y-90499701D03*
X249377084Y-87199701D03*
%TD*%
%TO.C,D6*%
X156508334Y-71449701D03*
X156508334Y-68149701D03*
%TD*%
%TO.C,D9*%
X99358334Y-71449701D03*
X99358334Y-68149701D03*
%TD*%
%TO.C,D26*%
X199370834Y-109549701D03*
X199370834Y-106249701D03*
%TD*%
D11*
%TO.C,MX29*%
X144284584Y-107899701D03*
D12*
X146824584Y-102819701D03*
D13*
X149364584Y-107899701D03*
D12*
X153174584Y-105359701D03*
D11*
X154444584Y-107899701D03*
D14*
X156449584Y-105359701D03*
X143522584Y-102819701D03*
%TD*%
D11*
%TO.C,MX16*%
X191909584Y-88849701D03*
D12*
X194449584Y-83769701D03*
D13*
X196989584Y-88849701D03*
D12*
X200799584Y-86309701D03*
D11*
X202069584Y-88849701D03*
D14*
X204074584Y-86309701D03*
X191147584Y-83769701D03*
%TD*%
D10*
%TO.C,D17*%
X170795834Y-90499701D03*
X170795834Y-87199701D03*
%TD*%
D11*
%TO.C,MX1*%
X253822084Y-69799701D03*
D12*
X256362084Y-64719701D03*
D13*
X258902084Y-69799701D03*
D12*
X262712084Y-67259701D03*
D11*
X263982084Y-69799701D03*
D14*
X265987084Y-67259701D03*
X253060084Y-64719701D03*
%TD*%
D11*
%TO.C,MX21*%
X96659584Y-88849701D03*
D12*
X99199584Y-83769701D03*
D13*
X101739584Y-88849701D03*
D12*
X105549584Y-86309701D03*
D11*
X106819584Y-88849701D03*
D14*
X108824584Y-86309701D03*
X95897584Y-83769701D03*
%TD*%
D10*
%TO.C,D36*%
X227945834Y-128599701D03*
X227945834Y-125299701D03*
%TD*%
D11*
%TO.C,MX43*%
X37128334Y-126949701D03*
D12*
X39668334Y-121869701D03*
D13*
X42208334Y-126949701D03*
D12*
X46018334Y-124409701D03*
D11*
X47288334Y-126949701D03*
D14*
X49293334Y-124409701D03*
X36366334Y-121869701D03*
%TD*%
D11*
%TO.C,MX6*%
X158572084Y-69799701D03*
D12*
X161112084Y-64719701D03*
D13*
X163652084Y-69799701D03*
D12*
X167462084Y-67259701D03*
D11*
X168732084Y-69799701D03*
D14*
X170737084Y-67259701D03*
X157810084Y-64719701D03*
%TD*%
D10*
%TO.C,D3*%
X213658334Y-71449701D03*
X213658334Y-68149701D03*
%TD*%
D11*
%TO.C,MX8*%
X120472084Y-69799701D03*
D12*
X123012084Y-64719701D03*
D13*
X125552084Y-69799701D03*
D12*
X129362084Y-67259701D03*
D11*
X130632084Y-69799701D03*
D14*
X132637084Y-67259701D03*
X119710084Y-64719701D03*
%TD*%
D11*
%TO.C,MX19*%
X134759584Y-88849701D03*
D12*
X137299584Y-83769701D03*
D13*
X139839584Y-88849701D03*
D12*
X143649584Y-86309701D03*
D11*
X144919584Y-88849701D03*
D14*
X146924584Y-86309701D03*
X133997584Y-83769701D03*
%TD*%
D15*
%TO.C,J1*%
X148783333Y-57595101D03*
X147583333Y-57595101D03*
X146383335Y-57595101D03*
X145183335Y-57595101D03*
D16*
X149933333Y-53820100D03*
X144033335Y-53820100D03*
%TD*%
D11*
%TO.C,MX5*%
X177622084Y-69799701D03*
D12*
X180162084Y-64719701D03*
D13*
X182702084Y-69799701D03*
D12*
X186512084Y-67259701D03*
D11*
X187782084Y-69799701D03*
D14*
X189787084Y-67259701D03*
X176860084Y-64719701D03*
%TD*%
D10*
%TO.C,D15*%
X208895834Y-90499701D03*
X208895834Y-87199701D03*
%TD*%
%TO.C,D8*%
X118408334Y-71449701D03*
X118408334Y-68149701D03*
%TD*%
D17*
%TO.C,C4*%
X28839584Y-85029701D03*
X28839584Y-84069701D03*
%TD*%
D11*
%TO.C,MX41*%
X87134584Y-126949701D03*
D12*
X89674584Y-121869701D03*
D13*
X92214584Y-126949701D03*
D12*
X96024584Y-124409701D03*
D11*
X97294584Y-126949701D03*
D14*
X99299584Y-124409701D03*
X86372584Y-121869701D03*
%TD*%
D18*
%TO.C,U1*%
X30152084Y-85049701D03*
X30152084Y-85549701D03*
X30152084Y-86049701D03*
X30152084Y-86549701D03*
X30152084Y-87049701D03*
X30152084Y-87549701D03*
X30152084Y-88049701D03*
X30152084Y-88549701D03*
X30152084Y-89049701D03*
X30152084Y-89549701D03*
X30152084Y-90049701D03*
X30152084Y-90549701D03*
D19*
X30839584Y-91237201D03*
X31339584Y-91237201D03*
X31839584Y-91237201D03*
X32339584Y-91237201D03*
X32839584Y-91237201D03*
X33339584Y-91237201D03*
X33839584Y-91237201D03*
X34339584Y-91237201D03*
X34839584Y-91237201D03*
X35339584Y-91237201D03*
X35839584Y-91237201D03*
X36339584Y-91237201D03*
D18*
X37027084Y-90549701D03*
X37027084Y-90049701D03*
X37027084Y-89549701D03*
X37027084Y-89049701D03*
X37027084Y-88549701D03*
X37027084Y-88049701D03*
X37027084Y-87549701D03*
X37027084Y-87049701D03*
X37027084Y-86549701D03*
X37027084Y-86049701D03*
X37027084Y-85549701D03*
X37027084Y-85049701D03*
D19*
X36339584Y-84362201D03*
X35839584Y-84362201D03*
X35339584Y-84362201D03*
X34839584Y-84362201D03*
X34339584Y-84362201D03*
X33839584Y-84362201D03*
X33339584Y-84362201D03*
X32839584Y-84362201D03*
X32339584Y-84362201D03*
X31839584Y-84362201D03*
X31339584Y-84362201D03*
X30839584Y-84362201D03*
D20*
X33589584Y-87799701D03*
%TD*%
D11*
%TO.C,MX33*%
X68084584Y-107899701D03*
D12*
X70624584Y-102819701D03*
D13*
X73164584Y-107899701D03*
D12*
X76974584Y-105359701D03*
D11*
X78244584Y-107899701D03*
D14*
X80249584Y-105359701D03*
X67322584Y-102819701D03*
%TD*%
D11*
%TO.C,MX24*%
X246678334Y-107899701D03*
D12*
X249218334Y-102819701D03*
D13*
X251758334Y-107899701D03*
D12*
X255568334Y-105359701D03*
D11*
X256838334Y-107899701D03*
D14*
X258843334Y-105359701D03*
X245916334Y-102819701D03*
%TD*%
D10*
%TO.C,D7*%
X137458334Y-71449701D03*
X137458334Y-68149701D03*
%TD*%
%TO.C,D12*%
X37445834Y-71449701D03*
X37445834Y-68149701D03*
%TD*%
D11*
%TO.C,MX22*%
X77609584Y-88849701D03*
D12*
X80149584Y-83769701D03*
D13*
X82689584Y-88849701D03*
D12*
X86499584Y-86309701D03*
D11*
X87769584Y-88849701D03*
D14*
X89774584Y-86309701D03*
X76847584Y-83769701D03*
%TD*%
D21*
%TO.C,TP2*%
X137089584Y-58299701D03*
%TD*%
D22*
%TO.C,C6*%
X36569584Y-92549701D03*
X35609584Y-92549701D03*
%TD*%
D10*
%TO.C,D16*%
X189845834Y-90499701D03*
X189845834Y-87199701D03*
%TD*%
%TO.C,D22*%
X75545834Y-90499701D03*
X75545834Y-87199701D03*
%TD*%
%TO.C,D23*%
X44589584Y-90499701D03*
X44589584Y-87199701D03*
%TD*%
D11*
%TO.C,MX31*%
X106184584Y-107899701D03*
D12*
X108724584Y-102819701D03*
D13*
X111264584Y-107899701D03*
D12*
X115074584Y-105359701D03*
D11*
X116344584Y-107899701D03*
D14*
X118349584Y-105359701D03*
X105422584Y-102819701D03*
%TD*%
D11*
%TO.C,MX39*%
X144284584Y-126949701D03*
D12*
X146824584Y-121869701D03*
D13*
X149364584Y-126949701D03*
D12*
X153174584Y-124409701D03*
D11*
X154444584Y-126949701D03*
D14*
X156449584Y-124409701D03*
X143522584Y-121869701D03*
%TD*%
D10*
%TO.C,D34*%
X39827084Y-109549701D03*
X39827084Y-106249701D03*
%TD*%
D11*
%TO.C,MX3*%
X215722084Y-69799701D03*
D12*
X218262084Y-64719701D03*
D13*
X220802084Y-69799701D03*
D12*
X224612084Y-67259701D03*
D11*
X225882084Y-69799701D03*
D14*
X227887084Y-67259701D03*
X214960084Y-64719701D03*
%TD*%
D23*
%TO.C,MH2*%
X221300076Y-126949711D03*
%TD*%
D24*
%TO.C,TP4*%
X32114584Y-80799701D03*
%TD*%
D10*
%TO.C,D43*%
X35064584Y-128599701D03*
X35064584Y-125299701D03*
%TD*%
D11*
%TO.C,MX35*%
X251440834Y-126949701D03*
D12*
X253980834Y-121869701D03*
D13*
X256520834Y-126949701D03*
D12*
X260330834Y-124409701D03*
D11*
X261600834Y-126949701D03*
D14*
X263605834Y-124409701D03*
X250678834Y-121869701D03*
%TD*%
D11*
%TO.C,MX10*%
X82372084Y-69799701D03*
D12*
X84912084Y-64719701D03*
D13*
X87452084Y-69799701D03*
D12*
X91262084Y-67259701D03*
D11*
X92532084Y-69799701D03*
D14*
X94537084Y-67259701D03*
X81610084Y-64719701D03*
%TD*%
D10*
%TO.C,D40*%
X113645834Y-128599701D03*
X113645834Y-125299701D03*
%TD*%
D25*
%TO.C,C1*%
X139839584Y-56349701D03*
X139839584Y-58249701D03*
%TD*%
D10*
%TO.C,D11*%
X61258334Y-71449701D03*
X61258334Y-68149701D03*
%TD*%
%TO.C,D33*%
X66020834Y-109549701D03*
X66020834Y-106249701D03*
%TD*%
D11*
%TO.C,MX34*%
X41890834Y-107899701D03*
D12*
X44430834Y-102819701D03*
D13*
X46970834Y-107899701D03*
D12*
X50780834Y-105359701D03*
D11*
X52050834Y-107899701D03*
D14*
X54055834Y-105359701D03*
X41128834Y-102819701D03*
%TD*%
D11*
%TO.C,MX30*%
X125234584Y-107899701D03*
D12*
X127774584Y-102819701D03*
D13*
X130314584Y-107899701D03*
D12*
X134124584Y-105359701D03*
D11*
X135394584Y-107899701D03*
D14*
X137399584Y-105359701D03*
X124472584Y-102819701D03*
%TD*%
D10*
%TO.C,D41*%
X85070834Y-128599701D03*
X85070834Y-125299701D03*
%TD*%
D11*
%TO.C,MX42*%
X58559584Y-126949701D03*
D12*
X61099584Y-121869701D03*
D13*
X63639584Y-126949701D03*
D12*
X67449584Y-124409701D03*
D11*
X68719584Y-126949701D03*
D14*
X70724584Y-124409701D03*
X57797584Y-121869701D03*
%TD*%
D11*
%TO.C,MX7*%
X139522084Y-69799701D03*
D12*
X142062084Y-64719701D03*
D13*
X144602084Y-69799701D03*
D12*
X148412084Y-67259701D03*
D11*
X149682084Y-69799701D03*
D14*
X151687084Y-67259701D03*
X138760084Y-64719701D03*
%TD*%
D11*
%TO.C,MX32*%
X87134584Y-107899701D03*
D12*
X89674584Y-102819701D03*
D13*
X92214584Y-107899701D03*
D12*
X96024584Y-105359701D03*
D11*
X97294584Y-107899701D03*
D14*
X99299584Y-105359701D03*
X86372584Y-102819701D03*
%TD*%
D26*
%TO.C,R1*%
X32862084Y-82955951D03*
X31842084Y-82955951D03*
%TD*%
D11*
%TO.C,MX25*%
X220484584Y-107899701D03*
D12*
X223024584Y-102819701D03*
D13*
X225564584Y-107899701D03*
D12*
X229374584Y-105359701D03*
D11*
X230644584Y-107899701D03*
D14*
X232649584Y-105359701D03*
X219722584Y-102819701D03*
%TD*%
D27*
%TO.C,C12*%
X128589584Y-56524701D03*
X128589584Y-58074701D03*
%TD*%
D10*
%TO.C,D31*%
X104120834Y-109549701D03*
X104120834Y-106249701D03*
%TD*%
D11*
%TO.C,MX20*%
X115709584Y-88849701D03*
D12*
X118249584Y-83769701D03*
D13*
X120789584Y-88849701D03*
D12*
X124599584Y-86309701D03*
D11*
X125869584Y-88849701D03*
D14*
X127874584Y-86309701D03*
X114947584Y-83769701D03*
%TD*%
D28*
%TO.C,C11*%
X134589584Y-58074701D03*
X134589584Y-56524701D03*
%TD*%
D29*
%TO.C,FB1*%
X142089584Y-56237201D03*
X142089584Y-58362201D03*
%TD*%
D11*
%TO.C,MX28*%
X163334584Y-107899701D03*
D12*
X165874584Y-102819701D03*
D13*
X168414584Y-107899701D03*
D12*
X172224584Y-105359701D03*
D11*
X173494584Y-107899701D03*
D14*
X175499584Y-105359701D03*
X162572584Y-102819701D03*
%TD*%
D11*
%TO.C,MX9*%
X101422084Y-69799701D03*
D12*
X103962084Y-64719701D03*
D13*
X106502084Y-69799701D03*
D12*
X110312084Y-67259701D03*
D11*
X111582084Y-69799701D03*
D14*
X113587084Y-67259701D03*
X100660084Y-64719701D03*
%TD*%
D17*
%TO.C,C10*%
X38339584Y-84779701D03*
X38339584Y-83819701D03*
%TD*%
D21*
%TO.C,TP3*%
X126089584Y-57299701D03*
%TD*%
D11*
%TO.C,MX18*%
X153809584Y-88849701D03*
D12*
X156349584Y-83769701D03*
D13*
X158889584Y-88849701D03*
D12*
X162699584Y-86309701D03*
D11*
X163969584Y-88849701D03*
D14*
X165974584Y-86309701D03*
X153047584Y-83769701D03*
%TD*%
D11*
%TO.C,MX26*%
X201434584Y-107899701D03*
D12*
X203974584Y-102819701D03*
D13*
X206514584Y-107899701D03*
D12*
X210324584Y-105359701D03*
D11*
X211594584Y-107899701D03*
D14*
X213599584Y-105359701D03*
X200672584Y-102819701D03*
%TD*%
D30*
%TO.C,C8*%
X28839584Y-89069701D03*
X28839584Y-90029701D03*
%TD*%
D17*
%TO.C,C2*%
X28839584Y-87779701D03*
X28839584Y-86819701D03*
%TD*%
D31*
%TO.C,FID1*%
X273192500Y-55522500D03*
%TD*%
D10*
%TO.C,D35*%
X249377084Y-128599701D03*
X249377084Y-125299701D03*
%TD*%
%TO.C,D39*%
X142220834Y-128599701D03*
X142220834Y-125299701D03*
%TD*%
%TO.C,D30*%
X123170834Y-109549701D03*
X123170834Y-106249701D03*
%TD*%
%TO.C,D4*%
X194608334Y-71449701D03*
X194608334Y-68149701D03*
%TD*%
D11*
%TO.C,MX12*%
X39509584Y-69799701D03*
D12*
X42049584Y-64719701D03*
D13*
X44589584Y-69799701D03*
D12*
X48399584Y-67259701D03*
D11*
X49669584Y-69799701D03*
D14*
X51674584Y-67259701D03*
X38747584Y-64719701D03*
%TD*%
D11*
%TO.C,MX11*%
X63322084Y-69799701D03*
D12*
X65862084Y-64719701D03*
D13*
X68402084Y-69799701D03*
D12*
X72212084Y-67259701D03*
D11*
X73482084Y-69799701D03*
D14*
X75487084Y-67259701D03*
X62560084Y-64719701D03*
%TD*%
D24*
%TO.C,TP5*%
X30089584Y-80799701D03*
%TD*%
D10*
%TO.C,D42*%
X56495834Y-128599701D03*
X56495834Y-125299701D03*
%TD*%
%TO.C,D2*%
X232708334Y-71449701D03*
X232708334Y-68149701D03*
%TD*%
%TO.C,D32*%
X85070834Y-109549701D03*
X85070834Y-106249701D03*
%TD*%
D32*
%TO.C,MX23*%
X39795334Y-81864701D03*
D13*
X39795334Y-97104701D03*
D11*
X46653334Y-88849701D03*
D12*
X49193334Y-83769701D03*
D13*
X51733334Y-88849701D03*
D12*
X55543334Y-86309701D03*
D11*
X56813334Y-88849701D03*
D32*
X63671334Y-81864701D03*
D13*
X63671334Y-97104701D03*
D14*
X58818334Y-86309701D03*
X45891334Y-83769701D03*
%TD*%
D11*
%TO.C,MX13*%
X251440834Y-88849701D03*
D12*
X253980834Y-83769701D03*
D13*
X256520834Y-88849701D03*
D12*
X260330834Y-86309701D03*
D11*
X261600834Y-88849701D03*
D14*
X263605834Y-86309701D03*
X250678834Y-83769701D03*
%TD*%
D23*
%TO.C,MH1*%
X77631260Y-126949711D03*
%TD*%
D10*
%TO.C,D20*%
X113645834Y-90499701D03*
X113645834Y-87199701D03*
%TD*%
%TO.C,D25*%
X218420834Y-109549701D03*
X218420834Y-106249701D03*
%TD*%
%TO.C,D29*%
X142220834Y-109549701D03*
X142220834Y-106249701D03*
%TD*%
D27*
%TO.C,C7*%
X27339584Y-89274701D03*
X27339584Y-90824701D03*
%TD*%
D10*
%TO.C,D28*%
X161270834Y-109549701D03*
X161270834Y-106249701D03*
%TD*%
D24*
%TO.C,TP1*%
X27089584Y-87299701D03*
%TD*%
D22*
%TO.C,C5*%
X30850834Y-82955951D03*
X29890834Y-82955951D03*
%TD*%
D10*
%TO.C,D5*%
X175558334Y-71449701D03*
X175558334Y-68149701D03*
%TD*%
D23*
%TO.C,MH4*%
X70563736Y-80023469D03*
%TD*%
D11*
%TO.C,MX4*%
X196672084Y-69799701D03*
D12*
X199212084Y-64719701D03*
D13*
X201752084Y-69799701D03*
D12*
X205562084Y-67259701D03*
D11*
X206832084Y-69799701D03*
D14*
X208837084Y-67259701D03*
X195910084Y-64719701D03*
%TD*%
D11*
%TO.C,MX2*%
X234772084Y-69799701D03*
D12*
X237312084Y-64719701D03*
D13*
X239852084Y-69799701D03*
D12*
X243662084Y-67259701D03*
D11*
X244932084Y-69799701D03*
D14*
X246937084Y-67259701D03*
X234010084Y-64719701D03*
%TD*%
D33*
%TO.C,C3*%
X36864584Y-93879387D03*
X35314584Y-93879387D03*
%TD*%
D32*
%TO.C,MX38*%
X166001584Y-119964701D03*
D13*
X166001584Y-135204701D03*
D11*
X172859584Y-126949701D03*
D12*
X175399584Y-121869701D03*
D13*
X177939584Y-126949701D03*
D12*
X181749584Y-124409701D03*
D11*
X183019584Y-126949701D03*
D32*
X189877584Y-119964701D03*
D13*
X189877584Y-135204701D03*
D14*
X185024584Y-124409701D03*
X172097584Y-121869701D03*
%TD*%
D10*
%TO.C,D19*%
X132695834Y-90499701D03*
X132695834Y-87199701D03*
%TD*%
%TO.C,D21*%
X94595834Y-90499701D03*
X94595834Y-87199701D03*
%TD*%
%TO.C,D18*%
X151745834Y-90499701D03*
X151745834Y-87199701D03*
%TD*%
%TO.C,D27*%
X180320834Y-109549701D03*
X180320834Y-106249701D03*
%TD*%
D31*
%TO.C,FID2*%
X25542500Y-141247500D03*
%TD*%
D11*
%TO.C,MX27*%
X182384584Y-107899701D03*
D12*
X184924584Y-102819701D03*
D13*
X187464584Y-107899701D03*
D12*
X191274584Y-105359701D03*
D11*
X192544584Y-107899701D03*
D14*
X194549584Y-105359701D03*
X181622584Y-102819701D03*
%TD*%
D10*
%TO.C,D37*%
X199370834Y-128599701D03*
X199370834Y-125299701D03*
%TD*%
%TO.C,D38*%
X170795834Y-128599701D03*
X170795834Y-125299701D03*
%TD*%
%TO.C,D10*%
X80308334Y-71449701D03*
X80308334Y-68149701D03*
%TD*%
D11*
%TO.C,MX17*%
X172859584Y-88849701D03*
D12*
X175399584Y-83769701D03*
D13*
X177939584Y-88849701D03*
D12*
X181749584Y-86309701D03*
D11*
X183019584Y-88849701D03*
D14*
X185024584Y-86309701D03*
X172097584Y-83769701D03*
%TD*%
D11*
%TO.C,MX37*%
X201434584Y-126949701D03*
D12*
X203974584Y-121869701D03*
D13*
X206514584Y-126949701D03*
D12*
X210324584Y-124409701D03*
D11*
X211594584Y-126949701D03*
D14*
X213599584Y-124409701D03*
X200672584Y-121869701D03*
%TD*%
D11*
%TO.C,MX14*%
X230009584Y-88849701D03*
D12*
X232549584Y-83769701D03*
D13*
X235089584Y-88849701D03*
D12*
X238899584Y-86309701D03*
D11*
X240169584Y-88849701D03*
D14*
X242174584Y-86309701D03*
X229247584Y-83769701D03*
%TD*%
D10*
%TO.C,D14*%
X227945834Y-90499701D03*
X227945834Y-87199701D03*
%TD*%
D28*
%TO.C,C9*%
X27339584Y-84824701D03*
X27339584Y-83274701D03*
%TD*%
D32*
%TO.C,MX40*%
X108851584Y-119964701D03*
D13*
X108851584Y-135204701D03*
D11*
X115709584Y-126949701D03*
D12*
X118249584Y-121869701D03*
D13*
X120789584Y-126949701D03*
D12*
X124599584Y-124409701D03*
D11*
X125869584Y-126949701D03*
D32*
X132727584Y-119964701D03*
D13*
X132727584Y-135204701D03*
D14*
X127874584Y-124409701D03*
X114947584Y-121869701D03*
%TD*%
D11*
%TO.C,MX15*%
X210959584Y-88849701D03*
D12*
X213499584Y-83769701D03*
D13*
X216039584Y-88849701D03*
D12*
X219849584Y-86309701D03*
D11*
X221119584Y-88849701D03*
D14*
X223124584Y-86309701D03*
X210197584Y-83769701D03*
%TD*%
D11*
%TO.C,MX36*%
X230009584Y-126949701D03*
D12*
X232549584Y-121869701D03*
D13*
X235089584Y-126949701D03*
D12*
X238899584Y-124409701D03*
D11*
X240169584Y-126949701D03*
D14*
X242174584Y-124409701D03*
X229247584Y-121869701D03*
%TD*%
D10*
%TO.C,D24*%
X244614584Y-109549701D03*
X244614584Y-106249701D03*
%TD*%
D23*
%TO.C,MH3*%
X245669792Y-80023469D03*
%TD*%
D10*
%TO.C,D1*%
X251758334Y-71449701D03*
X251758334Y-68149701D03*
%TD*%
D34*
%TO.C,U2*%
X132727084Y-58249701D03*
X132727084Y-57299701D03*
X132727084Y-56349701D03*
X130452084Y-56349701D03*
X130452084Y-58249701D03*
%TD*%
M02*
